<svg xmlns="http://www.w3.org/2000/svg" xmlns:xlink="http://www.w3.org/1999/xlink" version="1.1" class="marks" width="433" height="492" viewBox="0 0 433 492"><rect width="433" height="492" fill="white"/><g fill="none" stroke-miterlimit="10" transform="translate(93,5)"><g class="mark-group role-frame root" role="graphics-object" aria-roledescription="group mark container"><g transform="translate(0,0)"><path class="background" aria-hidden="true" d="M0.5,0.5h220v320h-220Z" stroke="#ddd"/><g><g class="mark-rect role-mark marks" role="graphics-symbol" aria-roledescription="rect mark container"><path d="M200,240h20v20h-20Z" fill="rgb(185, 228, 190)"/><path d="M80,120h20v20h-20Z" fill="rgb(211, 238, 206)"/><path d="M200,180h20v20h-20Z" fill="rgb(115, 199, 199)"/><path d="M200,220h20v20h-20Z" fill="rgb(11, 96, 161)"/><path d="M200,300h20v20h-20Z" fill="rgb(34, 131, 185)"/><path d="M200,20h20v20h-20Z" fill="rgb(192, 230, 193)"/><path d="M200,200h20v20h-20Z" fill="rgb(208, 237, 203)"/><path d="M20,140h20v20h-20Z" fill="rgb(211, 238, 206)"/><path d="M200,0h20v20h-20Z" fill="rgb(199, 233, 197)"/><path d="M200,140h20v20h-20Z" fill="rgb(192, 230, 193)"/><path d="M200,160h20v20h-20Z" fill="rgb(187, 229, 191)"/><path d="M120,180h20v20h-20Z" fill="rgb(210, 237, 205)"/><path d="M200,60h20v20h-20Z" fill="rgb(210, 238, 206)"/><path d="M20,220h20v20h-20Z" fill="rgb(210, 238, 206)"/><path d="M200,260h20v20h-20Z" fill="rgb(211, 238, 206)"/><path d="M200,280h20v20h-20Z" fill="rgb(207, 236, 203)"/><path d="M200,80h20v20h-20Z" fill="rgb(210, 238, 205)"/><path d="M140,20h20v20h-20Z" fill="rgb(211, 238, 206)"/><path d="M200,100h20v20h-20Z" fill="rgb(206, 236, 202)"/><path d="M200,120h20v20h-20Z" fill="rgb(206, 236, 202)"/><path d="M120,300h20v20h-20Z" fill="rgb(211, 238, 206)"/><path d="M120,140h20v20h-20Z" fill="rgb(211, 238, 206)"/><path d="M0,180h20v20h-20Z" fill="rgb(211, 238, 206)"/><path d="M100,300h20v20h-20Z" fill="rgb(211, 238, 206)"/><path d="M80,180h20v20h-20Z" fill="rgb(211, 238, 206)"/><path d="M200,40h20v20h-20Z" fill="rgb(205, 236, 202)"/><path d="M120,220h20v20h-20Z" fill="rgb(211, 238, 206)"/><path d="M0,120h20v20h-20Z" fill="rgb(211, 238, 206)"/><path d="M140,80h20v20h-20Z" fill="rgb(211, 238, 206)"/><path d="M120,240h20v20h-20Z" fill="rgb(211, 238, 206)"/><path d="M140,300h20v20h-20Z" fill="rgb(211, 238, 206)"/><path d="M80,300h20v20h-20Z" fill="rgb(210, 238, 206)"/><path d="M80,220h20v20h-20Z" fill="rgb(210, 238, 205)"/><path d="M0,160h20v20h-20Z" fill="rgb(211, 238, 206)"/><path d="M0,20h20v20h-20Z" fill="rgb(211, 238, 206)"/><path d="M180,40h20v20h-20Z" fill="rgb(211, 238, 206)"/><path d="M0,220h20v20h-20Z" fill="rgb(211, 238, 206)"/><path d="M140,220h20v20h-20Z" fill="rgb(210, 238, 205)"/><path d="M60,180h20v20h-20Z" fill="rgb(211, 238, 206)"/><path d="M100,180h20v20h-20Z" fill="rgb(211, 238, 206)"/><path d="M140,100h20v20h-20Z" fill="rgb(211, 238, 206)"/><path d="M180,220h20v20h-20Z" fill="rgb(211, 238, 206)"/><path d="M0,300h20v20h-20Z" fill="rgb(211, 238, 206)"/><path d="M80,20h20v20h-20Z" fill="rgb(211, 238, 206)"/><path d="M80,160h20v20h-20Z" fill="rgb(211, 238, 206)"/><path d="M0,0h20v20h-20Z" fill="rgb(211, 238, 206)"/><path d="M20,300h20v20h-20Z" fill="rgb(211, 238, 206)"/><path d="M60,20h20v20h-20Z" fill="rgb(211, 238, 206)"/><path d="M0,100h20v20h-20Z" fill="rgb(211, 238, 206)"/><path d="M180,20h20v20h-20Z" fill="rgb(211, 238, 206)"/><path d="M160,220h20v20h-20Z" fill="rgb(211, 238, 206)"/><path d="M20,160h20v20h-20Z" fill="rgb(211, 238, 206)"/><path d="M80,140h20v20h-20Z" fill="rgb(211, 238, 206)"/><path d="M120,0h20v20h-20Z" fill="rgb(211, 238, 206)"/><path d="M140,180h20v20h-20Z" fill="rgb(211, 238, 206)"/><path d="M0,200h20v20h-20Z" fill="rgb(211, 238, 206)"/><path d="M60,300h20v20h-20Z" fill="rgb(211, 238, 206)"/><path d="M0,240h20v20h-20Z" fill="rgb(211, 238, 206)"/><path d="M180,300h20v20h-20Z" fill="rgb(211, 238, 206)"/><path d="M140,120h20v20h-20Z" fill="rgb(211, 238, 206)"/><path d="M20,200h20v20h-20Z" fill="rgb(211, 238, 206)"/><path d="M20,80h20v20h-20Z" fill="rgb(211, 238, 206)"/><path d="M120,20h20v20h-20Z" fill="rgb(211, 238, 206)"/><path d="M60,220h20v20h-20Z" fill="rgb(211, 238, 206)"/><path d="M20,180h20v20h-20Z" fill="rgb(211, 238, 206)"/><path d="M120,80h20v20h-20Z" fill="rgb(211, 238, 206)"/><path d="M120,260h20v20h-20Z" fill="rgb(211, 238, 206)"/><path d="M160,300h20v20h-20Z" fill="rgb(211, 238, 206)"/><path d="M0,280h20v20h-20Z" fill="rgb(211, 238, 206)"/><path d="M140,140h20v20h-20Z" fill="rgb(211, 238, 206)"/><path d="M40,300h20v20h-20Z" fill="rgb(211, 238, 206)"/><path d="M20,240h20v20h-20Z" fill="rgb(211, 238, 206)"/><path d="M0,40h20v20h-20Z" fill="rgb(211, 238, 206)"/><path d="M120,160h20v20h-20Z" fill="rgb(211, 238, 206)"/><path d="M120,280h20v20h-20Z" fill="rgb(211, 238, 206)"/><path d="M140,0h20v20h-20Z" fill="rgb(211, 238, 206)"/><path d="M180,120h20v20h-20Z" fill="rgb(211, 238, 206)"/><path d="M140,160h20v20h-20Z" fill="rgb(211, 238, 206)"/><path d="M80,0h20v20h-20Z" fill="rgb(211, 238, 206)"/><path d="M20,0h20v20h-20Z" fill="rgb(211, 238, 206)"/><path d="M140,40h20v20h-20Z" fill="rgb(211, 238, 206)"/><path d="M60,120h20v20h-20Z" fill="rgb(211, 238, 206)"/><path d="M100,220h20v20h-20Z" fill="rgb(211, 238, 206)"/><path d="M180,100h20v20h-20Z" fill="rgb(211, 238, 206)"/><path d="M120,100h20v20h-20Z" fill="rgb(211, 238, 206)"/><path d="M180,140h20v20h-20Z" fill="rgb(211, 238, 206)"/></g><g class="mark-group role-legend" role="graphics-symbol" aria-roledescription="legend" aria-label="Gradient legend titled 'Count of Records' for fill color with values from 1 to 3,107"><g transform="translate(238,0)"><path class="background" aria-hidden="true" d="M0,0h97v216h-97Z" pointer-events="none"/><g><g class="mark-group role-legend-entry"><g transform="translate(0,16)"><path class="background" aria-hidden="true" d="M0,0h0v0h0Z" pointer-events="none"/><g><g class="mark-rect role-legend-gradient" pointer-events="none"><path d="M0,0h16v200h-16Z" fill="url(#gradient_0)" stroke="#ddd" stroke-width="0" opacity="1"/></g><g class="mark-text role-legend-label" pointer-events="none"><text text-anchor="start" transform="translate(18,138.67289117836447)" font-family="sans-serif" font-size="10px" fill="#000" opacity="1">1,000</text><text text-anchor="start" transform="translate(18,74.28139085640694)" font-family="sans-serif" font-size="10px" fill="#000" opacity="1">2,000</text><text text-anchor="start" transform="translate(18,9.88989053444946)" font-family="sans-serif" font-size="10px" fill="#000" opacity="1">3,000</text></g></g><path class="foreground" aria-hidden="true" d="" pointer-events="none" display="none"/></g></g><g class="mark-text role-legend-title" pointer-events="none"><text text-anchor="start" transform="translate(0,9)" font-family="sans-serif" font-size="11px" font-weight="bold" fill="#000" opacity="1">Count of Records</text></g></g><path class="foreground" aria-hidden="true" d="" pointer-events="none" display="none"/></g></g><g class="mark-group role-axis" role="graphics-symbol" aria-roledescription="axis" aria-label="X-axis titled 'native-country' for a discrete scale with 11 values:  Canada,  England,  Holand-Netherlands,  Ireland,  Jamaica, ending with  United-States"><g transform="translate(0.5,320.5)"><path class="background" aria-hidden="true" d="M0,0h0v0h0Z" pointer-events="none"/><g><g class="mark-rule role-axis-tick" pointer-events="none"><line transform="translate(10,0)" x2="0" y2="5" stroke="#888" stroke-width="1" opacity="1"/><line transform="translate(30,0)" x2="0" y2="5" stroke="#888" stroke-width="1" opacity="1"/><line transform="translate(50,0)" x2="0" y2="5" stroke="#888" stroke-width="1" opacity="1"/><line transform="translate(70,0)" x2="0" y2="5" stroke="#888" stroke-width="1" opacity="1"/><line transform="translate(90,0)" x2="0" y2="5" stroke="#888" stroke-width="1" opacity="1"/><line transform="translate(110,0)" x2="0" y2="5" stroke="#888" stroke-width="1" opacity="1"/><line transform="translate(130,0)" x2="0" y2="5" stroke="#888" stroke-width="1" opacity="1"/><line transform="translate(150,0)" x2="0" y2="5" stroke="#888" stroke-width="1" opacity="1"/><line transform="translate(170,0)" x2="0" y2="5" stroke="#888" stroke-width="1" opacity="1"/><line transform="translate(190,0)" x2="0" y2="5" stroke="#888" stroke-width="1" opacity="1"/><line transform="translate(210,0)" x2="0" y2="5" stroke="#888" stroke-width="1" opacity="1"/></g><g class="mark-text role-axis-label" pointer-events="none"><text text-anchor="end" transform="translate(9.5,7) rotate(270) translate(0,3)" font-family="sans-serif" font-size="10px" fill="#000" opacity="1">Canada</text><text text-anchor="end" transform="translate(29.5,7) rotate(270) translate(0,3)" font-family="sans-serif" font-size="10px" fill="#000" opacity="1">England</text><text text-anchor="end" transform="translate(49.5,7) rotate(270) translate(0,3)" font-family="sans-serif" font-size="10px" fill="#000" opacity="1">Holand-Netherlands</text><text text-anchor="end" transform="translate(69.5,7) rotate(270) translate(0,3)" font-family="sans-serif" font-size="10px" fill="#000" opacity="1">Ireland</text><text text-anchor="end" transform="translate(89.5,7) rotate(270) translate(0,3)" font-family="sans-serif" font-size="10px" fill="#000" opacity="1">Jamaica</text><text text-anchor="end" transform="translate(109.5,7) rotate(270) translate(0,3)" font-family="sans-serif" font-size="10px" fill="#000" opacity="1">Outlying-US(Guam-USVI-etc)</text><text text-anchor="end" transform="translate(129.5,7) rotate(270) translate(0,3)" font-family="sans-serif" font-size="10px" fill="#000" opacity="1">Philippines</text><text text-anchor="end" transform="translate(149.5,7) rotate(270) translate(0,3)" font-family="sans-serif" font-size="10px" fill="#000" opacity="1">Puerto-Rico</text><text text-anchor="end" transform="translate(169.5,7) rotate(270) translate(0,3)" font-family="sans-serif" font-size="10px" fill="#000" opacity="1">Scotland</text><text text-anchor="end" transform="translate(189.5,7) rotate(270) translate(0,3)" font-family="sans-serif" font-size="10px" fill="#000" opacity="1">Trinadad&amp;Tobago</text><text text-anchor="end" transform="translate(209.5,7) rotate(270) translate(0,3)" font-family="sans-serif" font-size="10px" fill="#000" opacity="1">United-States</text></g><g class="mark-rule role-axis-domain" pointer-events="none"><line transform="translate(0,0)" x2="220" y2="0" stroke="#888" stroke-width="1" opacity="1"/></g><g class="mark-text role-axis-title" pointer-events="none"><text text-anchor="middle" transform="translate(110,159.9560546875)" font-family="sans-serif" font-size="11px" font-weight="bold" fill="#000" opacity="1">native-country</text></g></g><path class="foreground" aria-hidden="true" d="" pointer-events="none" display="none"/></g></g><g class="mark-group role-axis" role="graphics-symbol" aria-roledescription="axis" aria-label="Y-axis titled 'education' for a discrete scale with 16 values:  10th,  11th,  12th,  1st-4th,  5th-6th, ending with  Some-college"><g transform="translate(0.5,0.5)"><path class="background" aria-hidden="true" d="M0,0h0v0h0Z" pointer-events="none"/><g><g class="mark-rule role-axis-tick" pointer-events="none"><line transform="translate(0,10)" x2="-5" y2="0" stroke="#888" stroke-width="1" opacity="1"/><line transform="translate(0,30)" x2="-5" y2="0" stroke="#888" stroke-width="1" opacity="1"/><line transform="translate(0,50)" x2="-5" y2="0" stroke="#888" stroke-width="1" opacity="1"/><line transform="translate(0,70)" x2="-5" y2="0" stroke="#888" stroke-width="1" opacity="1"/><line transform="translate(0,90)" x2="-5" y2="0" stroke="#888" stroke-width="1" opacity="1"/><line transform="translate(0,110)" x2="-5" y2="0" stroke="#888" stroke-width="1" opacity="1"/><line transform="translate(0,130)" x2="-5" y2="0" stroke="#888" stroke-width="1" opacity="1"/><line transform="translate(0,150)" x2="-5" y2="0" stroke="#888" stroke-width="1" opacity="1"/><line transform="translate(0,170)" x2="-5" y2="0" stroke="#888" stroke-width="1" opacity="1"/><line transform="translate(0,190)" x2="-5" y2="0" stroke="#888" stroke-width="1" opacity="1"/><line transform="translate(0,210)" x2="-5" y2="0" stroke="#888" stroke-width="1" opacity="1"/><line transform="translate(0,230)" x2="-5" y2="0" stroke="#888" stroke-width="1" opacity="1"/><line transform="translate(0,250)" x2="-5" y2="0" stroke="#888" stroke-width="1" opacity="1"/><line transform="translate(0,270)" x2="-5" y2="0" stroke="#888" stroke-width="1" opacity="1"/><line transform="translate(0,290)" x2="-5" y2="0" stroke="#888" stroke-width="1" opacity="1"/><line transform="translate(0,310)" x2="-5" y2="0" stroke="#888" stroke-width="1" opacity="1"/></g><g class="mark-text role-axis-label" pointer-events="none"><text text-anchor="end" transform="translate(-7,12.5)" font-family="sans-serif" font-size="10px" fill="#000" opacity="1">10th</text><text text-anchor="end" transform="translate(-7,32.5)" font-family="sans-serif" font-size="10px" fill="#000" opacity="1">11th</text><text text-anchor="end" transform="translate(-7,52.5)" font-family="sans-serif" font-size="10px" fill="#000" opacity="1">12th</text><text text-anchor="end" transform="translate(-7,72.5)" font-family="sans-serif" font-size="10px" fill="#000" opacity="1">1st-4th</text><text text-anchor="end" transform="translate(-7,92.5)" font-family="sans-serif" font-size="10px" fill="#000" opacity="1">5th-6th</text><text text-anchor="end" transform="translate(-7,112.5)" font-family="sans-serif" font-size="10px" fill="#000" opacity="1">7th-8th</text><text text-anchor="end" transform="translate(-7,132.5)" font-family="sans-serif" font-size="10px" fill="#000" opacity="1">9th</text><text text-anchor="end" transform="translate(-7,152.5)" font-family="sans-serif" font-size="10px" fill="#000" opacity="1">Assoc-acdm</text><text text-anchor="end" transform="translate(-7,172.5)" font-family="sans-serif" font-size="10px" fill="#000" opacity="1">Assoc-voc</text><text text-anchor="end" transform="translate(-7,192.5)" font-family="sans-serif" font-size="10px" fill="#000" opacity="1">Bachelors</text><text text-anchor="end" transform="translate(-7,212.5)" font-family="sans-serif" font-size="10px" fill="#000" opacity="1">Doctorate</text><text text-anchor="end" transform="translate(-7,232.5)" font-family="sans-serif" font-size="10px" fill="#000" opacity="1">HS-grad</text><text text-anchor="end" transform="translate(-7,252.5)" font-family="sans-serif" font-size="10px" fill="#000" opacity="1">Masters</text><text text-anchor="end" transform="translate(-7,272.5)" font-family="sans-serif" font-size="10px" fill="#000" opacity="1">Preschool</text><text text-anchor="end" transform="translate(-7,292.5)" font-family="sans-serif" font-size="10px" fill="#000" opacity="1">Prof-school</text><text text-anchor="end" transform="translate(-7,312.5)" font-family="sans-serif" font-size="10px" fill="#000" opacity="1">Some-college</text></g><g class="mark-rule role-axis-domain" pointer-events="none"><line transform="translate(0,0)" x2="0" y2="320" stroke="#888" stroke-width="1" opacity="1"/></g><g class="mark-text role-axis-title" pointer-events="none"><text text-anchor="middle" transform="translate(-76.9375,160) rotate(-90) translate(0,-2)" font-family="sans-serif" font-size="11px" font-weight="bold" fill="#000" opacity="1">education</text></g></g><path class="foreground" aria-hidden="true" d="" pointer-events="none" display="none"/></g></g></g><path class="foreground" aria-hidden="true" d="" display="none"/></g></g></g><defs><linearGradient id="gradient_0" x1="0" x2="0" y1="1" y2="0"><stop offset="0" stop-color="rgb(211, 238, 206)"/><stop offset="0.06406954282034771" stop-color="rgb(202, 234, 199)"/><stop offset="0.12846104314230522" stop-color="rgb(191, 230, 193)"/><stop offset="0.19285254346426273" stop-color="rgb(178, 226, 188)"/><stop offset="0.25724404378622023" stop-color="rgb(164, 220, 187)"/><stop offset="0.32163554410817774" stop-color="rgb(150, 214, 189)"/><stop offset="0.38602704443013525" stop-color="rgb(133, 207, 193)"/><stop offset="0.4504185447520927" stop-color="rgb(117, 200, 198)"/><stop offset="0.5148100450740503" stop-color="rgb(101, 192, 202)"/><stop offset="0.5792015453960078" stop-color="rgb(86, 181, 204)"/><stop offset="0.6435930457179653" stop-color="rgb(72, 170, 202)"/><stop offset="0.7079845460399228" stop-color="rgb(58, 157, 198)"/><stop offset="0.7723760463618803" stop-color="rgb(46, 144, 192)"/><stop offset="0.8367675466838377" stop-color="rgb(33, 130, 185)"/><stop offset="0.9011590470057952" stop-color="rgb(22, 117, 177)"/><stop offset="0.9655505473277527" stop-color="rgb(15, 103, 167)"/><stop offset="1" stop-color="rgb(11, 96, 161)"/></linearGradient></defs></svg>