<svg xmlns="http://www.w3.org/2000/svg" xmlns:xlink="http://www.w3.org/1999/xlink" version="1.1" class="marks" width="931" height="586" viewBox="0 0 931 586"><rect width="931" height="586" fill="white"/><g fill="none" stroke-miterlimit="10" transform="translate(58,27)"><g class="mark-group role-frame root" role="graphics-object" aria-roledescription="group mark container"><g transform="translate(0,0)"><path class="background" aria-hidden="true" d="M0.5,0.5h800v400h-800Z" stroke="#ddd"/><g><g class="mark-group role-axis" role="graphics-symbol" aria-roledescription="axis" aria-label="Y-axis for a linear scale with values from 0 to 10,000"><g transform="translate(0.5,0.5)"><path class="background" aria-hidden="true" d="M0,0h0v0h0Z" pointer-events="none"/><g><g class="mark-rule role-axis-grid" pointer-events="none"><line transform="translate(0,400)" x2="800" y2="0" stroke="#ddd" stroke-width="1" opacity="1"/><line transform="translate(0,360)" x2="800" y2="0" stroke="#ddd" stroke-width="1" opacity="1"/><line transform="translate(0,320)" x2="800" y2="0" stroke="#ddd" stroke-width="1" opacity="1"/><line transform="translate(0,280)" x2="800" y2="0" stroke="#ddd" stroke-width="1" opacity="1"/><line transform="translate(0,240)" x2="800" y2="0" stroke="#ddd" stroke-width="1" opacity="1"/><line transform="translate(0,200)" x2="800" y2="0" stroke="#ddd" stroke-width="1" opacity="1"/><line transform="translate(0,160)" x2="800" y2="0" stroke="#ddd" stroke-width="1" opacity="1"/><line transform="translate(0,120)" x2="800" y2="0" stroke="#ddd" stroke-width="1" opacity="1"/><line transform="translate(0,80)" x2="800" y2="0" stroke="#ddd" stroke-width="1" opacity="1"/><line transform="translate(0,40)" x2="800" y2="0" stroke="#ddd" stroke-width="1" opacity="1"/><line transform="translate(0,0)" x2="800" y2="0" stroke="#ddd" stroke-width="1" opacity="1"/></g></g><path class="foreground" aria-hidden="true" d="" pointer-events="none" display="none"/></g></g><g class="mark-group role-axis" role="graphics-symbol" aria-roledescription="axis" aria-label="X-axis titled 'Country Resides' for a discrete scale with 42 values:  ?,  Cambodia,  Canada,  China,  Columbia, ending with  Yugoslavia"><g transform="translate(0.5,400.5)"><path class="background" aria-hidden="true" d="M0,0h0v0h0Z" pointer-events="none"/><g><g class="mark-rule role-axis-tick" pointer-events="none"><line transform="translate(9,0)" x2="0" y2="5" stroke="#888" stroke-width="1" opacity="1"/><line transform="translate(28,0)" x2="0" y2="5" stroke="#888" stroke-width="1" opacity="1"/><line transform="translate(47,0)" x2="0" y2="5" stroke="#888" stroke-width="1" opacity="1"/><line transform="translate(66,0)" x2="0" y2="5" stroke="#888" stroke-width="1" opacity="1"/><line transform="translate(85,0)" x2="0" y2="5" stroke="#888" stroke-width="1" opacity="1"/><line transform="translate(104,0)" x2="0" y2="5" stroke="#888" stroke-width="1" opacity="1"/><line transform="translate(123,0)" x2="0" y2="5" stroke="#888" stroke-width="1" opacity="1"/><line transform="translate(142,0)" x2="0" y2="5" stroke="#888" stroke-width="1" opacity="1"/><line transform="translate(161,0)" x2="0" y2="5" stroke="#888" stroke-width="1" opacity="1"/><line transform="translate(180,0)" x2="0" y2="5" stroke="#888" stroke-width="1" opacity="1"/><line transform="translate(200,0)" x2="0" y2="5" stroke="#888" stroke-width="1" opacity="1"/><line transform="translate(219,0)" x2="0" y2="5" stroke="#888" stroke-width="1" opacity="1"/><line transform="translate(238,0)" x2="0" y2="5" stroke="#888" stroke-width="1" opacity="1"/><line transform="translate(257,0)" x2="0" y2="5" stroke="#888" stroke-width="1" opacity="1"/><line transform="translate(276,0)" x2="0" y2="5" stroke="#888" stroke-width="1" opacity="1"/><line transform="translate(295,0)" x2="0" y2="5" stroke="#888" stroke-width="1" opacity="1"/><line transform="translate(314,0)" x2="0" y2="5" stroke="#888" stroke-width="1" opacity="1"/><line transform="translate(333,0)" x2="0" y2="5" stroke="#888" stroke-width="1" opacity="1"/><line transform="translate(352,0)" x2="0" y2="5" stroke="#888" stroke-width="1" opacity="1"/><line transform="translate(371,0)" x2="0" y2="5" stroke="#888" stroke-width="1" opacity="1"/><line transform="translate(390,0)" x2="0" y2="5" stroke="#888" stroke-width="1" opacity="1"/><line transform="translate(409,0)" x2="0" y2="5" stroke="#888" stroke-width="1" opacity="1"/><line transform="translate(428,0)" x2="0" y2="5" stroke="#888" stroke-width="1" opacity="1"/><line transform="translate(447,0)" x2="0" y2="5" stroke="#888" stroke-width="1" opacity="1"/><line transform="translate(466,0)" x2="0" y2="5" stroke="#888" stroke-width="1" opacity="1"/><line transform="translate(485,0)" x2="0" y2="5" stroke="#888" stroke-width="1" opacity="1"/><line transform="translate(504,0)" x2="0" y2="5" stroke="#888" stroke-width="1" opacity="1"/><line transform="translate(523,0)" x2="0" y2="5" stroke="#888" stroke-width="1" opacity="1"/><line transform="translate(542,0)" x2="0" y2="5" stroke="#888" stroke-width="1" opacity="1"/><line transform="translate(561,0)" x2="0" y2="5" stroke="#888" stroke-width="1" opacity="1"/><line transform="translate(580,0)" x2="0" y2="5" stroke="#888" stroke-width="1" opacity="1"/><line transform="translate(600,0)" x2="0" y2="5" stroke="#888" stroke-width="1" opacity="1"/><line transform="translate(619,0)" x2="0" y2="5" stroke="#888" stroke-width="1" opacity="1"/><line transform="translate(638,0)" x2="0" y2="5" stroke="#888" stroke-width="1" opacity="1"/><line transform="translate(657,0)" x2="0" y2="5" stroke="#888" stroke-width="1" opacity="1"/><line transform="translate(676,0)" x2="0" y2="5" stroke="#888" stroke-width="1" opacity="1"/><line transform="translate(695,0)" x2="0" y2="5" stroke="#888" stroke-width="1" opacity="1"/><line transform="translate(714,0)" x2="0" y2="5" stroke="#888" stroke-width="1" opacity="1"/><line transform="translate(733,0)" x2="0" y2="5" stroke="#888" stroke-width="1" opacity="1"/><line transform="translate(752,0)" x2="0" y2="5" stroke="#888" stroke-width="1" opacity="1"/><line transform="translate(771,0)" x2="0" y2="5" stroke="#888" stroke-width="1" opacity="1"/><line transform="translate(790,0)" x2="0" y2="5" stroke="#888" stroke-width="1" opacity="1"/></g><g class="mark-text role-axis-label" pointer-events="none"><text text-anchor="end" transform="translate(9.023809523809534,7) rotate(270) translate(0,3)" font-family="sans-serif" font-size="10px" fill="#000" opacity="1">?</text><text text-anchor="end" transform="translate(28.071428571428584,7) rotate(270) translate(0,3)" font-family="sans-serif" font-size="10px" fill="#000" opacity="1">Cambodia</text><text text-anchor="end" transform="translate(47.11904761904763,7) rotate(270) translate(0,3)" font-family="sans-serif" font-size="10px" fill="#000" opacity="1">Canada</text><text text-anchor="end" transform="translate(66.16666666666667,7) rotate(270) translate(0,3)" font-family="sans-serif" font-size="10px" fill="#000" opacity="1">China</text><text text-anchor="end" transform="translate(85.21428571428572,7) rotate(270) translate(0,3)" font-family="sans-serif" font-size="10px" fill="#000" opacity="1">Columbia</text><text text-anchor="end" transform="translate(104.26190476190477,7) rotate(270) translate(0,3)" font-family="sans-serif" font-size="10px" fill="#000" opacity="1">Cuba</text><text text-anchor="end" transform="translate(123.30952380952381,7) rotate(270) translate(0,3)" font-family="sans-serif" font-size="10px" fill="#000" opacity="1">Dominican-Republic</text><text text-anchor="end" transform="translate(142.3571428571429,7) rotate(270) translate(0,3)" font-family="sans-serif" font-size="10px" fill="#000" opacity="1">Ecuador</text><text text-anchor="end" transform="translate(161.40476190476193,7) rotate(270) translate(0,3)" font-family="sans-serif" font-size="10px" fill="#000" opacity="1">El-Salvador</text><text text-anchor="end" transform="translate(180.45238095238096,7) rotate(270) translate(0,3)" font-family="sans-serif" font-size="10px" fill="#000" opacity="1">England</text><text text-anchor="end" transform="translate(199.50000000000003,7) rotate(270) translate(0,3)" font-family="sans-serif" font-size="10px" fill="#000" opacity="1">France</text><text text-anchor="end" transform="translate(218.54761904761907,7) rotate(270) translate(0,3)" font-family="sans-serif" font-size="10px" fill="#000" opacity="1">Germany</text><text text-anchor="end" transform="translate(237.5952380952381,7) rotate(270) translate(0,3)" font-family="sans-serif" font-size="10px" fill="#000" opacity="1">Greece</text><text text-anchor="end" transform="translate(256.64285714285717,7) rotate(270) translate(0,3)" font-family="sans-serif" font-size="10px" fill="#000" opacity="1">Guatemala</text><text text-anchor="end" transform="translate(275.6904761904762,7) rotate(270) translate(0,3)" font-family="sans-serif" font-size="10px" fill="#000" opacity="1">Haiti</text><text text-anchor="end" transform="translate(294.73809523809524,7) rotate(270) translate(0,3)" font-family="sans-serif" font-size="10px" fill="#000" opacity="1">Holand-Netherlands</text><text text-anchor="end" transform="translate(313.7857142857143,7) rotate(270) translate(0,3)" font-family="sans-serif" font-size="10px" fill="#000" opacity="1">Honduras</text><text text-anchor="end" transform="translate(332.8333333333333,7) rotate(270) translate(0,3)" font-family="sans-serif" font-size="10px" fill="#000" opacity="1">Hong</text><text text-anchor="end" transform="translate(351.88095238095235,7) rotate(270) translate(0,3)" font-family="sans-serif" font-size="10px" fill="#000" opacity="1">Hungary</text><text text-anchor="end" transform="translate(370.92857142857144,7) rotate(270) translate(0,3)" font-family="sans-serif" font-size="10px" fill="#000" opacity="1">India</text><text text-anchor="end" transform="translate(389.9761904761905,7) rotate(270) translate(0,3)" font-family="sans-serif" font-size="10px" fill="#000" opacity="1">Iran</text><text text-anchor="end" transform="translate(409.0238095238095,7) rotate(270) translate(0,3)" font-family="sans-serif" font-size="10px" fill="#000" opacity="1">Ireland</text><text text-anchor="end" transform="translate(428.07142857142856,7) rotate(270) translate(0,3)" font-family="sans-serif" font-size="10px" fill="#000" opacity="1">Italy</text><text text-anchor="end" transform="translate(447.1190476190476,7) rotate(270) translate(0,3)" font-family="sans-serif" font-size="10px" fill="#000" opacity="1">Jamaica</text><text text-anchor="end" transform="translate(466.16666666666663,7) rotate(270) translate(0,3)" font-family="sans-serif" font-size="10px" fill="#000" opacity="1">Japan</text><text text-anchor="end" transform="translate(485.2142857142857,7) rotate(270) translate(0,3)" font-family="sans-serif" font-size="10px" fill="#000" opacity="1">Laos</text><text text-anchor="end" transform="translate(504.26190476190476,7) rotate(270) translate(0,3)" font-family="sans-serif" font-size="10px" fill="#000" opacity="1">Mexico</text><text text-anchor="end" transform="translate(523.3095238095239,7) rotate(270) translate(0,3)" font-family="sans-serif" font-size="10px" fill="#000" opacity="1">Nicaragua</text><text text-anchor="end" transform="translate(542.3571428571429,7) rotate(270) translate(0,3)" font-family="sans-serif" font-size="10px" fill="#000" opacity="1">Outlying-US(Guam-USVI-etc)</text><text text-anchor="end" transform="translate(561.4047619047619,7) rotate(270) translate(0,3)" font-family="sans-serif" font-size="10px" fill="#000" opacity="1">Peru</text><text text-anchor="end" transform="translate(580.452380952381,7) rotate(270) translate(0,3)" font-family="sans-serif" font-size="10px" fill="#000" opacity="1">Philippines</text><text text-anchor="end" transform="translate(599.5,7) rotate(270) translate(0,3)" font-family="sans-serif" font-size="10px" fill="#000" opacity="1">Poland</text><text text-anchor="end" transform="translate(618.547619047619,7) rotate(270) translate(0,3)" font-family="sans-serif" font-size="10px" fill="#000" opacity="1">Portugal</text><text text-anchor="end" transform="translate(637.5952380952381,7) rotate(270) translate(0,3)" font-family="sans-serif" font-size="10px" fill="#000" opacity="1">Puerto-Rico</text><text text-anchor="end" transform="translate(656.6428571428571,7) rotate(270) translate(0,3)" font-family="sans-serif" font-size="10px" fill="#000" opacity="1">Scotland</text><text text-anchor="end" transform="translate(675.6904761904761,7) rotate(270) translate(0,3)" font-family="sans-serif" font-size="10px" fill="#000" opacity="1">South</text><text text-anchor="end" transform="translate(694.7380952380952,7) rotate(270) translate(0,3)" font-family="sans-serif" font-size="10px" fill="#000" opacity="1">Taiwan</text><text text-anchor="end" transform="translate(713.7857142857142,7) rotate(270) translate(0,3)" font-family="sans-serif" font-size="10px" fill="#000" opacity="1">Thailand</text><text text-anchor="end" transform="translate(732.8333333333334,7) rotate(270) translate(0,3)" font-family="sans-serif" font-size="10px" fill="#000" opacity="1">Trinadad&amp;Tobago</text><text text-anchor="end" transform="translate(751.8809523809524,7) rotate(270) translate(0,3)" font-family="sans-serif" font-size="10px" fill="#000" opacity="1">United-States</text><text text-anchor="end" transform="translate(770.9285714285714,7) rotate(270) translate(0,3)" font-family="sans-serif" font-size="10px" fill="#000" opacity="1">Vietnam</text><text text-anchor="end" transform="translate(789.9761904761905,7) rotate(270) translate(0,3)" font-family="sans-serif" font-size="10px" fill="#000" opacity="1">Yugoslavia</text></g><g class="mark-rule role-axis-domain" pointer-events="none"><line transform="translate(0,0)" x2="800" y2="0" stroke="#888" stroke-width="1" opacity="1"/></g><g class="mark-text role-axis-title" pointer-events="none"><text text-anchor="middle" transform="translate(400,151.1376953125)" font-family="sans-serif" font-size="11px" font-weight="bold" fill="#000" opacity="1">Country Resides</text></g></g><path class="foreground" aria-hidden="true" d="" pointer-events="none" display="none"/></g></g><g class="mark-group role-axis" role="graphics-symbol" aria-roledescription="axis" aria-label="Y-axis titled 'Amount of Woman' for a linear scale with values from 0 to 10,000"><g transform="translate(0.5,0.5)"><path class="background" aria-hidden="true" d="M0,0h0v0h0Z" pointer-events="none"/><g><g class="mark-rule role-axis-tick" pointer-events="none"><line transform="translate(0,400)" x2="-5" y2="0" stroke="#888" stroke-width="1" opacity="1"/><line transform="translate(0,360)" x2="-5" y2="0" stroke="#888" stroke-width="1" opacity="1"/><line transform="translate(0,320)" x2="-5" y2="0" stroke="#888" stroke-width="1" opacity="1"/><line transform="translate(0,280)" x2="-5" y2="0" stroke="#888" stroke-width="1" opacity="1"/><line transform="translate(0,240)" x2="-5" y2="0" stroke="#888" stroke-width="1" opacity="1"/><line transform="translate(0,200)" x2="-5" y2="0" stroke="#888" stroke-width="1" opacity="1"/><line transform="translate(0,160)" x2="-5" y2="0" stroke="#888" stroke-width="1" opacity="1"/><line transform="translate(0,120)" x2="-5" y2="0" stroke="#888" stroke-width="1" opacity="1"/><line transform="translate(0,80)" x2="-5" y2="0" stroke="#888" stroke-width="1" opacity="1"/><line transform="translate(0,40)" x2="-5" y2="0" stroke="#888" stroke-width="1" opacity="1"/><line transform="translate(0,0)" x2="-5" y2="0" stroke="#888" stroke-width="1" opacity="1"/></g><g class="mark-text role-axis-label" pointer-events="none"><text text-anchor="end" transform="translate(-7,403)" font-family="sans-serif" font-size="10px" fill="#000" opacity="1">0</text><text text-anchor="end" transform="translate(-7,363)" font-family="sans-serif" font-size="10px" fill="#000" opacity="1">1,000</text><text text-anchor="end" transform="translate(-7,323)" font-family="sans-serif" font-size="10px" fill="#000" opacity="1">2,000</text><text text-anchor="end" transform="translate(-7,283)" font-family="sans-serif" font-size="10px" fill="#000" opacity="1">3,000</text><text text-anchor="end" transform="translate(-7,243)" font-family="sans-serif" font-size="10px" fill="#000" opacity="1">4,000</text><text text-anchor="end" transform="translate(-7,203)" font-family="sans-serif" font-size="10px" fill="#000" opacity="1">5,000</text><text text-anchor="end" transform="translate(-7,163)" font-family="sans-serif" font-size="10px" fill="#000" opacity="1">6,000</text><text text-anchor="end" transform="translate(-7,123.00000000000001)" font-family="sans-serif" font-size="10px" fill="#000" opacity="1">7,000</text><text text-anchor="end" transform="translate(-7,82.99999999999999)" font-family="sans-serif" font-size="10px" fill="#000" opacity="1">8,000</text><text text-anchor="end" transform="translate(-7,42.99999999999999)" font-family="sans-serif" font-size="10px" fill="#000" opacity="1">9,000</text><text text-anchor="end" transform="translate(-7,3)" font-family="sans-serif" font-size="10px" fill="#000" opacity="1">10,000</text></g><g class="mark-rule role-axis-domain" pointer-events="none"><line transform="translate(0,400)" x2="0" y2="-400" stroke="#888" stroke-width="1" opacity="1"/></g><g class="mark-text role-axis-title" pointer-events="none"><text text-anchor="middle" transform="translate(-41.5859375,200) rotate(-90) translate(0,-2)" font-family="sans-serif" font-size="11px" font-weight="bold" fill="#000" opacity="1">Amount of Woman</text></g></g><path class="foreground" aria-hidden="true" d="" pointer-events="none" display="none"/></g></g><g class="mark-rect role-mark marks" role="graphics-symbol" aria-roledescription="rect mark container"><path d="M96.1904761904762,398.4h17.142857142857142v1.6000000000000227h-17.142857142857142Z" fill="#4c78a8"/><path d="M743.8095238095239,12.72000000000002h17.142857142857142v387.28h-17.142857142857142Z" fill="#4c78a8"/><path d="M439.04761904761904,398.28000000000003h17.142857142857142v1.7199999999999704h-17.142857142857142Z" fill="#4c78a8"/><path d="M0.9523809523809632,393.48h17.142857142857142v6.519999999999982h-17.142857142857142Z" fill="#4c78a8"/><path d="M305.7142857142857,399.71999999999997h17.142857142857142v0.28000000000002956h-17.142857142857142Z" fill="#4c78a8"/><path d="M172.38095238095238,398.72h17.142857142857142v1.2799999999999727h-17.142857142857142Z" fill="#4c78a8"/><path d="M496.1904761904762,394.16h17.142857142857142v5.839999999999975h-17.142857142857142Z" fill="#4c78a8"/><path d="M572.3809523809524,397.08h17.142857142857142v2.920000000000016h-17.142857142857142Z" fill="#4c78a8"/><path d="M77.14285714285715,399.04h17.142857142857142v0.9599999999999795h-17.142857142857142Z" fill="#4c78a8"/><path d="M210.47619047619048,397.6h17.142857142857142v2.3999999999999773h-17.142857142857142Z" fill="#4c78a8"/><path d="M477.14285714285717,399.68h17.142857142857142v0.3199999999999932h-17.142857142857142Z" fill="#4c78a8"/><path d="M191.42857142857144,399.52h17.142857142857142v0.4800000000000182h-17.142857142857142Z" fill="#4c78a8"/><path d="M629.5238095238095,397.92h17.142857142857142v2.079999999999984h-17.142857142857142Z" fill="#4c78a8"/><path d="M667.6190476190476,398.8h17.142857142857142v1.1999999999999886h-17.142857142857142Z" fill="#4c78a8"/><path d="M591.4285714285714,399.24h17.142857142857142v0.7599999999999909h-17.142857142857142Z" fill="#4c78a8"/><path d="M420,399.16h17.142857142857142v0.839999999999975h-17.142857142857142Z" fill="#4c78a8"/><path d="M362.8571428571429,399.56h17.142857142857142v0.4399999999999977h-17.142857142857142Z" fill="#4c78a8"/><path d="M248.57142857142858,399.2h17.142857142857142v0.8000000000000114h-17.142857142857142Z" fill="#4c78a8"/><path d="M115.23809523809524,398.6h17.142857142857142v1.3999999999999773h-17.142857142857142Z" fill="#4c78a8"/><path d="M58.0952380952381,399.16h17.142857142857142v0.839999999999975h-17.142857142857142Z" fill="#4c78a8"/><path d="M153.33333333333334,398.6h17.142857142857142v1.3999999999999773h-17.142857142857142Z" fill="#4c78a8"/><path d="M458.0952380952381,399.2h17.142857142857142v0.8000000000000114h-17.142857142857142Z" fill="#4c78a8"/><path d="M39.04761904761906,398.44h17.142857142857142v1.5600000000000023h-17.142857142857142Z" fill="#4c78a8"/><path d="M553.3333333333334,399.44h17.142857142857142v0.5600000000000023h-17.142857142857142Z" fill="#4c78a8"/><path d="M534.2857142857143,399.71999999999997h17.142857142857142v0.28000000000002956h-17.142857142857142Z" fill="#4c78a8"/><path d="M267.61904761904765,399.2h17.142857142857142v0.8000000000000114h-17.142857142857142Z" fill="#4c78a8"/><path d="M515.2380952380953,399.52h17.142857142857142v0.4800000000000182h-17.142857142857142Z" fill="#4c78a8"/><path d="M324.76190476190476,399.76h17.142857142857142v0.2400000000000091h-17.142857142857142Z" fill="#4c78a8"/><path d="M724.7619047619048,399.56h17.142857142857142v0.4399999999999977h-17.142857142857142Z" fill="#4c78a8"/><path d="M610.4761904761905,399.52h17.142857142857142v0.4800000000000182h-17.142857142857142Z" fill="#4c78a8"/><path d="M762.8571428571429,399.08000000000004h17.142857142857142v0.9199999999999591h-17.142857142857142Z" fill="#4c78a8"/><path d="M400.95238095238096,399.71999999999997h17.142857142857142v0.28000000000002956h-17.142857142857142Z" fill="#4c78a8"/><path d="M381.9047619047619,399.68h17.142857142857142v0.3199999999999932h-17.142857142857142Z" fill="#4c78a8"/><path d="M134.2857142857143,399.64h17.142857142857142v0.36000000000001364h-17.142857142857142Z" fill="#4c78a8"/><path d="M781.9047619047619,399.88h17.142857142857142v0.12000000000000455h-17.142857142857142Z" fill="#4c78a8"/><path d="M20.00000000000001,399.88h17.142857142857142v0.12000000000000455h-17.142857142857142Z" fill="#4c78a8"/><path d="M686.6666666666666,399.40000000000003h17.142857142857142v0.5999999999999659h-17.142857142857142Z" fill="#4c78a8"/><path d="M229.52380952380952,399.8h17.142857142857142v0.19999999999998863h-17.142857142857142Z" fill="#4c78a8"/><path d="M705.7142857142857,399.56h17.142857142857142v0.4399999999999977h-17.142857142857142Z" fill="#4c78a8"/><path d="M648.5714285714286,399.8h17.142857142857142v0.19999999999998863h-17.142857142857142Z" fill="#4c78a8"/><path d="M343.8095238095238,399.76h17.142857142857142v0.2400000000000091h-17.142857142857142Z" fill="#4c78a8"/><path d="M286.6666666666667,399.96h17.142857142857142v0.040000000000020464h-17.142857142857142Z" fill="#4c78a8"/></g><g class="mark-group role-legend" role="graphics-symbol" aria-roledescription="legend" aria-label="Symbol legend titled 'sex' for fill color with 1 value:  Female"><g transform="translate(818,0)"><path class="background" aria-hidden="true" d="M0,0h50v27h-50Z" pointer-events="none"/><g><g class="mark-group role-legend-entry"><g transform="translate(0,16)"><path class="background" aria-hidden="true" d="M0,0h0v0h0Z" pointer-events="none"/><g><g class="mark-group role-scope" role="graphics-object" aria-roledescription="group mark container"><g transform="translate(0,0)"><path class="background" aria-hidden="true" d="M0,0h49.3447265625v11h-49.3447265625Z" pointer-events="none" opacity="1"/><g><g class="mark-symbol role-legend-symbol" pointer-events="none"><path transform="translate(6,6)" d="M-5,-5h10v10h-10Z" fill="#4c78a8" stroke-width="1.5" opacity="1"/></g><g class="mark-text role-legend-label" pointer-events="none"><text text-anchor="start" transform="translate(16,9)" font-family="sans-serif" font-size="10px" fill="#000" opacity="1">Female</text></g></g><path class="foreground" aria-hidden="true" d="" pointer-events="none" display="none"/></g></g></g><path class="foreground" aria-hidden="true" d="" pointer-events="none" display="none"/></g></g><g class="mark-text role-legend-title" pointer-events="none"><text text-anchor="start" transform="translate(0,9)" font-family="sans-serif" font-size="11px" font-weight="bold" fill="#000" opacity="1">sex</text></g></g><path class="foreground" aria-hidden="true" d="" pointer-events="none" display="none"/></g></g><g class="mark-group role-title"><g transform="translate(400,-22)"><path class="background" aria-hidden="true" d="M0,0h0v0h0Z" pointer-events="none"/><g><g class="mark-text role-title-text" role="graphics-symbol" aria-roledescription="title" aria-label="Title text 'Frequency of Woman by Country'" pointer-events="none"><text text-anchor="middle" transform="translate(0,10)" font-family="sans-serif" font-size="13px" font-weight="bold" fill="#000" opacity="1">Frequency of Woman by Country</text></g></g><path class="foreground" aria-hidden="true" d="" pointer-events="none" display="none"/></g></g></g><path class="foreground" aria-hidden="true" d="" display="none"/></g></g></g></svg>