<svg xmlns="http://www.w3.org/2000/svg" xmlns:xlink="http://www.w3.org/1999/xlink" version="1.1" class="marks" width="974" height="464" viewBox="0 0 974 464"><rect width="974" height="464" fill="white"/><g fill="none" stroke-miterlimit="10" transform="translate(53,27)"><g class="mark-group role-frame root" role="graphics-object" aria-roledescription="group mark container"><g transform="translate(0,0)"><path class="background" aria-hidden="true" d="M0.5,0.5h800v400h-800Z" stroke="#ddd"/><g><g class="mark-group role-axis" role="graphics-symbol" aria-roledescription="axis" aria-label="X-axis for a linear scale with values from 0 to 100"><g transform="translate(0.5,400.5)"><path class="background" aria-hidden="true" d="M0,0h0v0h0Z" pointer-events="none"/><g><g class="mark-rule role-axis-grid" pointer-events="none"><line transform="translate(0,-400)" x2="0" y2="400" stroke="#ddd" stroke-width="1" opacity="1"/><line transform="translate(40,-400)" x2="0" y2="400" stroke="#ddd" stroke-width="1" opacity="1"/><line transform="translate(80,-400)" x2="0" y2="400" stroke="#ddd" stroke-width="1" opacity="1"/><line transform="translate(120,-400)" x2="0" y2="400" stroke="#ddd" stroke-width="1" opacity="1"/><line transform="translate(160,-400)" x2="0" y2="400" stroke="#ddd" stroke-width="1" opacity="1"/><line transform="translate(200,-400)" x2="0" y2="400" stroke="#ddd" stroke-width="1" opacity="1"/><line transform="translate(240,-400)" x2="0" y2="400" stroke="#ddd" stroke-width="1" opacity="1"/><line transform="translate(280,-400)" x2="0" y2="400" stroke="#ddd" stroke-width="1" opacity="1"/><line transform="translate(320,-400)" x2="0" y2="400" stroke="#ddd" stroke-width="1" opacity="1"/><line transform="translate(360,-400)" x2="0" y2="400" stroke="#ddd" stroke-width="1" opacity="1"/><line transform="translate(400,-400)" x2="0" y2="400" stroke="#ddd" stroke-width="1" opacity="1"/><line transform="translate(440,-400)" x2="0" y2="400" stroke="#ddd" stroke-width="1" opacity="1"/><line transform="translate(480,-400)" x2="0" y2="400" stroke="#ddd" stroke-width="1" opacity="1"/><line transform="translate(520,-400)" x2="0" y2="400" stroke="#ddd" stroke-width="1" opacity="1"/><line transform="translate(560,-400)" x2="0" y2="400" stroke="#ddd" stroke-width="1" opacity="1"/><line transform="translate(600,-400)" x2="0" y2="400" stroke="#ddd" stroke-width="1" opacity="1"/><line transform="translate(640,-400)" x2="0" y2="400" stroke="#ddd" stroke-width="1" opacity="1"/><line transform="translate(680,-400)" x2="0" y2="400" stroke="#ddd" stroke-width="1" opacity="1"/><line transform="translate(720,-400)" x2="0" y2="400" stroke="#ddd" stroke-width="1" opacity="1"/><line transform="translate(760,-400)" x2="0" y2="400" stroke="#ddd" stroke-width="1" opacity="1"/><line transform="translate(800,-400)" x2="0" y2="400" stroke="#ddd" stroke-width="1" opacity="1"/></g></g><path class="foreground" aria-hidden="true" d="" pointer-events="none" display="none"/></g></g><g class="mark-group role-axis" role="graphics-symbol" aria-roledescription="axis" aria-label="Y-axis for a sqrt scale with values from 0 to 1,800"><g transform="translate(0.5,0.5)"><path class="background" aria-hidden="true" d="M0,0h0v0h0Z" pointer-events="none"/><g><g class="mark-rule role-axis-grid" pointer-events="none"><line transform="translate(0,400)" x2="800" y2="0" stroke="#ddd" stroke-width="1" opacity="1"/><line transform="translate(0,267)" x2="800" y2="0" stroke="#ddd" stroke-width="1" opacity="1"/><line transform="translate(0,211)" x2="800" y2="0" stroke="#ddd" stroke-width="1" opacity="1"/><line transform="translate(0,169)" x2="800" y2="0" stroke="#ddd" stroke-width="1" opacity="1"/><line transform="translate(0,133)" x2="800" y2="0" stroke="#ddd" stroke-width="1" opacity="1"/><line transform="translate(0,102)" x2="800" y2="0" stroke="#ddd" stroke-width="1" opacity="1"/><line transform="translate(0,73)" x2="800" y2="0" stroke="#ddd" stroke-width="1" opacity="1"/><line transform="translate(0,47)" x2="800" y2="0" stroke="#ddd" stroke-width="1" opacity="1"/><line transform="translate(0,23)" x2="800" y2="0" stroke="#ddd" stroke-width="1" opacity="1"/><line transform="translate(0,0)" x2="800" y2="0" stroke="#ddd" stroke-width="1" opacity="1"/></g></g><path class="foreground" aria-hidden="true" d="" pointer-events="none" display="none"/></g></g><g class="mark-group role-axis" role="graphics-symbol" aria-roledescription="axis" aria-label="X-axis titled 'Hour' for a linear scale with values from 0 to 100"><g transform="translate(0.5,400.5)"><path class="background" aria-hidden="true" d="M0,0h0v0h0Z" pointer-events="none"/><g><g class="mark-rule role-axis-tick" pointer-events="none"><line transform="translate(0,0)" x2="0" y2="5" stroke="#888" stroke-width="1" opacity="1"/><line transform="translate(40,0)" x2="0" y2="5" stroke="#888" stroke-width="1" opacity="1"/><line transform="translate(80,0)" x2="0" y2="5" stroke="#888" stroke-width="1" opacity="1"/><line transform="translate(120,0)" x2="0" y2="5" stroke="#888" stroke-width="1" opacity="1"/><line transform="translate(160,0)" x2="0" y2="5" stroke="#888" stroke-width="1" opacity="1"/><line transform="translate(200,0)" x2="0" y2="5" stroke="#888" stroke-width="1" opacity="1"/><line transform="translate(240,0)" x2="0" y2="5" stroke="#888" stroke-width="1" opacity="1"/><line transform="translate(280,0)" x2="0" y2="5" stroke="#888" stroke-width="1" opacity="1"/><line transform="translate(320,0)" x2="0" y2="5" stroke="#888" stroke-width="1" opacity="1"/><line transform="translate(360,0)" x2="0" y2="5" stroke="#888" stroke-width="1" opacity="1"/><line transform="translate(400,0)" x2="0" y2="5" stroke="#888" stroke-width="1" opacity="1"/><line transform="translate(440,0)" x2="0" y2="5" stroke="#888" stroke-width="1" opacity="1"/><line transform="translate(480,0)" x2="0" y2="5" stroke="#888" stroke-width="1" opacity="1"/><line transform="translate(520,0)" x2="0" y2="5" stroke="#888" stroke-width="1" opacity="1"/><line transform="translate(560,0)" x2="0" y2="5" stroke="#888" stroke-width="1" opacity="1"/><line transform="translate(600,0)" x2="0" y2="5" stroke="#888" stroke-width="1" opacity="1"/><line transform="translate(640,0)" x2="0" y2="5" stroke="#888" stroke-width="1" opacity="1"/><line transform="translate(680,0)" x2="0" y2="5" stroke="#888" stroke-width="1" opacity="1"/><line transform="translate(720,0)" x2="0" y2="5" stroke="#888" stroke-width="1" opacity="1"/><line transform="translate(760,0)" x2="0" y2="5" stroke="#888" stroke-width="1" opacity="1"/><line transform="translate(800,0)" x2="0" y2="5" stroke="#888" stroke-width="1" opacity="1"/></g><g class="mark-text role-axis-label" pointer-events="none"><text text-anchor="start" transform="translate(0,15)" font-family="sans-serif" font-size="10px" fill="#000" opacity="1">0</text><text text-anchor="middle" transform="translate(40,15)" font-family="sans-serif" font-size="10px" fill="#000" opacity="1">5</text><text text-anchor="middle" transform="translate(80,15)" font-family="sans-serif" font-size="10px" fill="#000" opacity="1">10</text><text text-anchor="middle" transform="translate(120,15)" font-family="sans-serif" font-size="10px" fill="#000" opacity="1">15</text><text text-anchor="middle" transform="translate(160,15)" font-family="sans-serif" font-size="10px" fill="#000" opacity="1">20</text><text text-anchor="middle" transform="translate(200,15)" font-family="sans-serif" font-size="10px" fill="#000" opacity="1">25</text><text text-anchor="middle" transform="translate(240,15)" font-family="sans-serif" font-size="10px" fill="#000" opacity="1">30</text><text text-anchor="middle" transform="translate(280,15)" font-family="sans-serif" font-size="10px" fill="#000" opacity="1">35</text><text text-anchor="middle" transform="translate(320,15)" font-family="sans-serif" font-size="10px" fill="#000" opacity="1">40</text><text text-anchor="middle" transform="translate(360,15)" font-family="sans-serif" font-size="10px" fill="#000" opacity="1">45</text><text text-anchor="middle" transform="translate(400,15)" font-family="sans-serif" font-size="10px" fill="#000" opacity="1">50</text><text text-anchor="middle" transform="translate(440.00000000000006,15)" font-family="sans-serif" font-size="10px" fill="#000" opacity="1">55</text><text text-anchor="middle" transform="translate(480,15)" font-family="sans-serif" font-size="10px" fill="#000" opacity="1">60</text><text text-anchor="middle" transform="translate(520,15)" font-family="sans-serif" font-size="10px" fill="#000" opacity="1">65</text><text text-anchor="middle" transform="translate(560,15)" font-family="sans-serif" font-size="10px" fill="#000" opacity="1">70</text><text text-anchor="middle" transform="translate(600,15)" font-family="sans-serif" font-size="10px" fill="#000" opacity="1">75</text><text text-anchor="middle" transform="translate(640,15)" font-family="sans-serif" font-size="10px" fill="#000" opacity="1">80</text><text text-anchor="middle" transform="translate(680,15)" font-family="sans-serif" font-size="10px" fill="#000" opacity="1">85</text><text text-anchor="middle" transform="translate(720,15)" font-family="sans-serif" font-size="10px" fill="#000" opacity="1">90</text><text text-anchor="middle" transform="translate(760,15)" font-family="sans-serif" font-size="10px" fill="#000" opacity="1">95</text><text text-anchor="end" transform="translate(800,15)" font-family="sans-serif" font-size="10px" fill="#000" opacity="1">100</text></g><g class="mark-rule role-axis-domain" pointer-events="none"><line transform="translate(0,0)" x2="800" y2="0" stroke="#888" stroke-width="1" opacity="1"/></g><g class="mark-text role-axis-title" pointer-events="none"><text text-anchor="middle" transform="translate(400,30)" font-family="sans-serif" font-size="11px" font-weight="bold" fill="#000" opacity="1">Hour</text></g></g><path class="foreground" aria-hidden="true" d="" pointer-events="none" display="none"/></g></g><g class="mark-group role-axis" role="graphics-symbol" aria-roledescription="axis" aria-label="Y-axis titled 'Amount of Women' for a sqrt scale with values from 0 to 1,800"><g transform="translate(0.5,0.5)"><path class="background" aria-hidden="true" d="M0,0h0v0h0Z" pointer-events="none"/><g><g class="mark-rule role-axis-tick" pointer-events="none"><line transform="translate(0,400)" x2="-5" y2="0" stroke="#888" stroke-width="1" opacity="1"/><line transform="translate(0,267)" x2="-5" y2="0" stroke="#888" stroke-width="1" opacity="1"/><line transform="translate(0,211)" x2="-5" y2="0" stroke="#888" stroke-width="1" opacity="1"/><line transform="translate(0,169)" x2="-5" y2="0" stroke="#888" stroke-width="1" opacity="1"/><line transform="translate(0,133)" x2="-5" y2="0" stroke="#888" stroke-width="1" opacity="1"/><line transform="translate(0,102)" x2="-5" y2="0" stroke="#888" stroke-width="1" opacity="1"/><line transform="translate(0,73)" x2="-5" y2="0" stroke="#888" stroke-width="1" opacity="1"/><line transform="translate(0,47)" x2="-5" y2="0" stroke="#888" stroke-width="1" opacity="1"/><line transform="translate(0,23)" x2="-5" y2="0" stroke="#888" stroke-width="1" opacity="1"/><line transform="translate(0,0)" x2="-5" y2="0" stroke="#888" stroke-width="1" opacity="1"/></g><g class="mark-text role-axis-label" pointer-events="none"><text text-anchor="end" transform="translate(-7,403)" font-family="sans-serif" font-size="10px" fill="#000" opacity="1">0</text><text text-anchor="end" transform="translate(-7,269.6666666666667)" font-family="sans-serif" font-size="10px" fill="#000" opacity="1">200</text><text text-anchor="end" transform="translate(-7,214.43819168358732)" font-family="sans-serif" font-size="10px" fill="#000" opacity="1">400</text><text text-anchor="end" transform="translate(-7,172.0598923241497)" font-family="sans-serif" font-size="10px" fill="#000" opacity="1">600</text><text text-anchor="end" transform="translate(-7,136.33333333333334)" font-family="sans-serif" font-size="10px" fill="#000" opacity="1">800</text><text text-anchor="end" transform="translate(-7,104.85760300002804)" font-family="sans-serif" font-size="10px" fill="#000" opacity="1">1,000</text><text text-anchor="end" transform="translate(-7,76.40136762890958)" font-family="sans-serif" font-size="10px" fill="#000" opacity="1">1,200</text><text text-anchor="end" transform="translate(-7,50.233158524721254)" font-family="sans-serif" font-size="10px" fill="#000" opacity="1">1,400</text><text text-anchor="end" transform="translate(-7,25.876383367174657)" font-family="sans-serif" font-size="10px" fill="#000" opacity="1">1,600</text><text text-anchor="end" transform="translate(-7,3)" font-family="sans-serif" font-size="10px" fill="#000" opacity="1">1,800</text></g><g class="mark-rule role-axis-domain" pointer-events="none"><line transform="translate(0,400)" x2="0" y2="-400" stroke="#888" stroke-width="1" opacity="1"/></g><g class="mark-text role-axis-title" pointer-events="none"><text text-anchor="middle" transform="translate(-36.0244140625,200) rotate(-90) translate(0,-2)" font-family="sans-serif" font-size="11px" font-weight="bold" fill="#000" opacity="1">Amount of Women</text></g></g><path class="foreground" aria-hidden="true" d="" pointer-events="none" display="none"/></g></g><g class="mark-rect role-mark marks" clip-path="url(#clip1)" role="graphics-symbol" aria-roledescription="rect mark container"><path d="M125.5,334.68027352578196h5v23.156024338639668h-5Z" fill="#f58518" opacity="0.5"/><path d="M157.5,238.61708750786397h5v50.22736582191561h-5Z" fill="#f58518" opacity="0.5"/><path d="M317.5,271.0728026279086h5v128.92719737209143h-5Z" fill="#72b7b2" opacity="0.5"/><path d="M237.5,249.44546945818385h5v57.22119720848278h-5Z" fill="#f58518" opacity="0.5"/><path d="M317.5,167.33428844513134h5v103.73851418277724h-5Z" fill="#e45756" opacity="0.5"/><path d="M173.5,368.7305616011771h5v12.413257567181631h-5Z" fill="#f58518" opacity="0.5"/><path d="M317.5,68.67270293895528h5v98.66158550617605h-5Z" fill="#f58518" opacity="0.5"/><path d="M277.5,302.9318681429264h5v61.79144770954571h-5Z" fill="#e45756" opacity="0.5"/><path d="M197.5,268.0067341785111h5v3.0660684493974486h-5Z" fill="#4c78a8" opacity="0.5"/><path d="M197.5,312.56748634264h5v60.76584699069332h-5Z" fill="#e45756" opacity="0.5"/><path d="M317.5,21.58224143151002h5v47.09046150744526h-5Z" fill="#4c78a8" opacity="0.5"/><path d="M477.5,346.6666666666667h5v37.00340171477882h-5Z" fill="#e45756" opacity="0.5"/><path d="M285.5,366.0065365760481h5v33.99346342395188h-5Z" fill="#72b7b2" opacity="0.5"/><path d="M189.5,322.8277539813985h5v30.031793939498357h-5Z" fill="#f58518" opacity="0.5"/><path d="M221.50000000000003,352.85954792089683h5v1.9249188582680858h-5Z" fill="#4c78a8" opacity="0.5"/><path d="M93.5,362.28763833671746h5v28.284271247461902h-5Z" fill="#e45756" opacity="0.5"/><path d="M277.5,244.79404364236242h5v4.946920763175655h-5Z" fill="#4c78a8" opacity="0.5"/><path d="M301.5,345.8397439690936h5v22.890817632083497h-5Z" fill="#e45756" opacity="0.5"/><path d="M269.5,367.34013676289095h5v19.326529903775736h-5Z" fill="#f58518" opacity="0.5"/><path d="M381.5,334.68027352578196h5v10.34498479931591h-5Z" fill="#4c78a8" opacity="0.5"/><path d="M357.5,332.66996707758614h5v34.67016968530481h-5Z" fill="#e45756" opacity="0.5"/><path d="M197.5,271.0728026279086h5v41.49468371473142h-5Z" fill="#f58518" opacity="0.5"/><path d="M117.5,332.66996707758614h5v51.00010130385937h-5Z" fill="#e45756" opacity="0.5"/><path d="M277.5,249.74096440553808h5v53.19090373738834h-5Z" fill="#f58518" opacity="0.5"/><path d="M509.5,383.6700683814455h5v16.329931618554497h-5Z" fill="#72b7b2" opacity="0.5"/><path d="M149.5,371.7157287525381h5v14.950937914128588h-5Z" fill="#f58518" opacity="0.5"/><path d="M157.5,363.4851628329889h5v36.51483716701108h-5Z" fill="#72b7b2" opacity="0.5"/><path d="M125.5,375.055617421507h5v24.94438257849299h-5Z" fill="#72b7b2" opacity="0.5"/><path d="M333.5,358.9039066468735h5v4.581256186115411h-5Z" fill="#f58518" opacity="0.5"/><path d="M365.5,376.905989232415h5v4.237829935943751h-5Z" fill="#4c78a8" opacity="0.5"/><path d="M61.5,356.7950620106143h5v13.390698289388524h-5Z" fill="#f58518" opacity="0.5"/><path d="M253.5,376.905989232415h5v23.09401076758502h-5Z" fill="#72b7b2" opacity="0.5"/><path d="M189.5,352.85954792089683h5v20.473785412436484h-5Z" fill="#e45756" opacity="0.5"/><path d="M165.5,371.7157287525381h5v14.950937914128588h-5Z" fill="#f58518" opacity="0.5"/><path d="M157.5,288.8444533297796h5v74.64070950320934h-5Z" fill="#e45756" opacity="0.5"/><path d="M109.50000000000001,375.055617421507h5v15.516292162672357h-5Z" fill="#f58518" opacity="0.5"/><path d="M253.5,317.26884236006094h5v2.731157639939056h-5Z" fill="#4c78a8" opacity="0.5"/><path d="M357.5,310.55728090000844h5v5.115314828834812h-5Z" fill="#4c78a8" opacity="0.5"/><path d="M117.5,300.6689038283244h5v32.00106324926173h-5Z" fill="#f58518" opacity="0.5"/><path d="M285.5,354.7844667791649h5v11.222069796883204h-5Z" fill="#e45756" opacity="0.5"/><path d="M141.5,356.7950620106143h5v9.211474565433832h-5Z" fill="#f58518" opacity="0.5"/><path d="M237.5,306.66666666666663h5v65.04906208587147h-5Z" fill="#e45756" opacity="0.5"/><path d="M397.5,323.40583137949295h5v42.60070519655517h-5Z" fill="#e45756" opacity="0.5"/><path d="M189.5,373.3333333333333h5v26.666666666666686h-5Z" fill="#72b7b2" opacity="0.5"/><path d="M333.5,352.85954792089683h5v6.044358725976679h-5Z" fill="#4c78a8" opacity="0.5"/><path d="M437.50000000000006,366.0065365760481h5v24.565373008131246h-5Z" fill="#e45756" opacity="0.5"/><path d="M285.5,337.46112320235426h5v17.323343576810657h-5Z" fill="#f58518" opacity="0.5"/><path d="M597.5,376.905989232415h5v13.665920351764385h-5Z" fill="#f58518" opacity="0.5"/><path d="M189.5,320.55749808124676h5v2.27025590015171h-5Z" fill="#4c78a8" opacity="0.5"/><path d="M397.5,302.0204102886729h5v21.385421090820046h-5Z" fill="#f58518" opacity="0.5"/><path d="M357.5,367.34013676289095h5v32.65986323710905h-5Z" fill="#72b7b2" opacity="0.5"/><path d="M301.5,310.55728090000844h5v5.644018500148036h-5Z" fill="#4c78a8" opacity="0.5"/><path d="M333.5,363.4851628329889h5v17.658656335369812h-5Z" fill="#e45756" opacity="0.5"/><path d="M357.5,315.67259572884325h5v16.997371348742888h-5Z" fill="#f58518" opacity="0.5"/><path d="M277.5,364.7233158524721h5v35.276684147527874h-5Z" fill="#72b7b2" opacity="0.5"/><path d="M253.5,320h5v31.010205144336453h-5Z" fill="#f58518" opacity="0.5"/><path d="M293.5,383.6700683814455h5v16.329931618554497h-5Z" fill="#72b7b2" opacity="0.5"/><path d="M477.5,383.6700683814455h5v16.329931618554497h-5Z" fill="#72b7b2" opacity="0.5"/><path d="M293.5,348.3602220505678h5v15.124940782421106h-5Z" fill="#f58518" opacity="0.5"/><path d="M637.5,370.1857603000028h5v13.484308081442691h-5Z" fill="#f58518" opacity="0.5"/><path d="M381.5,345.02525832509787h5v10.753077803496808h-5Z" fill="#f58518" opacity="0.5"/><path d="M517.5,378.9181489322108h5v21.081851067789216h-5Z" fill="#e45756" opacity="0.5"/><path d="M413.5,378.9181489322108h5v11.653760651968582h-5Z" fill="#e45756" opacity="0.5"/><path d="M381.5,355.7783361285947h5v27.89173225285083h-5Z" fill="#e45756" opacity="0.5"/><path d="M301.5,316.2012994001565h5v29.638444568937132h-5Z" fill="#f58518" opacity="0.5"/><path d="M93.5,341.121594224481h5v21.166044112236477h-5Z" fill="#f58518" opacity="0.5"/><path d="M77.5,337.46112320235426h5v21.44278344451925h-5Z" fill="#f58518" opacity="0.5"/><path d="M381.5,383.6700683814455h5v16.329931618554497h-5Z" fill="#72b7b2" opacity="0.5"/><path d="M77.5,375.055617421507h5v24.94438257849299h-5Z" fill="#72b7b2" opacity="0.5"/><path d="M221.50000000000003,354.7844667791649h5v20.271150642342093h-5Z" fill="#f58518" opacity="0.5"/><path d="M293.5,363.4851628329889h5v20.184905548456584h-5Z" fill="#e45756" opacity="0.5"/><path d="M77.5,358.9039066468735h5v16.1517107746335h-5Z" fill="#e45756" opacity="0.5"/><path d="M349.5,371.7157287525381h5v18.856180831641268h-5Z" fill="#e45756" opacity="0.5"/><path d="M437.50000000000006,355.7783361285947h5v4.221663871405326h-5Z" fill="#4c78a8" opacity="0.5"/><path d="M429.5,381.14381916835873h5v18.856180831641268h-5Z" fill="#e45756" opacity="0.5"/><path d="M85.5,386.6666666666667h5v3.9052429175126804h-5Z" fill="#4c78a8" opacity="0.5"/><path d="M237.5,371.7157287525381h5v28.284271247461902h-5Z" fill="#72b7b2" opacity="0.5"/><path d="M413.5,390.57190958417937h5v9.428090415820634h-5Z" fill="#72b7b2" opacity="0.5"/><path d="M253.5,351.01020514433645h5v25.89578408807853h-5Z" fill="#e45756" opacity="0.5"/><path d="M445.50000000000006,373.3333333333333h5v7.810485835025418h-5Z" fill="#4c78a8" opacity="0.5"/><path d="M237.5,244.22238072602772h5v5.223088732156128h-5Z" fill="#4c78a8" opacity="0.5"/><path d="M477.5,332.66996707758614h5v13.99669958908055h-5Z" fill="#f58518" opacity="0.5"/><path d="M221.50000000000003,375.055617421507h5v24.94438257849299h-5Z" fill="#e45756" opacity="0.5"/><path d="M373.5,375.055617421507h5v6.088201746851723h-5Z" fill="#f58518" opacity="0.5"/><path d="M397.5,366.0065365760481h5v33.99346342395188h-5Z" fill="#72b7b2" opacity="0.5"/><path d="M157.5,235.3454795302871h5v3.2716079775768776h-5Z" fill="#4c78a8" opacity="0.5"/><path d="M389.5,386.6666666666667h5v3.9052429175126804h-5Z" fill="#f58518" opacity="0.5"/><path d="M77.5,334.00336708925556h5v3.4577561130986965h-5Z" fill="#4c78a8" opacity="0.5"/><path d="M37.5,381.14381916835873h5v18.856180831641268h-5Z" fill="#e45756" opacity="0.5"/><path d="M197.5,373.3333333333333h5v26.666666666666686h-5Z" fill="#72b7b2" opacity="0.5"/><path d="M165.5,370.1857603000028h5v1.529968452535286h-5Z" fill="#4c78a8" opacity="0.5"/><path d="M117.5,298.8949940793127h5v1.7739097490116933h-5Z" fill="#4c78a8" opacity="0.5"/><path d="M93.5,390.57190958417937h5v9.428090415820634h-5Z" fill="#72b7b2" opacity="0.5"/><path d="M301.5,368.7305616011771h5v31.2694383988229h-5Z" fill="#72b7b2" opacity="0.5"/><path d="M373.5,381.14381916835873h5v9.428090415820634h-5Z" fill="#e45756" opacity="0.5"/><path d="M125.5,357.8362978644216h5v17.219319557085385h-5Z" fill="#e45756" opacity="0.5"/><path d="M413.5,367.34013676289095h5v11.578012169319834h-5Z" fill="#f58518" opacity="0.5"/><path d="M341.5,368.7305616011771h5v14.939506780268403h-5Z" fill="#e45756" opacity="0.5"/><path d="M61.5,370.1857603000028h5v29.814239699997188h-5Z" fill="#e45756" opacity="0.5"/><path d="M261.5,370.1857603000028h5v20.386149284176554h-5Z" fill="#e45756" opacity="0.5"/><path d="M125.5,333.33333333333337h5v1.346940192448585h-5Z" fill="#4c78a8" opacity="0.5"/><path d="M21.5,376.905989232415h5v6.764079149030522h-5Z" fill="#f58518" opacity="0.5"/><path d="M213.5,376.905989232415h5v9.760677434251704h-5Z" fill="#f58518" opacity="0.5"/><path d="M293.5,345.02525832509787h5v3.3349637254699473h-5Z" fill="#4c78a8" opacity="0.5"/><path d="M141.5,366.0065365760481h5v24.565373008131246h-5Z" fill="#e45756" opacity="0.5"/><path d="M181.5,390.57190958417937h5v9.428090415820634h-5Z" fill="#72b7b2" opacity="0.5"/><path d="M69.5,376.905989232415h5v6.764079149030522h-5Z" fill="#f58518" opacity="0.5"/><path d="M29.5,375.055617421507h5v11.611049245159677h-5Z" fill="#f58518" opacity="0.5"/><path d="M181.5,368.7305616011771h5v14.939506780268403h-5Z" fill="#f58518" opacity="0.5"/><path d="M101.5,373.3333333333333h5v10.336735048112189h-5Z" fill="#f58518" opacity="0.5"/><path d="M285.5,334.00336708925556h5v3.4577561130986965h-5Z" fill="#4c78a8" opacity="0.5"/><path d="M557.5,370.1857603000028h5v4.869857121504197h-5Z" fill="#4c78a8" opacity="0.5"/><path d="M205.5,390.57190958417937h5v9.428090415820634h-5Z" fill="#72b7b2" opacity="0.5"/><path d="M365.5,383.6700683814455h5v16.329931618554497h-5Z" fill="#e45756" opacity="0.5"/><path d="M45.5,381.14381916835873h5v18.856180831641268h-5Z" fill="#e45756" opacity="0.5"/><path d="M477.5,330.0794101219899h5v2.5905569555962416h-5Z" fill="#4c78a8" opacity="0.5"/><path d="M397.5,298.01960972814425h5v4.00080056052866h-5Z" fill="#4c78a8" opacity="0.5"/><path d="M341.5,383.6700683814455h5v16.329931618554497h-5Z" fill="#72b7b2" opacity="0.5"/><path d="M637.5,368.7305616011771h5v1.4551986988257113h-5Z" fill="#4c78a8" opacity="0.5"/><path d="M597.5,390.57190958417937h5v9.428090415820634h-5Z" fill="#72b7b2" opacity="0.5"/><path d="M205.5,378.9181489322108h5v11.653760651968582h-5Z" fill="#e45756" opacity="0.5"/><path d="M789.5,373.3333333333333h5v26.666666666666686h-5Z" fill="#f58518" opacity="0.5"/><path d="M573.5,375.055617421507h5v1.8503718109079728h-5Z" fill="#4c78a8" opacity="0.5"/><path d="M325.5,383.6700683814455h5v16.329931618554497h-5Z" fill="#f58518" opacity="0.5"/><path d="M173.5,381.14381916835873h5v18.856180831641268h-5Z" fill="#e45756" opacity="0.5"/><path d="M637.5,390.57190958417937h5v9.428090415820634h-5Z" fill="#72b7b2" opacity="0.5"/><path d="M349.5,362.28763833671746h5v5.052498426173486h-5Z" fill="#4c78a8" opacity="0.5"/><path d="M557.5,375.055617421507h5v8.614450959938495h-5Z" fill="#f58518" opacity="0.5"/><path d="M133.5,375.055617421507h5v6.088201746851723h-5Z" fill="#f58518" opacity="0.5"/><path d="M205.5,371.7157287525381h5v7.202420179672686h-5Z" fill="#f58518" opacity="0.5"/><path d="M373.5,390.57190958417937h5v9.428090415820634h-5Z" fill="#72b7b2" opacity="0.5"/><path d="M525.5,390.57190958417937h5v9.428090415820634h-5Z" fill="#f58518" opacity="0.5"/><path d="M45.5,368.7305616011771h5v12.413257567181631h-5Z" fill="#f58518" opacity="0.5"/><path d="M509.5,378.9181489322108h5v2.2256702361479483h-5Z" fill="#4c78a8" opacity="0.5"/><path d="M437.50000000000006,360h5v6.00653657604812h-5Z" fill="#f58518" opacity="0.5"/><path d="M445.50000000000006,381.14381916835873h5v9.428090415820634h-5Z" fill="#f58518" opacity="0.5"/><path d="M149.5,386.6666666666667h5v13.333333333333314h-5Z" fill="#e45756" opacity="0.5"/><path d="M573.5,383.6700683814455h5v2.9965982852211823h-5Z" fill="#e45756" opacity="0.5"/><path d="M53.50000000000001,376.905989232415h5v13.665920351764385h-5Z" fill="#f58518" opacity="0.5"/><path d="M261.5,366.0065365760481h5v4.179223723954692h-5Z" fill="#f58518" opacity="0.5"/><path d="M717.5,390.57190958417937h5v9.428090415820634h-5Z" fill="#f58518" opacity="0.5"/><path d="M573.5,386.6666666666667h5v13.333333333333314h-5Z" fill="#72b7b2" opacity="0.5"/><path d="M69.5,383.6700683814455h5v6.901841202733863h-5Z" fill="#e45756" opacity="0.5"/><path d="M573.5,376.905989232415h5v6.764079149030522h-5Z" fill="#f58518" opacity="0.5"/><path d="M269.5,363.4851628329889h5v3.8549739299020302h-5Z" fill="#4c78a8" opacity="0.5"/><path d="M165.5,386.6666666666667h5v13.333333333333314h-5Z" fill="#e45756" opacity="0.5"/><path d="M389.5,390.57190958417937h5v9.428090415820634h-5Z" fill="#e45756" opacity="0.5"/><path d="M461.49999999999994,390.57190958417937h5v9.428090415820634h-5Z" fill="#e45756" opacity="0.5"/><path d="M269.5,386.6666666666667h5v13.333333333333314h-5Z" fill="#e45756" opacity="0.5"/><path d="M21.5,383.6700683814455h5v6.901841202733863h-5Z" fill="#e45756" opacity="0.5"/><path d="M341.5,367.34013676289095h5v1.390424838286151h-5Z" fill="#f58518" opacity="0.5"/><path d="M461.49999999999994,386.6666666666667h5v3.9052429175126804h-5Z" fill="#f58518" opacity="0.5"/><path d="M37.5,371.7157287525381h5v9.428090415820634h-5Z" fill="#f58518" opacity="0.5"/><path d="M669.5,386.6666666666667h5v13.333333333333314h-5Z" fill="#e45756" opacity="0.5"/><path d="M29.5,386.6666666666667h5v13.333333333333314h-5Z" fill="#e45756" opacity="0.5"/><path d="M645.5,390.57190958417937h5v9.428090415820634h-5Z" fill="#f58518" opacity="0.5"/><path d="M21.5,390.57190958417937h5v9.428090415820634h-5Z" fill="#72b7b2" opacity="0.5"/><path d="M261.5,390.57190958417937h5v9.428090415820634h-5Z" fill="#72b7b2" opacity="0.5"/><path d="M421.5,386.6666666666667h5v13.333333333333314h-5Z" fill="#f58518" opacity="0.5"/><path d="M349.5,367.34013676289095h5v4.375591989647148h-5Z" fill="#f58518" opacity="0.5"/><path d="M101.5,383.6700683814455h5v16.329931618554497h-5Z" fill="#e45756" opacity="0.5"/><path d="M229.49999999999997,386.6666666666667h5v13.333333333333314h-5Z" fill="#f58518" opacity="0.5"/><path d="M53.50000000000001,375.055617421507h5v1.8503718109079728h-5Z" fill="#4c78a8" opacity="0.5"/><path d="M333.5,381.14381916835873h5v18.856180831641268h-5Z" fill="#72b7b2" opacity="0.5"/><path d="M133.5,381.14381916835873h5v18.856180831641268h-5Z" fill="#e45756" opacity="0.5"/><path d="M517.5,368.7305616011771h5v10.187587331033683h-5Z" fill="#f58518" opacity="0.5"/><path d="M141.5,390.57190958417937h5v9.428090415820634h-5Z" fill="#72b7b2" opacity="0.5"/><path d="M53.50000000000001,390.57190958417937h5v9.428090415820634h-5Z" fill="#72b7b2" opacity="0.5"/><path d="M109.50000000000001,390.57190958417937h5v9.428090415820634h-5Z" fill="#e45756" opacity="0.5"/><path d="M413.5,363.4851628329889h5v3.8549739299020302h-5Z" fill="#4c78a8" opacity="0.5"/><path d="M213.5,386.6666666666667h5v13.333333333333314h-5Z" fill="#e45756" opacity="0.5"/><path d="M349.5,390.57190958417937h5v9.428090415820634h-5Z" fill="#72b7b2" opacity="0.5"/><path d="M133.5,373.3333333333333h5v1.7222840881736943h-5Z" fill="#4c78a8" opacity="0.5"/><path d="M309.5,383.6700683814455h5v2.9965982852211823h-5Z" fill="#4c78a8" opacity="0.5"/><path d="M181.5,383.6700683814455h5v6.901841202733863h-5Z" fill="#e45756" opacity="0.5"/><path d="M669.5,383.6700683814455h5v2.9965982852211823h-5Z" fill="#f58518" opacity="0.5"/><path d="M437.50000000000006,390.57190958417937h5v9.428090415820634h-5Z" fill="#72b7b2" opacity="0.5"/><path d="M117.5,383.6700683814455h5v16.329931618554497h-5Z" fill="#72b7b2" opacity="0.5"/><path d="M309.5,386.6666666666667h5v3.9052429175126804h-5Z" fill="#f58518" opacity="0.5"/><path d="M557.5,383.6700683814455h5v16.329931618554497h-5Z" fill="#e45756" opacity="0.5"/><path d="M61.5,354.7844667791649h5v2.010595231449372h-5Z" fill="#4c78a8" opacity="0.5"/><path d="M5.5,390.57190958417937h5v9.428090415820634h-5Z" fill="#f58518" opacity="0.5"/><path d="M637.5,383.6700683814455h5v6.901841202733863h-5Z" fill="#e45756" opacity="0.5"/><path d="M365.5,381.14381916835873h5v2.5262492130867713h-5Z" fill="#f58518" opacity="0.5"/><path d="M245.5,386.6666666666667h5v13.333333333333314h-5Z" fill="#f58518" opacity="0.5"/><path d="M85.5,390.57190958417937h5v9.428090415820634h-5Z" fill="#f58518" opacity="0.5"/><path d="M13.5,390.57190958417937h5v9.428090415820634h-5Z" fill="#f58518" opacity="0.5"/><path d="M309.5,390.57190958417937h5v9.428090415820634h-5Z" fill="#e45756" opacity="0.5"/><path d="M69.5,390.57190958417937h5v9.428090415820634h-5Z" fill="#72b7b2" opacity="0.5"/><path d="M445.50000000000006,390.57190958417937h5v9.428090415820634h-5Z" fill="#e45756" opacity="0.5"/><path d="M509.5,381.14381916835873h5v2.5262492130867713h-5Z" fill="#f58518" opacity="0.5"/></g><g class="mark-group role-legend" role="graphics-symbol" aria-roledescription="legend" aria-label="Symbol legend titled 'occupation' for fill color with 4 values:  Machine-op-inspct,  Other-service,  Sales,  Tech-support"><g transform="translate(818,0)"><path class="background" aria-hidden="true" d="M0,0h98v66h-98Z" pointer-events="none"/><g><g class="mark-group role-legend-entry"><g transform="translate(0,16)"><path class="background" aria-hidden="true" d="M0,0h0v0h0Z" pointer-events="none"/><g><g class="mark-group role-scope" role="graphics-object" aria-roledescription="group mark container"><g transform="translate(0,0)"><path class="background" aria-hidden="true" d="M0,0h97.7041015625v11h-97.7041015625Z" pointer-events="none" opacity="1"/><g><g class="mark-symbol role-legend-symbol" pointer-events="none"><path transform="translate(6,6)" d="M-5,-5h10v10h-10Z" fill="#4c78a8" stroke-width="1.5" opacity="0.5"/></g><g class="mark-text role-legend-label" pointer-events="none"><text text-anchor="start" transform="translate(16,9)" font-family="sans-serif" font-size="10px" fill="#000" opacity="1">Machine-op-inspct</text></g></g><path class="foreground" aria-hidden="true" d="" pointer-events="none" display="none"/></g><g transform="translate(0,13)"><path class="background" aria-hidden="true" d="M0,0h97.7041015625v11h-97.7041015625Z" pointer-events="none" opacity="1"/><g><g class="mark-symbol role-legend-symbol" pointer-events="none"><path transform="translate(6,6)" d="M-5,-5h10v10h-10Z" fill="#f58518" stroke-width="1.5" opacity="0.5"/></g><g class="mark-text role-legend-label" pointer-events="none"><text text-anchor="start" transform="translate(16,9)" font-family="sans-serif" font-size="10px" fill="#000" opacity="1">Other-service</text></g></g><path class="foreground" aria-hidden="true" d="" pointer-events="none" display="none"/></g><g transform="translate(0,26)"><path class="background" aria-hidden="true" d="M0,0h97.7041015625v11h-97.7041015625Z" pointer-events="none" opacity="1"/><g><g class="mark-symbol role-legend-symbol" pointer-events="none"><path transform="translate(6,6)" d="M-5,-5h10v10h-10Z" fill="#e45756" stroke-width="1.5" opacity="0.5"/></g><g class="mark-text role-legend-label" pointer-events="none"><text text-anchor="start" transform="translate(16,9)" font-family="sans-serif" font-size="10px" fill="#000" opacity="1">Sales</text></g></g><path class="foreground" aria-hidden="true" d="" pointer-events="none" display="none"/></g><g transform="translate(0,39)"><path class="background" aria-hidden="true" d="M0,0h97.7041015625v11h-97.7041015625Z" pointer-events="none" opacity="1"/><g><g class="mark-symbol role-legend-symbol" pointer-events="none"><path transform="translate(6,6)" d="M-5,-5h10v10h-10Z" fill="#72b7b2" stroke-width="1.5" opacity="0.5"/></g><g class="mark-text role-legend-label" pointer-events="none"><text text-anchor="start" transform="translate(16,9)" font-family="sans-serif" font-size="10px" fill="#000" opacity="1">Tech-support</text></g></g><path class="foreground" aria-hidden="true" d="" pointer-events="none" display="none"/></g></g></g><path class="foreground" aria-hidden="true" d="" pointer-events="none" display="none"/></g></g><g class="mark-text role-legend-title" pointer-events="none"><text text-anchor="start" transform="translate(0,9)" font-family="sans-serif" font-size="11px" font-weight="bold" fill="#000" opacity="1">occupation</text></g></g><path class="foreground" aria-hidden="true" d="" pointer-events="none" display="none"/></g></g><g class="mark-group role-title"><g transform="translate(400,-22)"><path class="background" aria-hidden="true" d="M0,0h0v0h0Z" pointer-events="none"/><g><g class="mark-text role-title-text" role="graphics-symbol" aria-roledescription="title" aria-label="Title text 'Jobs vs. Working Hours'" pointer-events="none"><text text-anchor="middle" transform="translate(0,10)" font-family="sans-serif" font-size="13px" font-weight="bold" fill="#000" opacity="1">Jobs vs. Working Hours</text></g></g><path class="foreground" aria-hidden="true" d="" pointer-events="none" display="none"/></g></g></g><path class="foreground" aria-hidden="true" d="" display="none"/></g></g></g><defs><clipPath id="clip1"><rect x="0" y="0" width="800" height="400"/></clipPath></defs></svg>