<svg xmlns="http://www.w3.org/2000/svg" xmlns:xlink="http://www.w3.org/1999/xlink" version="1.1" class="marks" width="974" height="464" viewBox="0 0 974 464"><rect width="974" height="464" fill="white"/><g fill="none" stroke-miterlimit="10" transform="translate(53,27)"><g class="mark-group role-frame root" role="graphics-object" aria-roledescription="group mark container"><g transform="translate(0,0)"><path class="background" aria-hidden="true" d="M0.5,0.5h800v400h-800Z" stroke="#ddd"/><g><g class="mark-group role-axis" role="graphics-symbol" aria-roledescription="axis" aria-label="X-axis for a linear scale with values from 7 to 95"><g transform="translate(0.5,400.5)"><path class="background" aria-hidden="true" d="M0,0h0v0h0Z" pointer-events="none"/><g><g class="mark-rule role-axis-grid" pointer-events="none"><line transform="translate(30,-400)" x2="0" y2="400" stroke="#ddd" stroke-width="1" opacity="1"/><line transform="translate(75,-400)" x2="0" y2="400" stroke="#ddd" stroke-width="1" opacity="1"/><line transform="translate(120,-400)" x2="0" y2="400" stroke="#ddd" stroke-width="1" opacity="1"/><line transform="translate(166,-400)" x2="0" y2="400" stroke="#ddd" stroke-width="1" opacity="1"/><line transform="translate(211,-400)" x2="0" y2="400" stroke="#ddd" stroke-width="1" opacity="1"/><line transform="translate(256,-400)" x2="0" y2="400" stroke="#ddd" stroke-width="1" opacity="1"/><line transform="translate(302,-400)" x2="0" y2="400" stroke="#ddd" stroke-width="1" opacity="1"/><line transform="translate(347,-400)" x2="0" y2="400" stroke="#ddd" stroke-width="1" opacity="1"/><line transform="translate(392,-400)" x2="0" y2="400" stroke="#ddd" stroke-width="1" opacity="1"/><line transform="translate(438,-400)" x2="0" y2="400" stroke="#ddd" stroke-width="1" opacity="1"/><line transform="translate(483,-400)" x2="0" y2="400" stroke="#ddd" stroke-width="1" opacity="1"/><line transform="translate(528,-400)" x2="0" y2="400" stroke="#ddd" stroke-width="1" opacity="1"/><line transform="translate(573,-400)" x2="0" y2="400" stroke="#ddd" stroke-width="1" opacity="1"/><line transform="translate(619,-400)" x2="0" y2="400" stroke="#ddd" stroke-width="1" opacity="1"/><line transform="translate(664,-400)" x2="0" y2="400" stroke="#ddd" stroke-width="1" opacity="1"/><line transform="translate(709,-400)" x2="0" y2="400" stroke="#ddd" stroke-width="1" opacity="1"/><line transform="translate(755,-400)" x2="0" y2="400" stroke="#ddd" stroke-width="1" opacity="1"/></g></g><path class="foreground" aria-hidden="true" d="" pointer-events="none" display="none"/></g></g><g class="mark-group role-axis" role="graphics-symbol" aria-roledescription="axis" aria-label="Y-axis for a sqrt scale with values from 0 to 5,000"><g transform="translate(0.5,0.5)"><path class="background" aria-hidden="true" d="M0,0h0v0h0Z" pointer-events="none"/><g><g class="mark-rule role-axis-grid" pointer-events="none"><line transform="translate(0,400)" x2="800" y2="0" stroke="#ddd" stroke-width="1" opacity="1"/><line transform="translate(0,274)" x2="800" y2="0" stroke="#ddd" stroke-width="1" opacity="1"/><line transform="translate(0,221)" x2="800" y2="0" stroke="#ddd" stroke-width="1" opacity="1"/><line transform="translate(0,181)" x2="800" y2="0" stroke="#ddd" stroke-width="1" opacity="1"/><line transform="translate(0,147)" x2="800" y2="0" stroke="#ddd" stroke-width="1" opacity="1"/><line transform="translate(0,117)" x2="800" y2="0" stroke="#ddd" stroke-width="1" opacity="1"/><line transform="translate(0,90)" x2="800" y2="0" stroke="#ddd" stroke-width="1" opacity="1"/><line transform="translate(0,65)" x2="800" y2="0" stroke="#ddd" stroke-width="1" opacity="1"/><line transform="translate(0,42)" x2="800" y2="0" stroke="#ddd" stroke-width="1" opacity="1"/><line transform="translate(0,21)" x2="800" y2="0" stroke="#ddd" stroke-width="1" opacity="1"/><line transform="translate(0,0)" x2="800" y2="0" stroke="#ddd" stroke-width="1" opacity="1"/></g></g><path class="foreground" aria-hidden="true" d="" pointer-events="none" display="none"/></g></g><g class="mark-group role-axis" role="graphics-symbol" aria-roledescription="axis" aria-label="X-axis titled 'Hour' for a linear scale with values from 7 to 95"><g transform="translate(0.5,400.5)"><path class="background" aria-hidden="true" d="M0,0h0v0h0Z" pointer-events="none"/><g><g class="mark-rule role-axis-tick" pointer-events="none"><line transform="translate(30,0)" x2="0" y2="5" stroke="#888" stroke-width="1" opacity="1"/><line transform="translate(75,0)" x2="0" y2="5" stroke="#888" stroke-width="1" opacity="1"/><line transform="translate(120,0)" x2="0" y2="5" stroke="#888" stroke-width="1" opacity="1"/><line transform="translate(166,0)" x2="0" y2="5" stroke="#888" stroke-width="1" opacity="1"/><line transform="translate(211,0)" x2="0" y2="5" stroke="#888" stroke-width="1" opacity="1"/><line transform="translate(256,0)" x2="0" y2="5" stroke="#888" stroke-width="1" opacity="1"/><line transform="translate(302,0)" x2="0" y2="5" stroke="#888" stroke-width="1" opacity="1"/><line transform="translate(347,0)" x2="0" y2="5" stroke="#888" stroke-width="1" opacity="1"/><line transform="translate(392,0)" x2="0" y2="5" stroke="#888" stroke-width="1" opacity="1"/><line transform="translate(438,0)" x2="0" y2="5" stroke="#888" stroke-width="1" opacity="1"/><line transform="translate(483,0)" x2="0" y2="5" stroke="#888" stroke-width="1" opacity="1"/><line transform="translate(528,0)" x2="0" y2="5" stroke="#888" stroke-width="1" opacity="1"/><line transform="translate(573,0)" x2="0" y2="5" stroke="#888" stroke-width="1" opacity="1"/><line transform="translate(619,0)" x2="0" y2="5" stroke="#888" stroke-width="1" opacity="1"/><line transform="translate(664,0)" x2="0" y2="5" stroke="#888" stroke-width="1" opacity="1"/><line transform="translate(709,0)" x2="0" y2="5" stroke="#888" stroke-width="1" opacity="1"/><line transform="translate(755,0)" x2="0" y2="5" stroke="#888" stroke-width="1" opacity="1"/></g><g class="mark-text role-axis-label" pointer-events="none"><text text-anchor="middle" transform="translate(29.59626471711686,15)" font-family="sans-serif" font-size="10px" fill="#000" opacity="1">10</text><text text-anchor="middle" transform="translate(74.91937194422955,15)" font-family="sans-serif" font-size="10px" fill="#000" opacity="1">15</text><text text-anchor="middle" transform="translate(120.24247917134225,15)" font-family="sans-serif" font-size="10px" fill="#000" opacity="1">20</text><text text-anchor="middle" transform="translate(165.56558639845494,15)" font-family="sans-serif" font-size="10px" fill="#000" opacity="1">25</text><text text-anchor="middle" transform="translate(210.8886936255676,15)" font-family="sans-serif" font-size="10px" fill="#000" opacity="1">30</text><text text-anchor="middle" transform="translate(256.2118008526803,15)" font-family="sans-serif" font-size="10px" fill="#000" opacity="1">35</text><text text-anchor="middle" transform="translate(301.534908079793,15)" font-family="sans-serif" font-size="10px" fill="#000" opacity="1">40</text><text text-anchor="middle" transform="translate(346.85801530690566,15)" font-family="sans-serif" font-size="10px" fill="#000" opacity="1">45</text><text text-anchor="middle" transform="translate(392.18112253401836,15)" font-family="sans-serif" font-size="10px" fill="#000" opacity="1">50</text><text text-anchor="middle" transform="translate(437.50422976113106,15)" font-family="sans-serif" font-size="10px" fill="#000" opacity="1">55</text><text text-anchor="middle" transform="translate(482.82733698824376,15)" font-family="sans-serif" font-size="10px" fill="#000" opacity="1">60</text><text text-anchor="middle" transform="translate(528.1504442153564,15)" font-family="sans-serif" font-size="10px" fill="#000" opacity="1">65</text><text text-anchor="middle" transform="translate(573.4735514424692,15)" font-family="sans-serif" font-size="10px" fill="#000" opacity="1">70</text><text text-anchor="middle" transform="translate(618.7966586695818,15)" font-family="sans-serif" font-size="10px" fill="#000" opacity="1">75</text><text text-anchor="middle" transform="translate(664.1197658966945,15)" font-family="sans-serif" font-size="10px" fill="#000" opacity="1">80</text><text text-anchor="middle" transform="translate(709.4428731238072,15)" font-family="sans-serif" font-size="10px" fill="#000" opacity="1">85</text><text text-anchor="middle" transform="translate(754.7659803509199,15)" font-family="sans-serif" font-size="10px" fill="#000" opacity="1">90</text></g><g class="mark-rule role-axis-domain" pointer-events="none"><line transform="translate(0,0)" x2="800" y2="0" stroke="#888" stroke-width="1" opacity="1"/></g><g class="mark-text role-axis-title" pointer-events="none"><text text-anchor="middle" transform="translate(400,30)" font-family="sans-serif" font-size="11px" font-weight="bold" fill="#000" opacity="1">Hour</text></g></g><path class="foreground" aria-hidden="true" d="" pointer-events="none" display="none"/></g></g><g class="mark-group role-axis" role="graphics-symbol" aria-roledescription="axis" aria-label="Y-axis titled 'Amount of Woman' for a sqrt scale with values from 0 to 5,000"><g transform="translate(0.5,0.5)"><path class="background" aria-hidden="true" d="M0,0h0v0h0Z" pointer-events="none"/><g><g class="mark-rule role-axis-tick" pointer-events="none"><line transform="translate(0,400)" x2="-5" y2="0" stroke="#888" stroke-width="1" opacity="1"/><line transform="translate(0,274)" x2="-5" y2="0" stroke="#888" stroke-width="1" opacity="1"/><line transform="translate(0,221)" x2="-5" y2="0" stroke="#888" stroke-width="1" opacity="1"/><line transform="translate(0,181)" x2="-5" y2="0" stroke="#888" stroke-width="1" opacity="1"/><line transform="translate(0,147)" x2="-5" y2="0" stroke="#888" stroke-width="1" opacity="1"/><line transform="translate(0,117)" x2="-5" y2="0" stroke="#888" stroke-width="1" opacity="1"/><line transform="translate(0,90)" x2="-5" y2="0" stroke="#888" stroke-width="1" opacity="1"/><line transform="translate(0,65)" x2="-5" y2="0" stroke="#888" stroke-width="1" opacity="1"/><line transform="translate(0,42)" x2="-5" y2="0" stroke="#888" stroke-width="1" opacity="1"/><line transform="translate(0,21)" x2="-5" y2="0" stroke="#888" stroke-width="1" opacity="1"/><line transform="translate(0,0)" x2="-5" y2="0" stroke="#888" stroke-width="1" opacity="1"/></g><g class="mark-text role-axis-label" pointer-events="none"><text text-anchor="end" transform="translate(-7,403)" font-family="sans-serif" font-size="10px" fill="#000" opacity="1">0</text><text text-anchor="end" transform="translate(-7,276.5088935932648)" font-family="sans-serif" font-size="10px" fill="#000" opacity="1">500</text><text text-anchor="end" transform="translate(-7,224.11456180001684)" font-family="sans-serif" font-size="10px" fill="#000" opacity="1">1,000</text><text text-anchor="end" transform="translate(-7,183.91097699793357)" font-family="sans-serif" font-size="10px" fill="#000" opacity="1">1,500</text><text text-anchor="end" transform="translate(-7,150.01778718652966)" font-family="sans-serif" font-size="10px" fill="#000" opacity="1">2,000</text><text text-anchor="end" transform="translate(-7,120.15728752538101)" font-family="sans-serif" font-size="10px" fill="#000" opacity="1">2,500</text><text text-anchor="end" transform="translate(-7,93.16133230340664)" font-family="sans-serif" font-size="10px" fill="#000" opacity="1">3,000</text><text text-anchor="end" transform="translate(-7,68.33598938636982)" font-family="sans-serif" font-size="10px" fill="#000" opacity="1">3,500</text><text text-anchor="end" transform="translate(-7,45.22912360003366)" font-family="sans-serif" font-size="10px" fill="#000" opacity="1">4,000</text><text text-anchor="end" transform="translate(-7,23.52668077979454)" font-family="sans-serif" font-size="10px" fill="#000" opacity="1">4,500</text><text text-anchor="end" transform="translate(-7,3)" font-family="sans-serif" font-size="10px" fill="#000" opacity="1">5,000</text></g><g class="mark-rule role-axis-domain" pointer-events="none"><line transform="translate(0,400)" x2="0" y2="-400" stroke="#888" stroke-width="1" opacity="1"/></g><g class="mark-text role-axis-title" pointer-events="none"><text text-anchor="middle" transform="translate(-36.0244140625,200) rotate(-90) translate(0,-2)" font-family="sans-serif" font-size="11px" font-weight="bold" fill="#000" opacity="1">Amount of Woman</text></g></g><path class="foreground" aria-hidden="true" d="" pointer-events="none" display="none"/></g></g><g class="mark-rect role-mark marks" clip-path="url(#clip1)" role="graphics-symbol" aria-roledescription="rect mark container"><path d="M299.034908079793,190.69639276878192h5v59.21030291686833h-5Z" fill="#bab0ac" opacity="0.5"/><path d="M299.034908079793,85.34463297124582h5v30.458252335448407h-5Z" fill="#72b7b2" opacity="0.5"/><path d="M81.48399338965208,353.3523848412376h5v10.870527518765755h-5Z" fill="#ff9da6" opacity="0.5"/><path d="M389.68112253401836,321.412469182446h5v31.598170319671112h-5Z" fill="#bab0ac" opacity="0.5"/><path d="M208.3886936255676,277.1016680341023h5v11.614910019949207h-5Z" fill="#f58518" opacity="0.5"/><path d="M344.35801530690566,302.6757995152285h5v17.324200484771495h-5Z" fill="#72b7b2" opacity="0.5"/><path d="M117.74247917134225,291.1882359301165h5v25.673325306577397h-5Z" fill="#ff9da6" opacity="0.5"/><path d="M299.034908079793,314.20955764189114h5v48.69596837612602h-5Z" fill="#e45756" opacity="0.5"/><path d="M163.06558639845494,299.9200319744256h5v10.102192991958475h-5Z" fill="#f58518" opacity="0.5"/><path d="M299.034908079793,15.250730994846418h5v63.80067499047341h-5Z" fill="#f58518" opacity="0.5"/><path d="M208.3886936255676,299.60079681591094h5v29.29364784556435h-5Z" fill="#ff9da6" opacity="0.5"/><path d="M480.32733698824376,344.57437415779594h5v21.484500345249785h-5Z" fill="#bab0ac" opacity="0.5"/><path d="M299.034908079793,255.5562393178577h5v58.65331832403345h-5Z" fill="#f58518" opacity="0.5"/><path d="M135.87172206218733,378.09109769979335h5v5.908902300206648h-5Z" fill="#ff9da6" opacity="0.5"/><path d="M299.034908079793,144.56311934256635h5v42.796338897401455h-5Z" fill="#ff9da6" opacity="0.5"/><path d="M299.034908079793,79.05140598531983h5v6.293226985925983h-5Z" fill="#e45756" opacity="0.5"/><path d="M253.7118008526803,340.40134229699464h5v34.94100169112943h-5Z" fill="#f58518" opacity="0.5"/><path d="M163.06558639845494,314.95883349812283h5v1.710499877878533h-5Z" fill="#b279a2" opacity="0.5"/><path d="M226.5179365164127,328.2225662202946h5v3.8951827857968624h-5Z" fill="#4c78a8" opacity="0.5"/><path d="M163.06558639845494,346.3343685400051h5v34.0697135177295h-5Z" fill="#f58518" opacity="0.5"/><path d="M299.034908079793,122.00719433769515h5v22.5559250048712h-5Z" fill="#b279a2" opacity="0.5"/><path d="M190.25945073472255,362.05266807797943h5v3.076140373695182h-5Z" fill="#f58518" opacity="0.5"/><path d="M480.32733698824376,367.5038463814562h5v21.182445119559077h-5Z" fill="#f58518" opacity="0.5"/><path d="M262.7764222981029,379.6039219456289h5v20.396078054371117h-5Z" fill="#e45756" opacity="0.5"/><path d="M253.7118008526803,261.66706827367534h5v21.02990533740325h-5Z" fill="#f58518" opacity="0.5"/><path d="M208.3886936255676,387.3508893593265h5v12.649110640673484h-5Z" fill="#72b7b2" opacity="0.5"/><path d="M154.0009649530324,346.93400335431363h5v14.699344459184601h-5Z" fill="#ff9da6" opacity="0.5"/><path d="M299.034908079793,3.132263846001182h5v12.118467148845236h-5Z" fill="#4c78a8" opacity="0.5"/><path d="M280.9056651889479,308.08699765539154h5v20.358827064615184h-5Z" fill="#f58518" opacity="0.5"/><path d="M117.74247917134225,256.44513244058913h5v10.528554372883775h-5Z" fill="#4c78a8" opacity="0.5"/><path d="M117.74247917134225,318.4156877825155h5v12.998599419555546h-5Z" fill="#bab0ac" opacity="0.5"/><path d="M389.68112253401836,278.0163945441847h5v1.7172344288320005h-5Z" fill="#4c78a8" opacity="0.5"/><path d="M190.25945073472255,369.0161332303407h5v1.0506076754677451h-5Z" fill="#b279a2" opacity="0.5"/><path d="M435.00422976113106,347.540491805584h5v11.667352085673713h-5Z" fill="#72b7b2" opacity="0.5"/><path d="M45.22550760796194,377.37258300203047h5v16.970562748477164h-5Z" fill="#f58518" opacity="0.5"/><path d="M253.7118008526803,292.6687370800101h5v2.5648560903195516h-5Z" fill="#b279a2" opacity="0.5"/><path d="M27.09626471711686,335.5019380136116h5v5.983106633077227h-5Z" fill="#4c78a8" opacity="0.5"/><path d="M117.74247917134225,266.9736868134729h5v17.926356627021846h-5Z" fill="#f58518" opacity="0.5"/><path d="M280.9056651889479,366.05887450304573h5v12.775115008437524h-5Z" fill="#f58518" opacity="0.5"/><path d="M244.64717940725777,380.40408205773457h5v11.59591794226543h-5Z" fill="#ff9da6" opacity="0.5"/><path d="M344.35801530690566,331.181397863659h5v27.636081572392982h-5Z" fill="#bab0ac" opacity="0.5"/><path d="M371.5518796431733,354.3929829960345h5v5.2089972505172h-5Z" fill="#b279a2" opacity="0.5"/><path d="M72.41937194422955,350.6846879762482h5v8.132791459803798h-5Z" fill="#bab0ac" opacity="0.5"/><path d="M344.35801530690566,358.817479436052h5v20.016510075431256h-5Z" fill="#f58518" opacity="0.5"/><path d="M317.16415097063805,374.0770372063686h5v4.014060493424779h-5Z" fill="#bab0ac" opacity="0.5"/><path d="M163.06558639845494,316.66933337600136h5v22.40448177708737h-5Z" fill="#ff9da6" opacity="0.5"/><path d="M235.58255796183525,378.83398951148325h5v3.277466668518457h-5Z" fill="#bab0ac" opacity="0.5"/><path d="M163.06558639845494,291.77800593225055h5v8.142026042175075h-5Z" fill="#4c78a8" opacity="0.5"/><path d="M72.41937194422955,313.0977560703983h5v5.514284132098453h-5Z" fill="#4c78a8" opacity="0.5"/><path d="M299.034908079793,249.90669568565025h5v5.64954363220744h-5Z" fill="#4c78a8" opacity="0.5"/><path d="M72.41937194422955,358.817479436052h5v28.53340992327452h-5Z" fill="#f58518" opacity="0.5"/><path d="M72.41937194422955,318.61204020249676h5v9.387959797503242h-5Z" fill="#f58518" opacity="0.5"/><path d="M27.09626471711686,341.48504464668883h5v7.2899614538483775h-5Z" fill="#f58518" opacity="0.5"/><path d="M344.35801530690566,300.0800320256256h5v2.595767489602906h-5Z" fill="#e45756" opacity="0.5"/><path d="M299.034908079793,362.90552601801716h5v37.094473981982844h-5Z" fill="#72b7b2" opacity="0.5"/><path d="M-9.162221064573291,372.87068006749894h5v2.471663920625133h-5Z" fill="#f58518" opacity="0.5"/><path d="M81.48399338965208,342.8685725716572h5v7.171443441155645h-5Z" fill="#f58518" opacity="0.5"/><path d="M253.7118008526803,295.23359317032964h5v25.772736197144354h-5Z" fill="#ff9da6" opacity="0.5"/><path d="M299.034908079793,117.15728752538101h5v4.8499068123141456h-5Z" fill="#eeca3b" opacity="0.5"/><path d="M253.7118008526803,255.11383778980132h5v6.553230483874017h-5Z" fill="#4c78a8" opacity="0.5"/><path d="M516.5858227699339,390.2020410288673h5v9.797958971132687h-5Z" fill="#e45756" opacity="0.5"/><path d="M108.67785772591971,383.0294372515229h5v8.970562748477107h-5Z" fill="#ff9da6" opacity="0.5"/><path d="M253.7118008526803,282.6969736110786h5v1.6483680305137227h-5Z" fill="#e45756" opacity="0.5"/><path d="M-18.22684250999583,368h5v5.467001677156816h-5Z" fill="#4c78a8" opacity="0.5"/><path d="M117.74247917134225,374.701778718653h5v12.649110640673541h-5Z" fill="#e45756" opacity="0.5"/><path d="M480.32733698824376,320.20025062696h5v5.826781337412285h-5Z" fill="#f58518" opacity="0.5"/><path d="M81.48399338965208,384h5v10.343145750507631h-5Z" fill="#e45756" opacity="0.5"/><path d="M480.32733698824376,327.1165313668456h5v9.38543716760421h-5Z" fill="#72b7b2" opacity="0.5"/><path d="M163.06558639845494,340.13348181161695h5v5.903567935454873h-5Z" fill="#bab0ac" opacity="0.5"/><path d="M262.7764222981029,337.2624514345675h5v4.772041580674795h-5Z" fill="#f58518" opacity="0.5"/><path d="M253.7118008526803,322.23111161910566h5v17.902370192511285h-5Z" fill="#bab0ac" opacity="0.5"/><path d="M317.16415097063805,371.7157287525381h5v2.3613084538304747h-5Z" fill="#ff9da6" opacity="0.5"/><path d="M208.3886936255676,269.76943523120235h5v7.332232802899966h-5Z" fill="#4c78a8" opacity="0.5"/><path d="M280.9056651889479,306.362400714243h5v1.7245969411485476h-5Z" fill="#4c78a8" opacity="0.5"/><path d="M18.03164327169432,383.0294372515229h5v0.9705627484771071h-5Z" fill="#f58518" opacity="0.5"/><path d="M353.42263675232823,380.40408205773457h5v1.7073741222671401h-5Z" fill="#b279a2" opacity="0.5"/><path d="M389.68112253401836,289.5826100652619h5v19.028112664371235h-5Z" fill="#72b7b2" opacity="0.5"/><path d="M208.3886936255676,328.8944446614753h5v3.459417237373657h-5Z" fill="#9d755d" opacity="0.5"/><path d="M344.35801530690566,320h5v1.0063293674739953h-5Z" fill="#54a24b" opacity="0.5"/><path d="M344.35801530690566,321.006329367474h5v0.4061398149719935h-5Z" fill="#eeca3b" opacity="0.5"/><path d="M8.967021826271786,366.05887450304573h5v5.656854249492369h-5Z" fill="#ff9da6" opacity="0.5"/><path d="M226.5179365164127,386.143593539449h5v13.856406460551h-5Z" fill="#e45756" opacity="0.5"/><path d="M570.9735514424692,376.6761924206188h5v12.010099080396458h-5Z" fill="#bab0ac" opacity="0.5"/><path d="M154.0009649530324,371.15558979628804h5v11.873847455234852h-5Z" fill="#f58518" opacity="0.5"/><path d="M271.84104374352535,347.2363761669083h5v9.682305376015677h-5Z" fill="#f58518" opacity="0.5"/><path d="M126.80710061676479,378.09109769979335h5v5.908902300206648h-5Z" fill="#ff9da6" opacity="0.5"/><path d="M117.74247917134225,332.11774900609146h5v42.58402971256152h-5Z" fill="#f58518" opacity="0.5"/><path d="M154.0009649530324,361.63334781349823h5v2.5895645465051302h-5Z" fill="#9d755d" opacity="0.5"/><path d="M63.35475049880701,384h5v8h-5Z" fill="#ff9da6" opacity="0.5"/><path d="M226.5179365164127,340.9407077590664h5v1.3704718335097823h-5Z" fill="#b279a2" opacity="0.5"/><path d="M-18.22684250999583,373.4670016771568h5v4.624096022636536h-5Z" fill="#f58518" opacity="0.5"/><path d="M435.00422976113106,363.3393944403533h5v15.494595071129936h-5Z" fill="#bab0ac" opacity="0.5"/><path d="M344.35801530690566,321.412469182446h5v2.0630249387180584h-5Z" fill="#b279a2" opacity="0.5"/><path d="M525.6504442153564,379.6039219456289h5v7.746967413697632h-5Z" fill="#bab0ac" opacity="0.5"/><path d="M72.41937194422955,332.5908018145891h5v16.184204285948113h-5Z" fill="#ff9da6" opacity="0.5"/><path d="M262.7764222981029,372.87068006749894h5v6.733241878129945h-5Z" fill="#f58518" opacity="0.5"/><path d="M99.61323628049718,371.15558979628804h5v4.844410203711959h-5Z" fill="#ff9da6" opacity="0.5"/><path d="M208.3886936255676,342.5891996223707h5v36.24478988911255h-5Z" fill="#f58518" opacity="0.5"/><path d="M389.68112253401836,353.6966523888391h5v25.13733712264417h-5Z" fill="#f58518" opacity="0.5"/><path d="M280.9056651889479,335.75048638316395h5v0.500003814799129h-5Z" fill="#54a24b" opacity="0.5"/><path d="M154.0009649530324,383.0294372515229h5v11.313708498984738h-5Z" fill="#e45756" opacity="0.5"/><path d="M317.16415097063805,368.50396850395276h5v3.2117602485853354h-5Z" fill="#b279a2" opacity="0.5"/><path d="M435.00422976113106,378.83398951148325h5v13.166010488516747h-5Z" fill="#f58518" opacity="0.5"/><path d="M262.7764222981029,348.1540744127371h5v6.946036945975607h-5Z" fill="#ff9da6" opacity="0.5"/><path d="M616.2966586695818,383.0294372515229h5v5.656854249492369h-5Z" fill="#ff9da6" opacity="0.5"/><path d="M353.42263675232823,383.0294372515229h5v5.656854249492369h-5Z" fill="#bab0ac" opacity="0.5"/><path d="M154.0009649530324,345.7413601349979h5v1.1926432193157552h-5Z" fill="#b279a2" opacity="0.5"/><path d="M154.0009649530324,335.2543437750454h5v3.55742206184118h-5Z" fill="#4c78a8" opacity="0.5"/><path d="M371.5518796431733,365.1288084516746h5v6.586920300863483h-5Z" fill="#bab0ac" opacity="0.5"/><path d="M389.68112253401836,312.1820063995994h5v8.018244227360583h-5Z" fill="#ff9da6" opacity="0.5"/><path d="M435.00422976113106,342.5891996223707h5v4.0441441211239635h-5Z" fill="#f58518" opacity="0.5"/><path d="M444.0688512065536,378.09109769979335h5v1.5128242458355317h-5Z" fill="#72b7b2" opacity="0.5"/><path d="M-0.09759961915075355,384h5v1.0333704529042507h-5Z" fill="#eeca3b" opacity="0.5"/><path d="M480.32733698824376,326.02703196437227h5v1.0894994024733364h-5Z" fill="#e45756" opacity="0.5"/><path d="M344.35801530690566,378.83398951148325h5v13.166010488516747h-5Z" fill="#e45756" opacity="0.5"/><path d="M280.9056651889479,336.5019685344498h5v2.8350279131377647h-5Z" fill="#b279a2" opacity="0.5"/><path d="M317.16415097063805,378.09109769979335h5v10.59519380122191h-5Z" fill="#f58518" opacity="0.5"/><path d="M299.034908079793,187.3594582399678h5v3.336934528814112h-5Z" fill="#9d755d" opacity="0.5"/><path d="M344.35801530690566,323.47549412116405h5v6.324790779699015h-5Z" fill="#ff9da6" opacity="0.5"/><path d="M253.7118008526803,284.3453416415923h5v6.695950583397803h-5Z" fill="#72b7b2" opacity="0.5"/><path d="M253.7118008526803,375.34234398812407h5v12.008545371202445h-5Z" fill="#e45756" opacity="0.5"/><path d="M335.2933938614832,361.63334781349823h5v7.3827854168424665h-5Z" fill="#f58518" opacity="0.5"/><path d="M226.5179365164127,342.3111795925762h5v14.2376984426229h-5Z" fill="#ff9da6" opacity="0.5"/><path d="M8.967021826271786,350.0400160128128h5v6.508862022386268h-5Z" fill="#4c78a8" opacity="0.5"/><path d="M271.84104374352535,385.03337045290425h5v3.6529210481110113h-5Z" fill="#e45756" opacity="0.5"/><path d="M480.32733698824376,388.68629150101526h5v5.656854249492369h-5Z" fill="#e45756" opacity="0.5"/><path d="M235.58255796183525,371.15558979628804h5v2.311411880868775h-5Z" fill="#f58518" opacity="0.5"/><path d="M289.9702866343705,374.0770372063686h5v5.526884739260311h-5Z" fill="#f58518" opacity="0.5"/><path d="M326.2287724160606,358.0476460731939h5v7.543052858635576h-5Z" fill="#f58518" opacity="0.5"/><path d="M525.6504442153564,368h5v3.155589796288041h-5Z" fill="#f58518" opacity="0.5"/><path d="M117.74247917134225,284.90004344049476h5v0.9772156180084153h-5Z" fill="#e45756" opacity="0.5"/><path d="M308.09952952521553,383.0294372515229h5v0.9705627484771071h-5Z" fill="#4c78a8" opacity="0.5"/><path d="M389.68112253401836,279.7336289730167h5v7.838616446541721h-5Z" fill="#f58518" opacity="0.5"/><path d="M-54.48532829168598,382.1114561800017h5v9.88854381999829h-5Z" fill="#4c78a8" opacity="0.5"/><path d="M271.84104374352535,362.05266807797943h5v6.963465152361266h-5Z" fill="#ff9da6" opacity="0.5"/><path d="M661.6197658966945,376.6761924206188h5v5.435263759382906h-5Z" fill="#ff9da6" opacity="0.5"/><path d="M81.48399338965208,365.5906989318295h5v7.876302745327337h-5Z" fill="#bab0ac" opacity="0.5"/><path d="M389.68112253401836,287.57224541955844h5v2.0103646457034756h-5Z" fill="#e45756" opacity="0.5"/><path d="M344.35801530690566,289.87280081651033h5v10.207231209115264h-5Z" fill="#f58518" opacity="0.5"/><path d="M-45.42070684626344,378.83398951148325h5v5.166010488516747h-5Z" fill="#4c78a8" opacity="0.5"/><path d="M616.2966586695818,381.2383369607063h5v1.791100290816587h-5Z" fill="#72b7b2" opacity="0.5"/><path d="M262.7764222981029,345.15476319679163h5v1.4785805467030286h-5Z" fill="#eeca3b" opacity="0.5"/><path d="M371.5518796431733,359.6019802465517h5v5.070976288136933h-5Z" fill="#ff9da6" opacity="0.5"/><path d="M154.0009649530324,338.8117658368866h5v5.762608320909351h-5Z" fill="#f58518" opacity="0.5"/><path d="M308.09952952521553,388.68629150101526h5v1.5157495278520514h-5Z" fill="#72b7b2" opacity="0.5"/><path d="M525.6504442153564,387.3508893593265h5v12.649110640673484h-5Z" fill="#f58518" opacity="0.5"/><path d="M63.35475049880701,376.6761924206188h5v2.927729525010079h-5Z" fill="#f58518" opacity="0.5"/><path d="M299.034908079793,115.80288530669422h5v1.3544022186867863h-5Z" fill="#54a24b" opacity="0.5"/><path d="M45.22550760796194,356.918681542924h5v2.2891623483337185h-5Z" fill="#72b7b2" opacity="0.5"/><path d="M81.48399338965208,339.86681448650836h5v3.001758085148822h-5Z" fill="#4c78a8" opacity="0.5"/><path d="M117.74247917134225,285.87725905850317h5v2.5521354936460057h-5Z" fill="#72b7b2" opacity="0.5"/><path d="M407.81036542486345,386.143593539449h5v5.856406460551h-5Z" fill="#f58518" opacity="0.5"/><path d="M208.3886936255676,332.35386189884895h5v9.405258986906915h-5Z" fill="#bab0ac" opacity="0.5"/><path d="M126.80710061676479,376.6761924206188h5v0.6963905814116629h-5Z" fill="#4c78a8" opacity="0.5"/><path d="M371.5518796431733,372.28718707889794h5v15.063702280428572h-5Z" fill="#f58518" opacity="0.5"/><path d="M280.9056651889479,339.3369964475876h5v13.67364305452952h-5Z" fill="#ff9da6" opacity="0.5"/><path d="M27.09626471711686,366.533598938637h5v8.808745049487072h-5Z" fill="#bab0ac" opacity="0.5"/><path d="M45.22550760796194,359.6019802465517h5v10.46476065925674h-5Z" fill="#ff9da6" opacity="0.5"/><path d="M326.2287724160606,366.05887450304573h5v5.096715293242312h-5Z" fill="#72b7b2" opacity="0.5"/><path d="M208.3886936255676,288.7165780540515h5v0.8660320112103932h-5Z" fill="#e45756" opacity="0.5"/><path d="M27.09626471711686,354.04349882769577h5v9.734960619754588h-5Z" fill="#ff9da6" opacity="0.5"/><path d="M435.00422976113106,394.34314575050763h5v5.656854249492369h-5Z" fill="#72b7b2" opacity="0.5"/><path d="M280.9056651889479,353.0106395021171h5v12.580059429712378h-5Z" fill="#bab0ac" opacity="0.5"/><path d="M371.5518796431733,341.75912088575586h5v4.8742228577388005h-5Z" fill="#f58518" opacity="0.5"/><path d="M72.41937194422955,328.669781999492h5v1.8176292125769464h-5Z" fill="#72b7b2" opacity="0.5"/><path d="M81.48399338965208,350.36130541603654h5v0.9765943415777087h-5Z" fill="#72b7b2" opacity="0.5"/><path d="M389.68112253401836,308.61072272963315h5v1.2338559136896947h-5Z" fill="#54a24b" opacity="0.5"/><path d="M371.5518796431733,387.3508893593265h5v4.649110640673484h-5Z" fill="#e45756" opacity="0.5"/><path d="M-36.35608540084091,378.83398951148325h5v4.19544774003964h-5Z" fill="#4c78a8" opacity="0.5"/><path d="M344.35801530690566,329.80028490086306h5v1.381112962795953h-5Z" fill="#9d755d" opacity="0.5"/><path d="M371.5518796431733,348.4636050930995h5v4.207756642103618h-5Z" fill="#72b7b2" opacity="0.5"/><path d="M661.6197658966945,382.1114561800017h5v8.090584848865603h-5Z" fill="#bab0ac" opacity="0.5"/><path d="M317.16415097063805,362.47667392141256h5v5.523326078587445h-5Z" fill="#72b7b2" opacity="0.5"/><path d="M90.54861483507463,377.37258300203047h5v1.461406509452786h-5Z" fill="#4c78a8" opacity="0.5"/><path d="M353.42263675232823,372.28718707889794h5v6.546802432585309h-5Z" fill="#f58518" opacity="0.5"/><path d="M27.09626471711686,385.03337045290425h5v14.96662954709575h-5Z" fill="#e45756" opacity="0.5"/><path d="M416.874986870286,390.2020410288673h5v1.7979589711326867h-5Z" fill="#f58518" opacity="0.5"/><path d="M163.06558639845494,310.7363455823144h5v3.1010175035335124h-5Z" fill="#72b7b2" opacity="0.5"/><path d="M190.25945073472255,370.06674090580844h5v10.337341151926125h-5Z" fill="#ff9da6" opacity="0.5"/><path d="M570.9735514424692,376h5v0.6761924206188041h-5Z" fill="#9d755d" opacity="0.5"/><path d="M99.61323628049718,394.34314575050763h5v5.656854249492369h-5Z" fill="#72b7b2" opacity="0.5"/><path d="M271.84104374352535,375.34234398812407h5v9.69102646478018h-5Z" fill="#f58518" opacity="0.5"/><path d="M271.84104374352535,388.68629150101526h5v11.313708498984738h-5Z" fill="#72b7b2" opacity="0.5"/><path d="M27.09626471711686,375.34234398812407h5v9.69102646478018h-5Z" fill="#f58518" opacity="0.5"/><path d="M163.06558639845494,346.0370497470718h5v0.2973187929332539h-5Z" fill="#4c78a8" opacity="0.5"/><path d="M72.41937194422955,330.9492939934717h5v0.69867604398803h-5Z" fill="#eeca3b" opacity="0.5"/><path d="M335.2933938614832,382.1114561800017h5v9.88854381999829h-5Z" fill="#f58518" opacity="0.5"/><path d="M208.3886936255676,289.5826100652619h5v4.587337492154461h-5Z" fill="#72b7b2" opacity="0.5"/><path d="M425.9396083157086,386.143593539449h5v2.5426979615662617h-5Z" fill="#bab0ac" opacity="0.5"/><path d="M435.00422976113106,359.6019802465517h5v1.6165808941176465h-5Z" fill="#b279a2" opacity="0.5"/><path d="M425.9396083157086,388.68629150101526h5v11.313708498984738h-5Z" fill="#f58518" opacity="0.5"/><path d="M280.9056651889479,390.2020410288673h5v9.797958971132687h-5Z" fill="#72b7b2" opacity="0.5"/><path d="M8.967021826271786,356.5488780351991h5v6.35664798281806h-5Z" fill="#f58518" opacity="0.5"/><path d="M126.80710061676479,384h5v8h-5Z" fill="#bab0ac" opacity="0.5"/><path d="M407.81036542486345,366.05887450304573h5v5.656854249492369h-5Z" fill="#f58518" opacity="0.5"/><path d="M154.0009649530324,345.15476319679163h5v0.5865969382062417h-5Z" fill="#eeca3b" opacity="0.5"/><path d="M444.0688512065536,387.3508893593265h5v4.649110640673484h-5Z" fill="#bab0ac" opacity="0.5"/><path d="M117.74247917134225,316.8615612366939h5v1.554126545821589h-5Z" fill="#9d755d" opacity="0.5"/><path d="M226.5179365164127,337.7746032555838h5v3.166104503482586h-5Z" fill="#72b7b2" opacity="0.5"/><path d="M27.09626471711686,348.7750061005372h5v2.8928100050844705h-5Z" fill="#72b7b2" opacity="0.5"/><path d="M36.1608861625394,388.68629150101526h5v1.5157495278520514h-5Z" fill="#b279a2" opacity="0.5"/><path d="M462.19809409739867,385.03337045290425h5v1.1102230865447495h-5Z" fill="#4c78a8" opacity="0.5"/><path d="M181.1948292893,376h5v7.029437251522893h-5Z" fill="#f58518" opacity="0.5"/><path d="M208.3886936255676,378.83398951148325h5v8.516899847843263h-5Z" fill="#e45756" opacity="0.5"/><path d="M-18.22684250999583,384h5v1.0333704529042507h-5Z" fill="#9d755d" opacity="0.5"/><path d="M280.9056651889479,329.3459130693772h5v6.404573313786727h-5Z" fill="#72b7b2" opacity="0.5"/><path d="M135.87172206218733,373.4670016771568h5v1.2347770414961587h-5Z" fill="#4c78a8" opacity="0.5"/><path d="M407.81036542486345,392h5v2.343145750507631h-5Z" fill="#e45756" opacity="0.5"/><path d="M226.5179365164127,370.6061230866019h5v15.537470452847117h-5Z" fill="#f58518" opacity="0.5"/><path d="M-9.162221064573291,383.0294372515229h5v4.321452107803623h-5Z" fill="#bab0ac" opacity="0.5"/><path d="M407.81036542486345,372.28718707889794h5v2.414591639755031h-5Z" fill="#72b7b2" opacity="0.5"/><path d="M444.0688512065536,380.40408205773457h5v3.59591794226543h-5Z" fill="#b279a2" opacity="0.5"/><path d="M253.7118008526803,291.33537834235096h5v1.3333587376591254h-5Z" fill="#eeca3b" opacity="0.5"/><path d="M208.3886936255676,296.7720967954885h5v2.8287000204224455h-5Z" fill="#b279a2" opacity="0.5"/><path d="M480.32733698824376,338.55083401705116h5v5.164176865067702h-5Z" fill="#ff9da6" opacity="0.5"/><path d="M99.61323628049718,376h5v2.833989511483253h-5Z" fill="#bab0ac" opacity="0.5"/><path d="M190.25945073472255,385.03337045290425h5v14.96662954709575h-5Z" fill="#f58518" opacity="0.5"/><path d="M308.09952952521553,384h5v4.686291501015262h-5Z" fill="#f58518" opacity="0.5"/><path d="M425.9396083157086,385.03337045290425h5v1.1102230865447495h-5Z" fill="#54a24b" opacity="0.5"/><path d="M498.4565798790889,388.68629150101526h5v3.313708498984738h-5Z" fill="#f58518" opacity="0.5"/><path d="M362.48725819775075,384h5v3.3508893593265157h-5Z" fill="#ff9da6" opacity="0.5"/><path d="M389.68112253401836,309.84457864332285h5v0.7127022566855885h-5Z" fill="#eeca3b" opacity="0.5"/><path d="M389.68112253401836,378.83398951148325h5v15.509156239024378h-5Z" fill="#e45756" opacity="0.5"/><path d="M45.22550760796194,345.4472732120566h5v5.2374147641916124h-5Z" fill="#4c78a8" opacity="0.5"/><path d="M208.3886936255676,294.62448102144407h5v2.147615774044425h-5Z" fill="#eeca3b" opacity="0.5"/><path d="M262.7764222981029,355.45788509735985h5v17.41279497013909h-5Z" fill="#bab0ac" opacity="0.5"/><path d="M190.25945073472255,358.817479436052h5v3.2351886419274365h-5Z" fill="#4c78a8" opacity="0.5"/><path d="M81.48399338965208,351.33789975761425h5v1.333461977588854h-5Z" fill="#eeca3b" opacity="0.5"/><path d="M117.74247917134225,289.437800311318h5v1.7504356187985195h-5Z" fill="#b279a2" opacity="0.5"/><path d="M480.32733698824376,343.71501088211886h5v0.859363275677083h-5Z" fill="#9d755d" opacity="0.5"/><path d="M45.22550760796194,376.6761924206188h5v0.6963905814116629h-5Z" fill="#4c78a8" opacity="0.5"/><path d="M-18.22684250999583,385.03337045290425h5v3.6529210481110113h-5Z" fill="#bab0ac" opacity="0.5"/><path d="M344.35801530690566,288h5v1.8728008165103347h-5Z" fill="#4c78a8" opacity="0.5"/><path d="M117.74247917134225,387.3508893593265h5v12.649110640673484h-5Z" fill="#72b7b2" opacity="0.5"/><path d="M63.35475049880701,374.701778718653h5v1.9744137019658297h-5Z" fill="#4c78a8" opacity="0.5"/><path d="M262.7764222981029,342.5891996223707h5v2.565563574420935h-5Z" fill="#72b7b2" opacity="0.5"/><path d="M389.68112253401836,320.20025062696h5v1.2122185554860039h-5Z" fill="#9d755d" opacity="0.5"/><path d="M480.32733698824376,336.7544467966324h5v0.7635557961143604h-5Z" fill="#eeca3b" opacity="0.5"/><path d="M45.22550760796194,350.6846879762482h5v6.233993566675792h-5Z" fill="#f58518" opacity="0.5"/><path d="M190.25945073472255,380.40408205773457h5v1.7073741222671401h-5Z" fill="#9d755d" opacity="0.5"/><path d="M380.61650108859584,390.2020410288673h5v1.7979589711326867h-5Z" fill="#ff9da6" opacity="0.5"/><path d="M99.61323628049718,366.05887450304573h5v1.941125496954271h-5Z" fill="#4c78a8" opacity="0.5"/><path d="M27.09626471711686,352.33449884874807h5v1.708999978947702h-5Z" fill="#b279a2" opacity="0.5"/><path d="M-18.22684250999583,388.68629150101526h5v11.313708498984738h-5Z" fill="#f58518" opacity="0.5"/><path d="M163.06558639845494,388.68629150101526h5v11.313708498984738h-5Z" fill="#72b7b2" opacity="0.5"/><path d="M706.9428731238072,394.34314575050763h5v5.656854249492369h-5Z" fill="#bab0ac" opacity="0.5"/><path d="M163.06558639845494,380.40408205773457h5v8.282209443280692h-5Z" fill="#e45756" opacity="0.5"/><path d="M697.8782516783847,388.68629150101526h5v1.5157495278520514h-5Z" fill="#eeca3b" opacity="0.5"/><path d="M45.22550760796194,372.87068006749894h5v3.805512353119866h-5Z" fill="#bab0ac" opacity="0.5"/><path d="M226.5179365164127,332.11774900609146h5v5.656854249492369h-5Z" fill="#f58518" opacity="0.5"/><path d="M570.9735514424692,366.05887450304573h5v5.656854249492369h-5Z" fill="#72b7b2" opacity="0.5"/><path d="M480.32733698824376,319.4022332815605h5v0.7980173453995008h-5Z" fill="#4c78a8" opacity="0.5"/><path d="M172.13020784387749,379.6039219456289h5v1.6344150150774226h-5Z" fill="#f58518" opacity="0.5"/><path d="M126.80710061676479,377.37258300203047h5v0.7185146977628847h-5Z" fill="#b279a2" opacity="0.5"/><path d="M335.2933938614832,369.0161332303407h5v0.520774346203666h-5Z" fill="#e45756" opacity="0.5"/><path d="M72.41937194422955,331.64797003745974h5v0.9428317771293564h-5Z" fill="#b279a2" opacity="0.5"/><path d="M45.22550760796194,394.34314575050763h5v5.656854249492369h-5Z" fill="#e45756" opacity="0.5"/><path d="M72.41937194422955,392h5v8h-5Z" fill="#72b7b2" opacity="0.5"/><path d="M54.290129053384476,382.1114561800017h5v0.9179810715211829h-5Z" fill="#eeca3b" opacity="0.5"/><path d="M326.2287724160606,371.7157287525381h5v7.888193193090785h-5Z" fill="#bab0ac" opacity="0.5"/><path d="M190.25945073472255,382.1114561800017h5v2.9219142729025407h-5Z" fill="#bab0ac" opacity="0.5"/><path d="M8.967021826271786,372.87068006749894h5v9.240776112502772h-5Z" fill="#bab0ac" opacity="0.5"/><path d="M280.9056651889479,378.83398951148325h5v11.36805151738406h-5Z" fill="#e45756" opacity="0.5"/><path d="M362.48725819775075,387.3508893593265h5v4.649110640673484h-5Z" fill="#f58518" opacity="0.5"/><path d="M81.48399338965208,374.0770372063686h5v9.922962793631427h-5Z" fill="#f58518" opacity="0.5"/><path d="M570.9735514424692,364.22291236000336h5v1.8359621430423658h-5Z" fill="#f58518" opacity="0.5"/><path d="M208.3886936255676,294.1699475574164h5v0.45453346402769057h-5Z" fill="#54a24b" opacity="0.5"/><path d="M262.7764222981029,335.0076927629123h5v2.2547586716551677h-5Z" fill="#4c78a8" opacity="0.5"/><path d="M407.81036542486345,377.37258300203047h5v5.656854249492426h-5Z" fill="#ff9da6" opacity="0.5"/><path d="M444.0688512065536,374.0770372063686h5v1.9229627936314273h-5Z" fill="#4c78a8" opacity="0.5"/><path d="M326.2287724160606,381.2383369607063h5v8.963704068161007h-5Z" fill="#f58518" opacity="0.5"/><path d="M8.967021826271786,382.1114561800017h5v17.88854381999829h-5Z" fill="#f58518" opacity="0.5"/><path d="M235.58255796183525,382.1114561800017h5v12.231689570505921h-5Z" fill="#f58518" opacity="0.5"/><path d="M507.52120132451137,394.34314575050763h5v5.656854249492369h-5Z" fill="#bab0ac" opacity="0.5"/><path d="M833.8475733597227,387.3508893593265h5v12.649110640673484h-5Z" fill="#bab0ac" opacity="0.5"/><path d="M-27.29146395541837,368h5v8.676192420618804h-5Z" fill="#4c78a8" opacity="0.5"/><path d="M163.06558639845494,314.0232589591813h5v0.9355745389415233h-5Z" fill="#eeca3b" opacity="0.5"/><path d="M661.6197658966945,374.701778718653h5v1.2982212813470255h-5Z" fill="#72b7b2" opacity="0.5"/><path d="M163.06558639845494,310.0222249663841h5v0.7141206159303124h-5Z" fill="#e45756" opacity="0.5"/><path d="M81.48399338965208,352.6713617352031h5v0.6810231060345018h-5Z" fill="#b279a2" opacity="0.5"/><path d="M289.9702866343705,385.03337045290425h5v9.30977529760338h-5Z" fill="#bab0ac" opacity="0.5"/><path d="M-36.35608540084091,384h5v3.3508893593265157h-5Z" fill="#ff9da6" opacity="0.5"/><path d="M289.9702866343705,379.6039219456289h5v0.8001601121056865h-5Z" fill="#e45756" opacity="0.5"/><path d="M181.1948292893,383.0294372515229h5v4.321452107803623h-5Z" fill="#ff9da6" opacity="0.5"/><path d="M135.87172206218733,394.34314575050763h5v5.656854249492369h-5Z" fill="#72b7b2" opacity="0.5"/><path d="M154.0009649530324,394.34314575050763h5v5.656854249492369h-5Z" fill="#72b7b2" opacity="0.5"/><path d="M226.5179365164127,357.29168699187477h5v11.72444623846593h-5Z" fill="#bab0ac" opacity="0.5"/><path d="M271.84104374352535,360.40202025355336h5v1.6506478244260734h-5Z" fill="#b279a2" opacity="0.5"/><path d="M262.7764222981029,342.0344930152423h5v0.5547066071284235h-5Z" fill="#e45756" opacity="0.5"/><path d="M317.16415097063805,356.918681542924h5v4.29987959774536h-5Z" fill="#f58518" opacity="0.5"/><path d="M99.61323628049718,378.83398951148325h5v13.166010488516747h-5Z" fill="#f58518" opacity="0.5"/><path d="M144.93634350760985,394.34314575050763h5v5.656854249492369h-5Z" fill="#e45756" opacity="0.5"/><path d="M226.5179365164127,369.0161332303407h5v1.5899898562611838h-5Z" fill="#4c78a8" opacity="0.5"/><path d="M18.03164327169432,384h5v3.3508893593265157h-5Z" fill="#ff9da6" opacity="0.5"/><path d="M-27.29146395541837,379.6039219456289h5v4.396078054371117h-5Z" fill="#ff9da6" opacity="0.5"/><path d="M208.3886936255676,341.75912088575586h5v0.830078736614837h-5Z" fill="#4c78a8" opacity="0.5"/><path d="M144.93634350760985,379.6039219456289h5v7.746967413697632h-5Z" fill="#ff9da6" opacity="0.5"/><path d="M81.48399338965208,364.22291236000336h5v1.367786571826116h-5Z" fill="#9d755d" opacity="0.5"/><path d="M598.1674157787368,394.34314575050763h5v5.656854249492369h-5Z" fill="#f58518" opacity="0.5"/><path d="M371.5518796431733,346.63334374349466h5v1.8302613496048252h-5Z" fill="#e45756" opacity="0.5"/><path d="M90.54861483507463,378.83398951148325h5v3.277466668518457h-5Z" fill="#f58518" opacity="0.5"/><path d="M54.290129053384476,383.0294372515229h5v5.656854249492369h-5Z" fill="#ff9da6" opacity="0.5"/><path d="M380.61650108859584,394.34314575050763h5v5.656854249492369h-5Z" fill="#72b7b2" opacity="0.5"/><path d="M163.06558639845494,339.07381515308873h5v1.059666658528215h-5Z" fill="#9d755d" opacity="0.5"/><path d="M-9.162221064573291,368.50396850395276h5v4.3667115635461755h-5Z" fill="#4c78a8" opacity="0.5"/><path d="M262.7764222981029,346.63334374349466h5v1.5207306692424254h-5Z" fill="#b279a2" opacity="0.5"/><path d="M27.09626471711686,363.77845944745036h5v2.7551394911866396h-5Z" fill="#9d755d" opacity="0.5"/><path d="M570.9735514424692,371.7157287525381h5v1.7512729246187178h-5Z" fill="#b279a2" opacity="0.5"/><path d="M-0.09759961915075355,382.1114561800017h5v1.88854381999829h-5Z" fill="#72b7b2" opacity="0.5"/><path d="M172.13020784387749,394.34314575050763h5v5.656854249492369h-5Z" fill="#e45756" opacity="0.5"/><path d="M-45.42070684626344,384h5v2.143593539449h-5Z" fill="#f58518" opacity="0.5"/><path d="M353.42263675232823,388.68629150101526h5v5.656854249492369h-5Z" fill="#f58518" opacity="0.5"/><path d="M335.2933938614832,376h5v6.11145618000171h-5Z" fill="#bab0ac" opacity="0.5"/><path d="M507.52120132451137,392h5v2.343145750507631h-5Z" fill="#72b7b2" opacity="0.5"/><path d="M-9.162221064573291,388.68629150101526h5v11.313708498984738h-5Z" fill="#f58518" opacity="0.5"/><path d="M480.32733698824376,337.51800259274677h5v1.0328314243043906h-5Z" fill="#b279a2" opacity="0.5"/><path d="M72.41937194422955,348.7750061005372h5v1.9096818757109872h-5Z" fill="#9d755d" opacity="0.5"/><path d="M144.93634350760985,376.6761924206188h5v1.4149052791745476h-5Z" fill="#f58518" opacity="0.5"/><path d="M407.81036542486345,383.0294372515229h5v3.1141562879261073h-5Z" fill="#bab0ac" opacity="0.5"/><path d="M389.68112253401836,310.55728090000844h5v1.6247254995909657h-5Z" fill="#b279a2" opacity="0.5"/><path d="M326.2287724160606,390.2020410288673h5v9.797958971132687h-5Z" fill="#e45756" opacity="0.5"/><path d="M154.0009649530324,364.22291236000336h5v6.932677436284678h-5Z" fill="#bab0ac" opacity="0.5"/><path d="M661.6197658966945,376h5v0.6761924206188041h-5Z" fill="#b279a2" opacity="0.5"/><path d="M525.6504442153564,371.15558979628804h5v2.921447410080532h-5Z" fill="#72b7b2" opacity="0.5"/><path d="M326.2287724160606,365.5906989318295h5v0.46817557121624986h-5Z" fill="#e45756" opacity="0.5"/><path d="M616.2966586695818,394.34314575050763h5v5.656854249492369h-5Z" fill="#e45756" opacity="0.5"/><path d="M643.4905230058495,394.34314575050763h5v5.656854249492369h-5Z" fill="#bab0ac" opacity="0.5"/><path d="M172.13020784387749,387.3508893593265h5v6.992256391181115h-5Z" fill="#f58518" opacity="0.5"/><path d="M380.61650108859584,387.3508893593265h5v1.3354021416887463h-5Z" fill="#4c78a8" opacity="0.5"/><path d="M172.13020784387749,386.143593539449h5v1.2072958198775154h-5Z" fill="#bab0ac" opacity="0.5"/><path d="M181.1948292893,375.34234398812407h5v0.6576560118759289h-5Z" fill="#4c78a8" opacity="0.5"/><path d="M833.8475733597227,378.83398951148325h5v7.309604027965747h-5Z" fill="#ff9da6" opacity="0.5"/><path d="M235.58255796183525,373.4670016771568h5v0.610035529211757h-5Z" fill="#e45756" opacity="0.5"/><path d="M471.26271554282124,394.34314575050763h5v5.656854249492369h-5Z" fill="#f58518" opacity="0.5"/><path d="M253.7118008526803,291.0412922249901h5v0.2940861173608482h-5Z" fill="#54a24b" opacity="0.5"/><path d="M589.1027943333143,381.2383369607063h5v0.873119219295404h-5Z" fill="#b279a2" opacity="0.5"/><path d="M-27.29146395541837,384h5v2.143593539449h-5Z" fill="#9d755d" opacity="0.5"/><path d="M362.48725819775075,383.0294372515229h5v0.9705627484771071h-5Z" fill="#72b7b2" opacity="0.5"/><path d="M589.1027943333143,379.6039219456289h5v0.8001601121056865h-5Z" fill="#f58518" opacity="0.5"/><path d="M661.6197658966945,374.0770372063686h5v0.6247415122844018h-5Z" fill="#e45756" opacity="0.5"/><path d="M45.22550760796194,370.06674090580844h5v2.8039391616904936h-5Z" fill="#9d755d" opacity="0.5"/><path d="M217.45331507099016,394.34314575050763h5v5.656854249492369h-5Z" fill="#bab0ac" opacity="0.5"/><path d="M280.9056651889479,328.4458247200067h5v0.9000883493704919h-5Z" fill="#e45756" opacity="0.5"/><path d="M389.68112253401836,353.0106395021171h5v0.6860128867219828h-5Z" fill="#4c78a8" opacity="0.5"/><path d="M18.03164327169432,382.1114561800017h5v0.9179810715211829h-5Z" fill="#4c78a8" opacity="0.5"/><path d="M362.48725819775075,380.40408205773457h5v2.625355193788323h-5Z" fill="#f58518" opacity="0.5"/><path d="M-9.162221064573291,381.2383369607063h5v1.791100290816587h-5Z" fill="#9d755d" opacity="0.5"/><path d="M308.09952952521553,390.2020410288673h5v9.797958971132687h-5Z" fill="#ff9da6" opacity="0.5"/><path d="M190.25945073472255,368h5v1.0161332303406994h-5Z" fill="#eeca3b" opacity="0.5"/><path d="M135.87172206218733,387.3508893593265h5v6.992256391181115h-5Z" fill="#f58518" opacity="0.5"/><path d="M661.6197658966945,394.34314575050763h5v5.656854249492369h-5Z" fill="#e45756" opacity="0.5"/><path d="M117.74247917134225,288.8604480844016h5v0.5773522269163891h-5Z" fill="#eeca3b" opacity="0.5"/><path d="M335.2933938614832,371.15558979628804h5v2.311411880868775h-5Z" fill="#b279a2" opacity="0.5"/><path d="M271.84104374352535,369.0161332303407h5v6.326210757783372h-5Z" fill="#bab0ac" opacity="0.5"/><path d="M235.58255796183525,374.0770372063686h5v1.9229627936314273h-5Z" fill="#72b7b2" opacity="0.5"/><path d="M570.9735514424692,373.4670016771568h5v2.5329983228431843h-5Z" fill="#ff9da6" opacity="0.5"/><path d="M90.54861483507463,384h5v3.3508893593265157h-5Z" fill="#ff9da6" opacity="0.5"/><path d="M172.13020784387749,382.1114561800017h5v4.03213735944729h-5Z" fill="#ff9da6" opacity="0.5"/><path d="M362.48725819775075,392h5v2.343145750507631h-5Z" fill="#e45756" opacity="0.5"/><path d="M534.715065660779,394.34314575050763h5v5.656854249492369h-5Z" fill="#ff9da6" opacity="0.5"/><path d="M444.0688512065536,392h5v2.343145750507631h-5Z" fill="#4c78a8" opacity="0.5"/><path d="M-9.162221064573291,376h5v5.238336960706306h-5Z" fill="#ff9da6" opacity="0.5"/><path d="M36.1608861625394,387.3508893593265h5v1.3354021416887463h-5Z" fill="#4c78a8" opacity="0.5"/><path d="M516.5858227699339,387.3508893593265h5v1.3354021416887463h-5Z" fill="#b279a2" opacity="0.5"/><path d="M435.00422976113106,361.21856114066935h5v2.120833299683966h-5Z" fill="#ff9da6" opacity="0.5"/><path d="M444.0688512065536,384h5v3.3508893593265157h-5Z" fill="#ff9da6" opacity="0.5"/><path d="M371.5518796431733,371.7157287525381h5v0.5714583263598456h-5Z" fill="#4c78a8" opacity="0.5"/><path d="M108.67785772591971,392h5v8h-5Z" fill="#f58518" opacity="0.5"/><path d="M589.1027943333143,390.2020410288673h5v1.7979589711326867h-5Z" fill="#f58518" opacity="0.5"/><path d="M289.9702866343705,373.4670016771568h5v0.610035529211757h-5Z" fill="#4c78a8" opacity="0.5"/><path d="M18.03164327169432,387.3508893593265h5v1.3354021416887463h-5Z" fill="#9d755d" opacity="0.5"/><path d="M108.67785772591971,382.1114561800017h5v0.9179810715211829h-5Z" fill="#72b7b2" opacity="0.5"/><path d="M280.9056651889479,336.2504901979631h5v0.2514783364867412h-5Z" fill="#eeca3b" opacity="0.5"/><path d="M435.00422976113106,346.63334374349466h5v0.907148062089334h-5Z" fill="#e45756" opacity="0.5"/><path d="M172.13020784387749,381.2383369607063h5v0.873119219295404h-5Z" fill="#e45756" opacity="0.5"/><path d="M-0.09759961915075355,386.143593539449h5v8.19955221105863h-5Z" fill="#ff9da6" opacity="0.5"/><path d="M-27.29146395541837,386.143593539449h5v5.856406460551h-5Z" fill="#bab0ac" opacity="0.5"/><path d="M117.74247917134225,288.4293945521492h5v0.43105353225240606h-5Z" fill="#54a24b" opacity="0.5"/><path d="M480.32733698824376,366.05887450304573h5v1.4449718784104562h-5Z" fill="#4c78a8" opacity="0.5"/><path d="M679.7490087875397,394.34314575050763h5v5.656854249492369h-5Z" fill="#54a24b" opacity="0.5"/><path d="M235.58255796183525,376.6761924206188h5v2.157797090864449h-5Z" fill="#ff9da6" opacity="0.5"/><path d="M371.5518796431733,352.6713617352031h5v1.721621260831398h-5Z" fill="#eeca3b" opacity="0.5"/><path d="M271.84104374352535,357.66797902296656h5v1.9340012235851418h-5Z" fill="#72b7b2" opacity="0.5"/><path d="M752.2659803509199,392h5v2.343145750507631h-5Z" fill="#ff9da6" opacity="0.5"/><path d="M-27.29146395541837,376.6761924206188h5v1.4149052791745476h-5Z" fill="#f58518" opacity="0.5"/><path d="M589.1027943333143,392h5v8h-5Z" fill="#e45756" opacity="0.5"/><path d="M18.03164327169432,390.2020410288673h5v4.141104721640318h-5Z" fill="#f58518" opacity="0.5"/><path d="M589.1027943333143,385.03337045290425h5v5.168670575963063h-5Z" fill="#bab0ac" opacity="0.5"/><path d="M181.1948292893,387.3508893593265h5v4.649110640673484h-5Z" fill="#bab0ac" opacity="0.5"/><path d="M462.19809409739867,387.3508893593265h5v2.8511516695407977h-5Z" fill="#72b7b2" opacity="0.5"/><path d="M589.1027943333143,382.1114561800017h5v2.9219142729025407h-5Z" fill="#ff9da6" opacity="0.5"/><path d="M72.41937194422955,328h5v0.6697819994919882h-5Z" fill="#e45756" opacity="0.5"/><path d="M135.87172206218733,384h5v2.143593539449h-5Z" fill="#9d755d" opacity="0.5"/><path d="M271.84104374352535,346.63334374349466h5v0.6030324234136515h-5Z" fill="#4c78a8" opacity="0.5"/><path d="M244.64717940725777,378.09109769979335h5v2.312984357941218h-5Z" fill="#b279a2" opacity="0.5"/><path d="M661.6197658966945,372.28718707889794h5v1.1798145982588721h-5Z" fill="#4c78a8" opacity="0.5"/><path d="M253.7118008526803,387.3508893593265h5v12.649110640673484h-5Z" fill="#72b7b2" opacity="0.5"/><path d="M90.54861483507463,382.1114561800017h5v0.9179810715211829h-5Z" fill="#72b7b2" opacity="0.5"/><path d="M126.80710061676479,392h5v8h-5Z" fill="#f58518" opacity="0.5"/><path d="M380.61650108859584,392h5v2.343145750507631h-5Z" fill="#f58518" opacity="0.5"/><path d="M8.967021826271786,362.90552601801716h5v0.4338684223361611h-5Z" fill="#e45756" opacity="0.5"/><path d="M507.52120132451137,390.2020410288673h5v1.7979589711326867h-5Z" fill="#f58518" opacity="0.5"/><path d="M-36.35608540084091,387.3508893593265h5v2.8511516695407977h-5Z" fill="#bab0ac" opacity="0.5"/><path d="M317.16415097063805,356.1821953995867h5v0.736486143337288h-5Z" fill="#4c78a8" opacity="0.5"/><path d="M335.2933938614832,369.53690757654437h5v1.6186822197436754h-5Z" fill="#72b7b2" opacity="0.5"/><path d="M453.13347265197615,390.2020410288673h5v9.797958971132687h-5Z" fill="#bab0ac" opacity="0.5"/><path d="M144.93634350760985,387.3508893593265h5v1.3354021416887463h-5Z" fill="#9d755d" opacity="0.5"/><path d="M589.1027943333143,380.40408205773457h5v0.8342549029717361h-5Z" fill="#72b7b2" opacity="0.5"/><path d="M199.3240721801451,387.3508893593265h5v1.3354021416887463h-5Z" fill="#4c78a8" opacity="0.5"/><path d="M462.19809409739867,394.34314575050763h5v5.656854249492369h-5Z" fill="#f58518" opacity="0.5"/><path d="M144.93634350760985,378.09109769979335h5v0.7428918116899013h-5Z" fill="#72b7b2" opacity="0.5"/><path d="M244.64717940725777,392h5v8h-5Z" fill="#f58518" opacity="0.5"/><path d="M244.64717940725777,374.701778718653h5v2.6708042833774925h-5Z" fill="#f58518" opacity="0.5"/><path d="M-36.35608540084091,390.2020410288673h5v4.141104721640318h-5Z" fill="#f58518" opacity="0.5"/><path d="M616.2966586695818,392h5v2.343145750507631h-5Z" fill="#bab0ac" opacity="0.5"/><path d="M27.09626471711686,351.6678161056217h5v0.6666827431263869h-5Z" fill="#54a24b" opacity="0.5"/><path d="M462.19809409739867,390.2020410288673h5v1.7979589711326867h-5Z" fill="#eeca3b" opacity="0.5"/><path d="M253.7118008526803,321.006329367474h5v1.224782251631666h-5Z" fill="#9d755d" opacity="0.5"/><path d="M444.0688512065536,376h5v2.0910976997933517h-5Z" fill="#f58518" opacity="0.5"/><path d="M326.2287724160606,371.15558979628804h5v0.5601389562500572h-5Z" fill="#ff9da6" opacity="0.5"/><path d="M-45.42070684626344,387.3508893593265h5v12.649110640673484h-5Z" fill="#bab0ac" opacity="0.5"/><path d="M135.87172206218733,374.701778718653h5v2.6708042833774925h-5Z" fill="#f58518" opacity="0.5"/><path d="M407.81036542486345,394.34314575050763h5v5.656854249492369h-5Z" fill="#72b7b2" opacity="0.5"/><path d="M462.19809409739867,392h5v2.343145750507631h-5Z" fill="#ff9da6" opacity="0.5"/><path d="M317.16415097063805,361.21856114066935h5v1.258112780743204h-5Z" fill="#e45756" opacity="0.5"/><path d="M-18.22684250999583,379.6039219456289h5v4.396078054371117h-5Z" fill="#ff9da6" opacity="0.5"/><path d="M697.8782516783847,392h5v8h-5Z" fill="#f58518" opacity="0.5"/><path d="M144.93634350760985,378.83398951148325h5v0.7699324341456304h-5Z" fill="#eeca3b" opacity="0.5"/><path d="M326.2287724160606,357.29168699187477h5v0.7559590813191335h-5Z" fill="#4c78a8" opacity="0.5"/><path d="M525.6504442153564,378.83398951148325h5v0.7699324341456304h-5Z" fill="#9d755d" opacity="0.5"/><path d="M81.48399338965208,350.0400160128128h5v0.3212894032237159h-5Z" fill="#e45756" opacity="0.5"/><path d="M-27.29146395541837,392h5v8h-5Z" fill="#f58518" opacity="0.5"/><path d="M36.1608861625394,394.34314575050763h5v5.656854249492369h-5Z" fill="#72b7b2" opacity="0.5"/><path d="M833.8475733597227,376.6761924206188h5v2.157797090864449h-5Z" fill="#72b7b2" opacity="0.5"/><path d="M380.61650108859584,388.68629150101526h5v1.5157495278520514h-5Z" fill="#f58518" opacity="0.5"/><path d="M99.61323628049718,370.06674090580844h5v0.5393821807934387h-5Z" fill="#72b7b2" opacity="0.5"/><path d="M670.684387342117,394.34314575050763h5v5.656854249492369h-5Z" fill="#ff9da6" opacity="0.5"/><path d="M-0.09759961915075355,378.83398951148325h5v3.277466668518457h-5Z" fill="#4c78a8" opacity="0.5"/><path d="M480.32733698824376,394.34314575050763h5v5.656854249492369h-5Z" fill="#72b7b2" opacity="0.5"/><path d="M833.8475733597227,386.143593539449h5v1.2072958198775154h-5Z" fill="#9d755d" opacity="0.5"/><path d="M36.1608861625394,392h5v2.343145750507631h-5Z" fill="#bab0ac" opacity="0.5"/><path d="M-36.35608540084091,394.34314575050763h5v5.656854249492369h-5Z" fill="#e45756" opacity="0.5"/><path d="M371.5518796431733,392h5v8h-5Z" fill="#72b7b2" opacity="0.5"/><path d="M317.16415097063805,368h5v0.5039685039527626h-5Z" fill="#54a24b" opacity="0.5"/><path d="M99.61323628049718,368h5v2.0667409058084445h-5Z" fill="#f58518" opacity="0.5"/><path d="M235.58255796183525,394.34314575050763h5v5.656854249492369h-5Z" fill="#e45756" opacity="0.5"/><path d="M-27.29146395541837,378.09109769979335h5v1.5128242458355317h-5Z" fill="#72b7b2" opacity="0.5"/><path d="M8.967021826271786,371.7157287525381h5v1.1549513149608401h-5Z" fill="#9d755d" opacity="0.5"/><path d="M63.35475049880701,392h5v2.343145750507631h-5Z" fill="#bab0ac" opacity="0.5"/><path d="M407.81036542486345,374.701778718653h5v0.6405652694710966h-5Z" fill="#eeca3b" opacity="0.5"/><path d="M416.874986870286,392h5v8h-5Z" fill="#ff9da6" opacity="0.5"/><path d="M335.2933938614832,373.4670016771568h5v1.8753423109672553h-5Z" fill="#ff9da6" opacity="0.5"/><path d="M-18.22684250999583,378.09109769979335h5v1.5128242458355317h-5Z" fill="#72b7b2" opacity="0.5"/><path d="M371.5518796431733,364.67295653468864h5v0.4558519169859778h-5Z" fill="#9d755d" opacity="0.5"/><path d="M99.61323628049718,370.6061230866019h5v0.5494667096861576h-5Z" fill="#eeca3b" opacity="0.5"/><path d="M54.290129053384476,390.2020410288673h5v9.797958971132687h-5Z" fill="#f58518" opacity="0.5"/><path d="M262.7764222981029,355.1001113587127h5v0.357773738647154h-5Z" fill="#9d755d" opacity="0.5"/><path d="M199.3240721801451,392h5v8h-5Z" fill="#ff9da6" opacity="0.5"/><path d="M-0.09759961915075355,385.03337045290425h5v1.1102230865447495h-5Z" fill="#b279a2" opacity="0.5"/><path d="M697.8782516783847,387.3508893593265h5v1.3354021416887463h-5Z" fill="#72b7b2" opacity="0.5"/><path d="M253.7118008526803,340.13348181161695h5v0.267860485377696h-5Z" fill="#4c78a8" opacity="0.5"/><path d="M317.16415097063805,388.68629150101526h5v11.313708498984738h-5Z" fill="#e45756" opacity="0.5"/><path d="M63.35475049880701,380.40408205773457h5v2.625355193788323h-5Z" fill="#54a24b" opacity="0.5"/><path d="M525.6504442153564,367.0151549950587h5v0.9848450049412918h-5Z" fill="#4c78a8" opacity="0.5"/><path d="M199.3240721801451,388.68629150101526h5v1.5157495278520514h-5Z" fill="#f58518" opacity="0.5"/><path d="M226.5179365164127,356.5488780351991h5v0.7428089566756739h-5Z" fill="#9d755d" opacity="0.5"/><path d="M90.54861483507463,387.3508893593265h5v6.992256391181115h-5Z" fill="#f58518" opacity="0.5"/><path d="M525.6504442153564,374.701778718653h5v4.1322107928302785h-5Z" fill="#ff9da6" opacity="0.5"/><path d="M18.03164327169432,388.68629150101526h5v1.5157495278520514h-5Z" fill="#bab0ac" opacity="0.5"/><path d="M552.8443085516241,394.34314575050763h5v5.656854249492369h-5Z" fill="#f58518" opacity="0.5"/><path d="M480.32733698824376,336.5019685344498h5v0.25247826218259206h-5Z" fill="#54a24b" opacity="0.5"/><path d="M616.2966586695818,380.40408205773457h5v0.8342549029717361h-5Z" fill="#4c78a8" opacity="0.5"/><path d="M190.25945073472255,365.1288084516746h5v0.4618904801548638h-5Z" fill="#e45756" opacity="0.5"/><path d="M99.61323628049718,392h5v2.343145750507631h-5Z" fill="#e45756" opacity="0.5"/><path d="M416.874986870286,388.68629150101526h5v1.5157495278520514h-5Z" fill="#4c78a8" opacity="0.5"/><path d="M407.81036542486345,371.7157287525381h5v0.5714583263598456h-5Z" fill="#e45756" opacity="0.5"/><path d="M154.0009649530324,344.57437415779594h5v0.5803890389956905h-5Z" fill="#72b7b2" opacity="0.5"/><path d="M190.25945073472255,365.5906989318295h5v1.913147449626706h-5Z" fill="#72b7b2" opacity="0.5"/><path d="M289.9702866343705,380.40408205773457h5v2.625355193788323h-5Z" fill="#72b7b2" opacity="0.5"/><path d="M8.967021826271786,363.77845944745036h5v1.350349004224256h-5Z" fill="#eeca3b" opacity="0.5"/><path d="M72.41937194422955,330.48741121206893h5v0.46188278140277816h-5Z" fill="#54a24b" opacity="0.5"/><path d="M45.22550760796194,359.2078438912577h5v0.3941363552939947h-5Z" fill="#54a24b" opacity="0.5"/><path d="M-36.35608540084091,383.0294372515229h5v0.9705627484771071h-5Z" fill="#72b7b2" opacity="0.5"/><path d="M371.5518796431733,341.2122461732037h5v0.5468747125521531h-5Z" fill="#4c78a8" opacity="0.5"/><path d="M-0.09759961915075355,394.34314575050763h5v5.656854249492369h-5Z" fill="#e45756" opacity="0.5"/><path d="M444.0688512065536,379.6039219456289h5v0.8001601121056865h-5Z" fill="#54a24b" opacity="0.5"/><path d="M435.00422976113106,342.0344930152423h5v0.5547066071284235h-5Z" fill="#4c78a8" opacity="0.5"/><path d="M54.290129053384476,381.2383369607063h5v0.873119219295404h-5Z" fill="#f58518" opacity="0.5"/><path d="M81.48399338965208,373.4670016771568h5v0.610035529211757h-5Z" fill="#4c78a8" opacity="0.5"/><path d="M63.35475049880701,379.6039219456289h5v0.8001601121056865h-5Z" fill="#72b7b2" opacity="0.5"/><path d="M108.67785772591971,381.2383369607063h5v0.873119219295404h-5Z" fill="#f58518" opacity="0.5"/><path d="M54.290129053384476,388.68629150101526h5v1.5157495278520514h-5Z" fill="#bab0ac" opacity="0.5"/><path d="M63.35475049880701,394.34314575050763h5v5.656854249492369h-5Z" fill="#f58518" opacity="0.5"/><path d="M616.2966586695818,388.68629150101526h5v3.313708498984738h-5Z" fill="#9d755d" opacity="0.5"/><path d="M752.2659803509199,388.68629150101526h5v3.313708498984738h-5Z" fill="#72b7b2" opacity="0.5"/><path d="M-54.48532829168598,392h5v2.343145750507631h-5Z" fill="#f58518" opacity="0.5"/><path d="M335.2933938614832,394.34314575050763h5v5.656854249492369h-5Z" fill="#72b7b2" opacity="0.5"/><path d="M407.81036542486345,375.34234398812407h5v2.030239013906396h-5Z" fill="#b279a2" opacity="0.5"/><path d="M181.1948292893,392h5v8h-5Z" fill="#f58518" opacity="0.5"/><path d="M280.9056651889479,365.5906989318295h5v0.46817557121624986h-5Z" fill="#4c78a8" opacity="0.5"/><path d="M570.9735514424692,394.34314575050763h5v5.656854249492369h-5Z" fill="#72b7b2" opacity="0.5"/><path d="M335.2933938614832,392h5v2.343145750507631h-5Z" fill="#e45756" opacity="0.5"/><path d="M362.48725819775075,394.34314575050763h5v5.656854249492369h-5Z" fill="#72b7b2" opacity="0.5"/><path d="M90.54861483507463,383.0294372515229h5v0.9705627484771071h-5Z" fill="#b279a2" opacity="0.5"/><path d="M190.25945073472255,367.5038463814562h5v0.4961536185438149h-5Z" fill="#54a24b" opacity="0.5"/><path d="M289.9702866343705,383.0294372515229h5v0.9705627484771071h-5Z" fill="#b279a2" opacity="0.5"/><path d="M144.93634350760985,390.2020410288673h5v4.141104721640318h-5Z" fill="#f58518" opacity="0.5"/><path d="M-9.162221064573291,387.3508893593265h5v1.3354021416887463h-5Z" fill="#4c78a8" opacity="0.5"/><path d="M697.8782516783847,390.2020410288673h5v1.7979589711326867h-5Z" fill="#ff9da6" opacity="0.5"/><path d="M353.42263675232823,379.6039219456289h5v0.8001601121056865h-5Z" fill="#54a24b" opacity="0.5"/><path d="M435.00422976113106,392h5v2.343145750507631h-5Z" fill="#e45756" opacity="0.5"/><path d="M135.87172206218733,377.37258300203047h5v0.7185146977628847h-5Z" fill="#72b7b2" opacity="0.5"/><path d="M72.41937194422955,387.3508893593265h5v4.649110640673484h-5Z" fill="#e45756" opacity="0.5"/><path d="M289.9702866343705,384h5v1.0333704529042507h-5Z" fill="#ff9da6" opacity="0.5"/><path d="M570.9735514424692,388.68629150101526h5v5.656854249492369h-5Z" fill="#f58518" opacity="0.5"/><path d="M335.2933938614832,361.21856114066935h5v0.4147866728288818h-5Z" fill="#4c78a8" opacity="0.5"/><path d="M335.2933938614832,375.34234398812407h5v0.6576560118759289h-5Z" fill="#9d755d" opacity="0.5"/><path d="M453.13347265197615,387.3508893593265h5v2.8511516695407977h-5Z" fill="#f58518" opacity="0.5"/><path d="M81.48399338965208,394.34314575050763h5v5.656854249492369h-5Z" fill="#72b7b2" opacity="0.5"/><path d="M271.84104374352535,359.6019802465517h5v0.8000400070016553h-5Z" fill="#eeca3b" opacity="0.5"/><path d="M498.4565798790889,392h5v8h-5Z" fill="#bab0ac" opacity="0.5"/><path d="M752.2659803509199,394.34314575050763h5v5.656854249492369h-5Z" fill="#bab0ac" opacity="0.5"/><path d="M8.967021826271786,365.1288084516746h5v0.9300660513711136h-5Z" fill="#b279a2" opacity="0.5"/><path d="M543.7796871062015,394.34314575050763h5v5.656854249492369h-5Z" fill="#72b7b2" opacity="0.5"/><path d="M425.9396083157086,383.0294372515229h5v2.0039332013813578h-5Z" fill="#72b7b2" opacity="0.5"/><path d="M144.93634350760985,388.68629150101526h5v1.5157495278520514h-5Z" fill="#bab0ac" opacity="0.5"/><path d="M-54.48532829168598,394.34314575050763h5v5.656854249492369h-5Z" fill="#ff9da6" opacity="0.5"/><path d="M244.64717940725777,377.37258300203047h5v0.7185146977628847h-5Z" fill="#eeca3b" opacity="0.5"/><path d="M344.35801530690566,392h5v8h-5Z" fill="#72b7b2" opacity="0.5"/><path d="M353.42263675232823,378.83398951148325h5v0.7699324341456304h-5Z" fill="#72b7b2" opacity="0.5"/><path d="M661.6197658966945,390.2020410288673h5v4.141104721640318h-5Z" fill="#f58518" opacity="0.5"/><path d="M326.2287724160606,379.6039219456289h5v1.6344150150774226h-5Z" fill="#4c78a8" opacity="0.5"/><path d="M-9.162221064573291,375.34234398812407h5v0.6576560118759289h-5Z" fill="#eeca3b" opacity="0.5"/><path d="M217.45331507099016,388.68629150101526h5v1.5157495278520514h-5Z" fill="#72b7b2" opacity="0.5"/><path d="M8.967021826271786,363.3393944403533h5v0.4390650070970423h-5Z" fill="#54a24b" opacity="0.5"/><path d="M353.42263675232823,382.1114561800017h5v0.9179810715211829h-5Z" fill="#ff9da6" opacity="0.5"/><path d="M217.45331507099016,390.2020410288673h5v4.141104721640318h-5Z" fill="#ff9da6" opacity="0.5"/><path d="M525.6504442153564,374.0770372063686h5v0.6247415122844018h-5Z" fill="#54a24b" opacity="0.5"/><path d="M271.84104374352535,356.918681542924h5v0.7492974800425714h-5Z" fill="#e45756" opacity="0.5"/><path d="M199.3240721801451,390.2020410288673h5v1.7979589711326867h-5Z" fill="#72b7b2" opacity="0.5"/><path d="M117.74247917134225,331.414287202071h5v0.703461804020435h-5Z" fill="#4c78a8" opacity="0.5"/><path d="M833.8475733597227,375.34234398812407h5v1.333848432494733h-5Z" fill="#4c78a8" opacity="0.5"/><path d="M435.00422976113106,359.2078438912577h5v0.3941363552939947h-5Z" fill="#54a24b" opacity="0.5"/><path d="M163.06558639845494,313.8373630858479h5v0.1858958733333793h-5Z" fill="#54a24b" opacity="0.5"/><path d="M36.1608861625394,390.2020410288673h5v1.7979589711326867h-5Z" fill="#ff9da6" opacity="0.5"/><path d="M353.42263675232823,394.34314575050763h5v5.656854249492369h-5Z" fill="#72b7b2" opacity="0.5"/><path d="M63.35475049880701,383.0294372515229h5v0.9705627484771071h-5Z" fill="#eeca3b" opacity="0.5"/><path d="M425.9396083157086,382.1114561800017h5v0.9179810715211829h-5Z" fill="#f58518" opacity="0.5"/><path d="M-45.42070684626344,386.143593539449h5v1.2072958198775154h-5Z" fill="#ff9da6" opacity="0.5"/><path d="M289.9702866343705,394.34314575050763h5v5.656854249492369h-5Z" fill="#f58518" opacity="0.5"/><path d="M90.54861483507463,394.34314575050763h5v5.656854249492369h-5Z" fill="#72b7b2" opacity="0.5"/><path d="M389.68112253401836,394.34314575050763h5v5.656854249492369h-5Z" fill="#72b7b2" opacity="0.5"/><path d="M18.03164327169432,394.34314575050763h5v5.656854249492369h-5Z" fill="#e45756" opacity="0.5"/><path d="M462.19809409739867,386.143593539449h5v1.2072958198775154h-5Z" fill="#f58518" opacity="0.5"/><path d="M235.58255796183525,376h5v0.6761924206188041h-5Z" fill="#eeca3b" opacity="0.5"/><path d="M661.6197658966945,373.4670016771568h5v0.610035529211757h-5Z" fill="#f58518" opacity="0.5"/><path d="M444.0688512065536,394.34314575050763h5v5.656854249492369h-5Z" fill="#f58518" opacity="0.5"/><path d="M135.87172206218733,386.143593539449h5v1.2072958198775154h-5Z" fill="#bab0ac" opacity="0.5"/><path d="M516.5858227699339,388.68629150101526h5v1.5157495278520514h-5Z" fill="#ff9da6" opacity="0.5"/></g><g class="mark-group role-legend" role="graphics-symbol" aria-roledescription="legend" aria-label="Symbol legend titled 'occupation' for fill color with 14 values:  ?,  Adm-clerical,  Craft-repair,  Exec-managerial,  Farming-fishing, ending with  Transport-moving"><g transform="translate(818,0)"><path class="background" aria-hidden="true" d="M0,0h98v196h-98Z" pointer-events="none"/><g><g class="mark-group role-legend-entry"><g transform="translate(0,16)"><path class="background" aria-hidden="true" d="M0,0h0v0h0Z" pointer-events="none"/><g><g class="mark-group role-scope" role="graphics-object" aria-roledescription="group mark container"><g transform="translate(0,0)"><path class="background" aria-hidden="true" d="M0,0h97.7041015625v11h-97.7041015625Z" pointer-events="none" opacity="1"/><g><g class="mark-symbol role-legend-symbol" pointer-events="none"><path transform="translate(6,6)" d="M-5,-5h10v10h-10Z" fill="#4c78a8" stroke-width="1.5" opacity="0.5"/></g><g class="mark-text role-legend-label" pointer-events="none"><text text-anchor="start" transform="translate(16,9)" font-family="sans-serif" font-size="10px" fill="#000" opacity="1">?</text></g></g><path class="foreground" aria-hidden="true" d="" pointer-events="none" display="none"/></g><g transform="translate(0,13)"><path class="background" aria-hidden="true" d="M0,0h97.7041015625v11h-97.7041015625Z" pointer-events="none" opacity="1"/><g><g class="mark-symbol role-legend-symbol" pointer-events="none"><path transform="translate(6,6)" d="M-5,-5h10v10h-10Z" fill="#f58518" stroke-width="1.5" opacity="0.5"/></g><g class="mark-text role-legend-label" pointer-events="none"><text text-anchor="start" transform="translate(16,9)" font-family="sans-serif" font-size="10px" fill="#000" opacity="1">Adm-clerical</text></g></g><path class="foreground" aria-hidden="true" d="" pointer-events="none" display="none"/></g><g transform="translate(0,26)"><path class="background" aria-hidden="true" d="M0,0h97.7041015625v11h-97.7041015625Z" pointer-events="none" opacity="1"/><g><g class="mark-symbol role-legend-symbol" pointer-events="none"><path transform="translate(6,6)" d="M-5,-5h10v10h-10Z" fill="#e45756" stroke-width="1.5" opacity="0.5"/></g><g class="mark-text role-legend-label" pointer-events="none"><text text-anchor="start" transform="translate(16,9)" font-family="sans-serif" font-size="10px" fill="#000" opacity="1">Craft-repair</text></g></g><path class="foreground" aria-hidden="true" d="" pointer-events="none" display="none"/></g><g transform="translate(0,39)"><path class="background" aria-hidden="true" d="M0,0h97.7041015625v11h-97.7041015625Z" pointer-events="none" opacity="1"/><g><g class="mark-symbol role-legend-symbol" pointer-events="none"><path transform="translate(6,6)" d="M-5,-5h10v10h-10Z" fill="#72b7b2" stroke-width="1.5" opacity="0.5"/></g><g class="mark-text role-legend-label" pointer-events="none"><text text-anchor="start" transform="translate(16,9)" font-family="sans-serif" font-size="10px" fill="#000" opacity="1">Exec-managerial</text></g></g><path class="foreground" aria-hidden="true" d="" pointer-events="none" display="none"/></g><g transform="translate(0,52)"><path class="background" aria-hidden="true" d="M0,0h97.7041015625v11h-97.7041015625Z" pointer-events="none" opacity="1"/><g><g class="mark-symbol role-legend-symbol" pointer-events="none"><path transform="translate(6,6)" d="M-5,-5h10v10h-10Z" fill="#54a24b" stroke-width="1.5" opacity="0.5"/></g><g class="mark-text role-legend-label" pointer-events="none"><text text-anchor="start" transform="translate(16,9)" font-family="sans-serif" font-size="10px" fill="#000" opacity="1">Farming-fishing</text></g></g><path class="foreground" aria-hidden="true" d="" pointer-events="none" display="none"/></g><g transform="translate(0,65)"><path class="background" aria-hidden="true" d="M0,0h97.7041015625v11h-97.7041015625Z" pointer-events="none" opacity="1"/><g><g class="mark-symbol role-legend-symbol" pointer-events="none"><path transform="translate(6,6)" d="M-5,-5h10v10h-10Z" fill="#eeca3b" stroke-width="1.5" opacity="0.5"/></g><g class="mark-text role-legend-label" pointer-events="none"><text text-anchor="start" transform="translate(16,9)" font-family="sans-serif" font-size="10px" fill="#000" opacity="1">Handlers-cleaners</text></g></g><path class="foreground" aria-hidden="true" d="" pointer-events="none" display="none"/></g><g transform="translate(0,78)"><path class="background" aria-hidden="true" d="M0,0h97.7041015625v11h-97.7041015625Z" pointer-events="none" opacity="1"/><g><g class="mark-symbol role-legend-symbol" pointer-events="none"><path transform="translate(6,6)" d="M-5,-5h10v10h-10Z" fill="#b279a2" stroke-width="1.5" opacity="0.5"/></g><g class="mark-text role-legend-label" pointer-events="none"><text text-anchor="start" transform="translate(16,9)" font-family="sans-serif" font-size="10px" fill="#000" opacity="1">Machine-op-inspct</text></g></g><path class="foreground" aria-hidden="true" d="" pointer-events="none" display="none"/></g><g transform="translate(0,91)"><path class="background" aria-hidden="true" d="M0,0h97.7041015625v11h-97.7041015625Z" pointer-events="none" opacity="1"/><g><g class="mark-symbol role-legend-symbol" pointer-events="none"><path transform="translate(6,6)" d="M-5,-5h10v10h-10Z" fill="#ff9da6" stroke-width="1.5" opacity="0.5"/></g><g class="mark-text role-legend-label" pointer-events="none"><text text-anchor="start" transform="translate(16,9)" font-family="sans-serif" font-size="10px" fill="#000" opacity="1">Other-service</text></g></g><path class="foreground" aria-hidden="true" d="" pointer-events="none" display="none"/></g><g transform="translate(0,104)"><path class="background" aria-hidden="true" d="M0,0h97.7041015625v11h-97.7041015625Z" pointer-events="none" opacity="1"/><g><g class="mark-symbol role-legend-symbol" pointer-events="none"><path transform="translate(6,6)" d="M-5,-5h10v10h-10Z" fill="#9d755d" stroke-width="1.5" opacity="0.5"/></g><g class="mark-text role-legend-label" pointer-events="none"><text text-anchor="start" transform="translate(16,9)" font-family="sans-serif" font-size="10px" fill="#000" opacity="1">Priv-house-serv</text></g></g><path class="foreground" aria-hidden="true" d="" pointer-events="none" display="none"/></g><g transform="translate(0,117)"><path class="background" aria-hidden="true" d="M0,0h97.7041015625v11h-97.7041015625Z" pointer-events="none" opacity="1"/><g><g class="mark-symbol role-legend-symbol" pointer-events="none"><path transform="translate(6,6)" d="M-5,-5h10v10h-10Z" fill="#bab0ac" stroke-width="1.5" opacity="0.5"/></g><g class="mark-text role-legend-label" pointer-events="none"><text text-anchor="start" transform="translate(16,9)" font-family="sans-serif" font-size="10px" fill="#000" opacity="1">Prof-specialty</text></g></g><path class="foreground" aria-hidden="true" d="" pointer-events="none" display="none"/></g><g transform="translate(0,130)"><path class="background" aria-hidden="true" d="M0,0h97.7041015625v11h-97.7041015625Z" pointer-events="none" opacity="1"/><g><g class="mark-symbol role-legend-symbol" pointer-events="none"><path transform="translate(6,6)" d="M-5,-5h10v10h-10Z" fill="#4c78a8" stroke-width="1.5" opacity="0.5"/></g><g class="mark-text role-legend-label" pointer-events="none"><text text-anchor="start" transform="translate(16,9)" font-family="sans-serif" font-size="10px" fill="#000" opacity="1">Protective-serv</text></g></g><path class="foreground" aria-hidden="true" d="" pointer-events="none" display="none"/></g><g transform="translate(0,143)"><path class="background" aria-hidden="true" d="M0,0h97.7041015625v11h-97.7041015625Z" pointer-events="none" opacity="1"/><g><g class="mark-symbol role-legend-symbol" pointer-events="none"><path transform="translate(6,6)" d="M-5,-5h10v10h-10Z" fill="#f58518" stroke-width="1.5" opacity="0.5"/></g><g class="mark-text role-legend-label" pointer-events="none"><text text-anchor="start" transform="translate(16,9)" font-family="sans-serif" font-size="10px" fill="#000" opacity="1">Sales</text></g></g><path class="foreground" aria-hidden="true" d="" pointer-events="none" display="none"/></g><g transform="translate(0,156)"><path class="background" aria-hidden="true" d="M0,0h97.7041015625v11h-97.7041015625Z" pointer-events="none" opacity="1"/><g><g class="mark-symbol role-legend-symbol" pointer-events="none"><path transform="translate(6,6)" d="M-5,-5h10v10h-10Z" fill="#e45756" stroke-width="1.5" opacity="0.5"/></g><g class="mark-text role-legend-label" pointer-events="none"><text text-anchor="start" transform="translate(16,9)" font-family="sans-serif" font-size="10px" fill="#000" opacity="1">Tech-support</text></g></g><path class="foreground" aria-hidden="true" d="" pointer-events="none" display="none"/></g><g transform="translate(0,169)"><path class="background" aria-hidden="true" d="M0,0h97.7041015625v11h-97.7041015625Z" pointer-events="none" opacity="1"/><g><g class="mark-symbol role-legend-symbol" pointer-events="none"><path transform="translate(6,6)" d="M-5,-5h10v10h-10Z" fill="#72b7b2" stroke-width="1.5" opacity="0.5"/></g><g class="mark-text role-legend-label" pointer-events="none"><text text-anchor="start" transform="translate(16,9)" font-family="sans-serif" font-size="10px" fill="#000" opacity="1">Transport-moving</text></g></g><path class="foreground" aria-hidden="true" d="" pointer-events="none" display="none"/></g></g></g><path class="foreground" aria-hidden="true" d="" pointer-events="none" display="none"/></g></g><g class="mark-text role-legend-title" pointer-events="none"><text text-anchor="start" transform="translate(0,9)" font-family="sans-serif" font-size="11px" font-weight="bold" fill="#000" opacity="1">occupation</text></g></g><path class="foreground" aria-hidden="true" d="" pointer-events="none" display="none"/></g></g><g class="mark-group role-title"><g transform="translate(400,-22)"><path class="background" aria-hidden="true" d="M0,0h0v0h0Z" pointer-events="none"/><g><g class="mark-text role-title-text" role="graphics-symbol" aria-roledescription="title" aria-label="Title text 'Jobs vs. Working Hours'" pointer-events="none"><text text-anchor="middle" transform="translate(0,10)" font-family="sans-serif" font-size="13px" font-weight="bold" fill="#000" opacity="1">Jobs vs. Working Hours</text></g></g><path class="foreground" aria-hidden="true" d="" pointer-events="none" display="none"/></g></g></g><path class="foreground" aria-hidden="true" d="" display="none"/></g></g></g><defs><clipPath id="clip1"><rect x="0" y="0" width="800" height="400"/></clipPath></defs></svg>