<svg xmlns="http://www.w3.org/2000/svg" xmlns:xlink="http://www.w3.org/1999/xlink" version="1.1" class="marks" width="974" height="464" viewBox="0 0 974 464"><rect width="974" height="464" fill="white"/><g fill="none" stroke-miterlimit="10" transform="translate(53,27)"><g class="mark-group role-frame root" role="graphics-object" aria-roledescription="group mark container"><g transform="translate(0,0)"><path class="background" aria-hidden="true" d="M0.5,0.5h800v400h-800Z" stroke="#ddd"/><g><g class="mark-group role-axis" role="graphics-symbol" aria-roledescription="axis" aria-label="X-axis for a linear scale with values from 0 to 100"><g transform="translate(0.5,400.5)"><path class="background" aria-hidden="true" d="M0,0h0v0h0Z" pointer-events="none"/><g><g class="mark-rule role-axis-grid" pointer-events="none"><line transform="translate(78,-400)" x2="0" y2="400" stroke="#ddd" stroke-width="1" opacity="1"/><line transform="translate(158,-400)" x2="0" y2="400" stroke="#ddd" stroke-width="1" opacity="1"/><line transform="translate(238,-400)" x2="0" y2="400" stroke="#ddd" stroke-width="1" opacity="1"/><line transform="translate(318,-400)" x2="0" y2="400" stroke="#ddd" stroke-width="1" opacity="1"/><line transform="translate(398,-400)" x2="0" y2="400" stroke="#ddd" stroke-width="1" opacity="1"/><line transform="translate(478,-400)" x2="0" y2="400" stroke="#ddd" stroke-width="1" opacity="1"/><line transform="translate(558,-400)" x2="0" y2="400" stroke="#ddd" stroke-width="1" opacity="1"/><line transform="translate(638,-400)" x2="0" y2="400" stroke="#ddd" stroke-width="1" opacity="1"/><line transform="translate(718,-400)" x2="0" y2="400" stroke="#ddd" stroke-width="1" opacity="1"/><line transform="translate(118,-400)" x2="0" y2="400" stroke="#ddd" stroke-width="1" opacity="1"/><line transform="translate(198,-400)" x2="0" y2="400" stroke="#ddd" stroke-width="1" opacity="1"/><line transform="translate(278,-400)" x2="0" y2="400" stroke="#ddd" stroke-width="1" opacity="1"/><line transform="translate(358,-400)" x2="0" y2="400" stroke="#ddd" stroke-width="1" opacity="1"/><line transform="translate(438,-400)" x2="0" y2="400" stroke="#ddd" stroke-width="1" opacity="1"/><line transform="translate(518,-400)" x2="0" y2="400" stroke="#ddd" stroke-width="1" opacity="1"/><line transform="translate(598,-400)" x2="0" y2="400" stroke="#ddd" stroke-width="1" opacity="1"/><line transform="translate(678,-400)" x2="0" y2="400" stroke="#ddd" stroke-width="1" opacity="1"/><line transform="translate(758,-400)" x2="0" y2="400" stroke="#ddd" stroke-width="1" opacity="1"/><line transform="translate(38,-400)" x2="0" y2="400" stroke="#ddd" stroke-width="1" opacity="1"/><line transform="translate(798,-400)" x2="0" y2="400" stroke="#ddd" stroke-width="1" opacity="1"/></g></g><path class="foreground" aria-hidden="true" d="" pointer-events="none" display="none"/></g></g><g class="mark-group role-axis" role="graphics-symbol" aria-roledescription="axis" aria-label="Y-axis for a sqrt scale with values from 0 to 1,800"><g transform="translate(0.5,0.5)"><path class="background" aria-hidden="true" d="M0,0h0v0h0Z" pointer-events="none"/><g><g class="mark-rule role-axis-grid" pointer-events="none"><line transform="translate(0,400)" x2="800" y2="0" stroke="#ddd" stroke-width="1" opacity="1"/><line transform="translate(0,267)" x2="800" y2="0" stroke="#ddd" stroke-width="1" opacity="1"/><line transform="translate(0,211)" x2="800" y2="0" stroke="#ddd" stroke-width="1" opacity="1"/><line transform="translate(0,169)" x2="800" y2="0" stroke="#ddd" stroke-width="1" opacity="1"/><line transform="translate(0,133)" x2="800" y2="0" stroke="#ddd" stroke-width="1" opacity="1"/><line transform="translate(0,102)" x2="800" y2="0" stroke="#ddd" stroke-width="1" opacity="1"/><line transform="translate(0,73)" x2="800" y2="0" stroke="#ddd" stroke-width="1" opacity="1"/><line transform="translate(0,47)" x2="800" y2="0" stroke="#ddd" stroke-width="1" opacity="1"/><line transform="translate(0,23)" x2="800" y2="0" stroke="#ddd" stroke-width="1" opacity="1"/><line transform="translate(0,0)" x2="800" y2="0" stroke="#ddd" stroke-width="1" opacity="1"/></g></g><path class="foreground" aria-hidden="true" d="" pointer-events="none" display="none"/></g></g><g class="mark-group role-axis" role="graphics-symbol" aria-roledescription="axis" aria-label="X-axis titled 'Hour' for a linear scale with values from 0 to 100"><g transform="translate(0.5,400.5)"><path class="background" aria-hidden="true" d="M0,0h0v0h0Z" pointer-events="none"/><g><g class="mark-rule role-axis-tick" pointer-events="none"><line transform="translate(78,0)" x2="0" y2="5" stroke="#888" stroke-width="1" opacity="1"/><line transform="translate(158,0)" x2="0" y2="5" stroke="#888" stroke-width="1" opacity="1"/><line transform="translate(238,0)" x2="0" y2="5" stroke="#888" stroke-width="1" opacity="1"/><line transform="translate(318,0)" x2="0" y2="5" stroke="#888" stroke-width="1" opacity="1"/><line transform="translate(398,0)" x2="0" y2="5" stroke="#888" stroke-width="1" opacity="1"/><line transform="translate(478,0)" x2="0" y2="5" stroke="#888" stroke-width="1" opacity="1"/><line transform="translate(558,0)" x2="0" y2="5" stroke="#888" stroke-width="1" opacity="1"/><line transform="translate(638,0)" x2="0" y2="5" stroke="#888" stroke-width="1" opacity="1"/><line transform="translate(718,0)" x2="0" y2="5" stroke="#888" stroke-width="1" opacity="1"/><line transform="translate(118,0)" x2="0" y2="5" stroke="#888" stroke-width="1" opacity="1"/><line transform="translate(198,0)" x2="0" y2="5" stroke="#888" stroke-width="1" opacity="1"/><line transform="translate(278,0)" x2="0" y2="5" stroke="#888" stroke-width="1" opacity="1"/><line transform="translate(358,0)" x2="0" y2="5" stroke="#888" stroke-width="1" opacity="1"/><line transform="translate(438,0)" x2="0" y2="5" stroke="#888" stroke-width="1" opacity="1"/><line transform="translate(518,0)" x2="0" y2="5" stroke="#888" stroke-width="1" opacity="1"/><line transform="translate(598,0)" x2="0" y2="5" stroke="#888" stroke-width="1" opacity="1"/><line transform="translate(678,0)" x2="0" y2="5" stroke="#888" stroke-width="1" opacity="1"/><line transform="translate(758,0)" x2="0" y2="5" stroke="#888" stroke-width="1" opacity="1"/><line transform="translate(38,0)" x2="0" y2="5" stroke="#888" stroke-width="1" opacity="1"/><line transform="translate(798,0)" x2="0" y2="5" stroke="#888" stroke-width="1" opacity="1"/></g><g class="mark-text role-axis-label" pointer-events="none"><text text-anchor="middle" transform="translate(77.90488963636942,15)" font-family="sans-serif" font-size="10px" fill="#000" opacity="1">10</text><text text-anchor="middle" transform="translate(157.90488963636952,15)" font-family="sans-serif" font-size="10px" fill="#000" opacity="1">20</text><text text-anchor="middle" transform="translate(237.90488963636957,15)" font-family="sans-serif" font-size="10px" fill="#000" opacity="1">30</text><text text-anchor="middle" transform="translate(317.9048896363697,15)" font-family="sans-serif" font-size="10px" fill="#000" opacity="1">40</text><text text-anchor="middle" transform="translate(397.9048896363698,15)" font-family="sans-serif" font-size="10px" fill="#000" opacity="1">50</text><text text-anchor="middle" transform="translate(477.90488963636983,15)" font-family="sans-serif" font-size="10px" fill="#000" opacity="1">60</text><text text-anchor="middle" transform="translate(557.90488963637,15)" font-family="sans-serif" font-size="10px" fill="#000" opacity="1">70</text><text text-anchor="middle" transform="translate(637.90488963637,15)" font-family="sans-serif" font-size="10px" fill="#000" opacity="1">80</text><text text-anchor="middle" transform="translate(717.9048896363701,15)" font-family="sans-serif" font-size="10px" fill="#000" opacity="1">90</text><text text-anchor="middle" transform="translate(117.90488963636945,15)" font-family="sans-serif" font-size="10px" fill="#000" opacity="1">15</text><text text-anchor="middle" transform="translate(197.90488963636955,15)" font-family="sans-serif" font-size="10px" fill="#000" opacity="1">25</text><text text-anchor="middle" transform="translate(277.90488963636966,15)" font-family="sans-serif" font-size="10px" fill="#000" opacity="1">35</text><text text-anchor="middle" transform="translate(357.9048896363697,15)" font-family="sans-serif" font-size="10px" fill="#000" opacity="1">45</text><text text-anchor="middle" transform="translate(437.9048896363698,15)" font-family="sans-serif" font-size="10px" fill="#000" opacity="1">55</text><text text-anchor="middle" transform="translate(517.9048896363698,15)" font-family="sans-serif" font-size="10px" fill="#000" opacity="1">65</text><text text-anchor="middle" transform="translate(597.90488963637,15)" font-family="sans-serif" font-size="10px" fill="#000" opacity="1">75</text><text text-anchor="middle" transform="translate(677.9048896363701,15)" font-family="sans-serif" font-size="10px" fill="#000" opacity="1">85</text><text text-anchor="middle" transform="translate(757.9048896363701,15)" font-family="sans-serif" font-size="10px" fill="#000" opacity="1">95</text><text text-anchor="middle" transform="translate(37.90488963636936,15)" font-family="sans-serif" font-size="10px" fill="#000" opacity="1">5</text><text text-anchor="middle" transform="translate(797.9048896363702,15)" font-family="sans-serif" font-size="10px" fill="#000" opacity="1">100</text></g><g class="mark-rule role-axis-domain" pointer-events="none"><line transform="translate(0,0)" x2="800" y2="0" stroke="#888" stroke-width="1" opacity="1"/></g><g class="mark-text role-axis-title" pointer-events="none"><text text-anchor="middle" transform="translate(400,30)" font-family="sans-serif" font-size="11px" font-weight="bold" fill="#000" opacity="1">Hour</text></g></g><path class="foreground" aria-hidden="true" d="" pointer-events="none" display="none"/></g></g><g class="mark-group role-axis" role="graphics-symbol" aria-roledescription="axis" aria-label="Y-axis titled 'Amount of Woman' for a sqrt scale with values from 0 to 1,800"><g transform="translate(0.5,0.5)"><path class="background" aria-hidden="true" d="M0,0h0v0h0Z" pointer-events="none"/><g><g class="mark-rule role-axis-tick" pointer-events="none"><line transform="translate(0,400)" x2="-5" y2="0" stroke="#888" stroke-width="1" opacity="1"/><line transform="translate(0,267)" x2="-5" y2="0" stroke="#888" stroke-width="1" opacity="1"/><line transform="translate(0,211)" x2="-5" y2="0" stroke="#888" stroke-width="1" opacity="1"/><line transform="translate(0,169)" x2="-5" y2="0" stroke="#888" stroke-width="1" opacity="1"/><line transform="translate(0,133)" x2="-5" y2="0" stroke="#888" stroke-width="1" opacity="1"/><line transform="translate(0,102)" x2="-5" y2="0" stroke="#888" stroke-width="1" opacity="1"/><line transform="translate(0,73)" x2="-5" y2="0" stroke="#888" stroke-width="1" opacity="1"/><line transform="translate(0,47)" x2="-5" y2="0" stroke="#888" stroke-width="1" opacity="1"/><line transform="translate(0,23)" x2="-5" y2="0" stroke="#888" stroke-width="1" opacity="1"/><line transform="translate(0,0)" x2="-5" y2="0" stroke="#888" stroke-width="1" opacity="1"/></g><g class="mark-text role-axis-label" pointer-events="none"><text text-anchor="end" transform="translate(-7,403)" font-family="sans-serif" font-size="10px" fill="#000" opacity="1">0</text><text text-anchor="end" transform="translate(-7,269.6666666666667)" font-family="sans-serif" font-size="10px" fill="#000" opacity="1">200</text><text text-anchor="end" transform="translate(-7,214.43819168358732)" font-family="sans-serif" font-size="10px" fill="#000" opacity="1">400</text><text text-anchor="end" transform="translate(-7,172.0598923241497)" font-family="sans-serif" font-size="10px" fill="#000" opacity="1">600</text><text text-anchor="end" transform="translate(-7,136.33333333333334)" font-family="sans-serif" font-size="10px" fill="#000" opacity="1">800</text><text text-anchor="end" transform="translate(-7,104.85760300002804)" font-family="sans-serif" font-size="10px" fill="#000" opacity="1">1,000</text><text text-anchor="end" transform="translate(-7,76.40136762890958)" font-family="sans-serif" font-size="10px" fill="#000" opacity="1">1,200</text><text text-anchor="end" transform="translate(-7,50.233158524721254)" font-family="sans-serif" font-size="10px" fill="#000" opacity="1">1,400</text><text text-anchor="end" transform="translate(-7,25.876383367174657)" font-family="sans-serif" font-size="10px" fill="#000" opacity="1">1,600</text><text text-anchor="end" transform="translate(-7,3)" font-family="sans-serif" font-size="10px" fill="#000" opacity="1">1,800</text></g><g class="mark-rule role-axis-domain" pointer-events="none"><line transform="translate(0,400)" x2="0" y2="-400" stroke="#888" stroke-width="1" opacity="1"/></g><g class="mark-text role-axis-title" pointer-events="none"><text text-anchor="middle" transform="translate(-36.0244140625,200) rotate(-90) translate(0,-2)" font-family="sans-serif" font-size="11px" font-weight="bold" fill="#000" opacity="1">Amount of Woman</text></g></g><path class="foreground" aria-hidden="true" d="" pointer-events="none" display="none"/></g></g><g class="mark-rect role-mark marks" clip-path="url(#clip1)" role="graphics-symbol" aria-roledescription="rect mark container"><path d="M123.40488963636946,334.68027352578196h5v23.156024338639668h-5Z" fill="#f58518" opacity="0.5"/><path d="M155.40488963636952,238.61708750786397h5v50.22736582191561h-5Z" fill="#f58518" opacity="0.5"/><path d="M315.4048896363697,271.0728026279086h5v128.92719737209143h-5Z" fill="#72b7b2" opacity="0.5"/><path d="M235.40488963636957,249.44546945818385h5v57.22119720848278h-5Z" fill="#f58518" opacity="0.5"/><path d="M315.4048896363697,167.33428844513134h5v103.73851418277724h-5Z" fill="#e45756" opacity="0.5"/><path d="M171.40488963636952,368.7305616011771h5v12.413257567181631h-5Z" fill="#f58518" opacity="0.5"/><path d="M315.4048896363697,68.67270293895528h5v98.66158550617605h-5Z" fill="#f58518" opacity="0.5"/><path d="M275.40488963636966,302.9318681429264h5v61.79144770954571h-5Z" fill="#e45756" opacity="0.5"/><path d="M195.40488963636955,268.0067341785111h5v3.0660684493974486h-5Z" fill="#4c78a8" opacity="0.5"/><path d="M195.40488963636955,312.56748634264h5v60.76584699069332h-5Z" fill="#e45756" opacity="0.5"/><path d="M315.4048896363697,21.58224143151002h5v47.09046150744526h-5Z" fill="#4c78a8" opacity="0.5"/><path d="M475.40488963636983,346.6666666666667h5v37.00340171477882h-5Z" fill="#e45756" opacity="0.5"/><path d="M283.40488963636966,366.0065365760481h5v33.99346342395188h-5Z" fill="#72b7b2" opacity="0.5"/><path d="M187.40488963636955,322.8277539813985h5v30.031793939498357h-5Z" fill="#f58518" opacity="0.5"/><path d="M219.40488963636957,352.85954792089683h5v1.9249188582680858h-5Z" fill="#4c78a8" opacity="0.5"/><path d="M91.40488963636943,362.28763833671746h5v28.284271247461902h-5Z" fill="#e45756" opacity="0.5"/><path d="M275.40488963636966,244.79404364236242h5v4.946920763175655h-5Z" fill="#4c78a8" opacity="0.5"/><path d="M299.40488963636966,345.8397439690936h5v22.890817632083497h-5Z" fill="#e45756" opacity="0.5"/><path d="M267.4048896363696,367.34013676289095h5v19.326529903775736h-5Z" fill="#f58518" opacity="0.5"/><path d="M379.4048896363698,334.68027352578196h5v10.34498479931591h-5Z" fill="#4c78a8" opacity="0.5"/><path d="M355.4048896363697,332.66996707758614h5v34.67016968530481h-5Z" fill="#e45756" opacity="0.5"/><path d="M195.40488963636955,271.0728026279086h5v41.49468371473142h-5Z" fill="#f58518" opacity="0.5"/><path d="M115.40488963636945,332.66996707758614h5v51.00010130385937h-5Z" fill="#e45756" opacity="0.5"/><path d="M275.40488963636966,249.74096440553808h5v53.19090373738834h-5Z" fill="#f58518" opacity="0.5"/><path d="M507.4048896363699,383.6700683814455h5v16.329931618554497h-5Z" fill="#72b7b2" opacity="0.5"/><path d="M147.4048896363695,371.7157287525381h5v14.950937914128588h-5Z" fill="#f58518" opacity="0.5"/><path d="M155.40488963636952,363.4851628329889h5v36.51483716701108h-5Z" fill="#72b7b2" opacity="0.5"/><path d="M123.40488963636946,375.055617421507h5v24.94438257849299h-5Z" fill="#72b7b2" opacity="0.5"/><path d="M331.4048896363697,358.9039066468735h5v4.581256186115411h-5Z" fill="#f58518" opacity="0.5"/><path d="M363.4048896363697,376.905989232415h5v4.237829935943751h-5Z" fill="#4c78a8" opacity="0.5"/><path d="M59.40488963636939,356.7950620106143h5v13.390698289388524h-5Z" fill="#f58518" opacity="0.5"/><path d="M251.4048896363696,376.905989232415h5v23.09401076758502h-5Z" fill="#72b7b2" opacity="0.5"/><path d="M187.40488963636955,352.85954792089683h5v20.473785412436484h-5Z" fill="#e45756" opacity="0.5"/><path d="M163.40488963636952,371.7157287525381h5v14.950937914128588h-5Z" fill="#f58518" opacity="0.5"/><path d="M155.40488963636952,288.8444533297796h5v74.64070950320934h-5Z" fill="#e45756" opacity="0.5"/><path d="M107.40488963636945,375.055617421507h5v15.516292162672357h-5Z" fill="#f58518" opacity="0.5"/><path d="M251.4048896363696,317.26884236006094h5v2.731157639939056h-5Z" fill="#4c78a8" opacity="0.5"/><path d="M355.4048896363697,310.55728090000844h5v5.115314828834812h-5Z" fill="#4c78a8" opacity="0.5"/><path d="M115.40488963636945,300.6689038283244h5v32.00106324926173h-5Z" fill="#f58518" opacity="0.5"/><path d="M283.40488963636966,354.7844667791649h5v11.222069796883204h-5Z" fill="#e45756" opacity="0.5"/><path d="M139.4048896363695,356.7950620106143h5v9.211474565433832h-5Z" fill="#f58518" opacity="0.5"/><path d="M235.40488963636957,306.66666666666663h5v65.04906208587147h-5Z" fill="#e45756" opacity="0.5"/><path d="M395.4048896363698,323.40583137949295h5v42.60070519655517h-5Z" fill="#e45756" opacity="0.5"/><path d="M187.40488963636955,373.3333333333333h5v26.666666666666686h-5Z" fill="#72b7b2" opacity="0.5"/><path d="M331.4048896363697,352.85954792089683h5v6.044358725976679h-5Z" fill="#4c78a8" opacity="0.5"/><path d="M435.4048896363698,366.0065365760481h5v24.565373008131246h-5Z" fill="#e45756" opacity="0.5"/><path d="M283.40488963636966,337.46112320235426h5v17.323343576810657h-5Z" fill="#f58518" opacity="0.5"/><path d="M595.40488963637,376.905989232415h5v13.665920351764385h-5Z" fill="#f58518" opacity="0.5"/><path d="M187.40488963636955,320.55749808124676h5v2.27025590015171h-5Z" fill="#4c78a8" opacity="0.5"/><path d="M395.4048896363698,302.0204102886729h5v21.385421090820046h-5Z" fill="#f58518" opacity="0.5"/><path d="M355.4048896363697,367.34013676289095h5v32.65986323710905h-5Z" fill="#72b7b2" opacity="0.5"/><path d="M299.40488963636966,310.55728090000844h5v5.644018500148036h-5Z" fill="#4c78a8" opacity="0.5"/><path d="M331.4048896363697,363.4851628329889h5v17.658656335369812h-5Z" fill="#e45756" opacity="0.5"/><path d="M355.4048896363697,315.67259572884325h5v16.997371348742888h-5Z" fill="#f58518" opacity="0.5"/><path d="M275.40488963636966,364.7233158524721h5v35.276684147527874h-5Z" fill="#72b7b2" opacity="0.5"/><path d="M251.4048896363696,320h5v31.010205144336453h-5Z" fill="#f58518" opacity="0.5"/><path d="M291.40488963636966,383.6700683814455h5v16.329931618554497h-5Z" fill="#72b7b2" opacity="0.5"/><path d="M475.40488963636983,383.6700683814455h5v16.329931618554497h-5Z" fill="#72b7b2" opacity="0.5"/><path d="M291.40488963636966,348.3602220505678h5v15.124940782421106h-5Z" fill="#f58518" opacity="0.5"/><path d="M635.40488963637,370.1857603000028h5v13.484308081442691h-5Z" fill="#f58518" opacity="0.5"/><path d="M379.4048896363698,345.02525832509787h5v10.753077803496808h-5Z" fill="#f58518" opacity="0.5"/><path d="M515.4048896363698,378.9181489322108h5v21.081851067789216h-5Z" fill="#e45756" opacity="0.5"/><path d="M411.4048896363698,378.9181489322108h5v11.653760651968582h-5Z" fill="#e45756" opacity="0.5"/><path d="M379.4048896363698,355.7783361285947h5v27.89173225285083h-5Z" fill="#e45756" opacity="0.5"/><path d="M299.40488963636966,316.2012994001565h5v29.638444568937132h-5Z" fill="#f58518" opacity="0.5"/><path d="M91.40488963636943,341.121594224481h5v21.166044112236477h-5Z" fill="#f58518" opacity="0.5"/><path d="M75.40488963636942,337.46112320235426h5v21.44278344451925h-5Z" fill="#f58518" opacity="0.5"/><path d="M379.4048896363698,383.6700683814455h5v16.329931618554497h-5Z" fill="#72b7b2" opacity="0.5"/><path d="M75.40488963636942,375.055617421507h5v24.94438257849299h-5Z" fill="#72b7b2" opacity="0.5"/><path d="M219.40488963636957,354.7844667791649h5v20.271150642342093h-5Z" fill="#f58518" opacity="0.5"/><path d="M291.40488963636966,363.4851628329889h5v20.184905548456584h-5Z" fill="#e45756" opacity="0.5"/><path d="M75.40488963636942,358.9039066468735h5v16.1517107746335h-5Z" fill="#e45756" opacity="0.5"/><path d="M347.4048896363697,371.7157287525381h5v18.856180831641268h-5Z" fill="#e45756" opacity="0.5"/><path d="M435.4048896363698,355.7783361285947h5v4.221663871405326h-5Z" fill="#4c78a8" opacity="0.5"/><path d="M427.4048896363698,381.14381916835873h5v18.856180831641268h-5Z" fill="#e45756" opacity="0.5"/><path d="M83.40488963636942,386.6666666666667h5v3.9052429175126804h-5Z" fill="#4c78a8" opacity="0.5"/><path d="M235.40488963636957,371.7157287525381h5v28.284271247461902h-5Z" fill="#72b7b2" opacity="0.5"/><path d="M411.4048896363698,390.57190958417937h5v9.428090415820634h-5Z" fill="#72b7b2" opacity="0.5"/><path d="M251.4048896363696,351.01020514433645h5v25.89578408807853h-5Z" fill="#e45756" opacity="0.5"/><path d="M443.40488963636983,373.3333333333333h5v7.810485835025418h-5Z" fill="#4c78a8" opacity="0.5"/><path d="M235.40488963636957,244.22238072602772h5v5.223088732156128h-5Z" fill="#4c78a8" opacity="0.5"/><path d="M475.40488963636983,332.66996707758614h5v13.99669958908055h-5Z" fill="#f58518" opacity="0.5"/><path d="M219.40488963636957,375.055617421507h5v24.94438257849299h-5Z" fill="#e45756" opacity="0.5"/><path d="M371.4048896363697,375.055617421507h5v6.088201746851723h-5Z" fill="#f58518" opacity="0.5"/><path d="M395.4048896363698,366.0065365760481h5v33.99346342395188h-5Z" fill="#72b7b2" opacity="0.5"/><path d="M155.40488963636952,235.3454795302871h5v3.2716079775768776h-5Z" fill="#4c78a8" opacity="0.5"/><path d="M387.4048896363698,386.6666666666667h5v3.9052429175126804h-5Z" fill="#f58518" opacity="0.5"/><path d="M75.40488963636942,334.00336708925556h5v3.4577561130986965h-5Z" fill="#4c78a8" opacity="0.5"/><path d="M35.40488963636936,381.14381916835873h5v18.856180831641268h-5Z" fill="#e45756" opacity="0.5"/><path d="M195.40488963636955,373.3333333333333h5v26.666666666666686h-5Z" fill="#72b7b2" opacity="0.5"/><path d="M163.40488963636952,370.1857603000028h5v1.529968452535286h-5Z" fill="#4c78a8" opacity="0.5"/><path d="M115.40488963636945,298.8949940793127h5v1.7739097490116933h-5Z" fill="#4c78a8" opacity="0.5"/><path d="M91.40488963636943,390.57190958417937h5v9.428090415820634h-5Z" fill="#72b7b2" opacity="0.5"/><path d="M299.40488963636966,368.7305616011771h5v31.2694383988229h-5Z" fill="#72b7b2" opacity="0.5"/><path d="M371.4048896363697,381.14381916835873h5v9.428090415820634h-5Z" fill="#e45756" opacity="0.5"/><path d="M123.40488963636946,357.8362978644216h5v17.219319557085385h-5Z" fill="#e45756" opacity="0.5"/><path d="M411.4048896363698,367.34013676289095h5v11.578012169319834h-5Z" fill="#f58518" opacity="0.5"/><path d="M339.4048896363697,368.7305616011771h5v14.939506780268403h-5Z" fill="#e45756" opacity="0.5"/><path d="M59.40488963636939,370.1857603000028h5v29.814239699997188h-5Z" fill="#e45756" opacity="0.5"/><path d="M259.4048896363696,370.1857603000028h5v20.386149284176554h-5Z" fill="#e45756" opacity="0.5"/><path d="M123.40488963636946,333.33333333333337h5v1.346940192448585h-5Z" fill="#4c78a8" opacity="0.5"/><path d="M19.404889636369344,376.905989232415h5v6.764079149030522h-5Z" fill="#f58518" opacity="0.5"/><path d="M211.40488963636955,376.905989232415h5v9.760677434251704h-5Z" fill="#f58518" opacity="0.5"/><path d="M291.40488963636966,345.02525832509787h5v3.3349637254699473h-5Z" fill="#4c78a8" opacity="0.5"/><path d="M139.4048896363695,366.0065365760481h5v24.565373008131246h-5Z" fill="#e45756" opacity="0.5"/><path d="M179.40488963636952,390.57190958417937h5v9.428090415820634h-5Z" fill="#72b7b2" opacity="0.5"/><path d="M67.40488963636939,376.905989232415h5v6.764079149030522h-5Z" fill="#f58518" opacity="0.5"/><path d="M27.404889636369354,375.055617421507h5v11.611049245159677h-5Z" fill="#f58518" opacity="0.5"/><path d="M179.40488963636952,368.7305616011771h5v14.939506780268403h-5Z" fill="#f58518" opacity="0.5"/><path d="M99.40488963636943,373.3333333333333h5v10.336735048112189h-5Z" fill="#f58518" opacity="0.5"/><path d="M283.40488963636966,334.00336708925556h5v3.4577561130986965h-5Z" fill="#4c78a8" opacity="0.5"/><path d="M555.40488963637,370.1857603000028h5v4.869857121504197h-5Z" fill="#4c78a8" opacity="0.5"/><path d="M203.40488963636955,390.57190958417937h5v9.428090415820634h-5Z" fill="#72b7b2" opacity="0.5"/><path d="M363.4048896363697,383.6700683814455h5v16.329931618554497h-5Z" fill="#e45756" opacity="0.5"/><path d="M43.404889636369376,381.14381916835873h5v18.856180831641268h-5Z" fill="#e45756" opacity="0.5"/><path d="M475.40488963636983,330.0794101219899h5v2.5905569555962416h-5Z" fill="#4c78a8" opacity="0.5"/><path d="M395.4048896363698,298.01960972814425h5v4.00080056052866h-5Z" fill="#4c78a8" opacity="0.5"/><path d="M339.4048896363697,383.6700683814455h5v16.329931618554497h-5Z" fill="#72b7b2" opacity="0.5"/><path d="M635.40488963637,368.7305616011771h5v1.4551986988257113h-5Z" fill="#4c78a8" opacity="0.5"/><path d="M595.40488963637,390.57190958417937h5v9.428090415820634h-5Z" fill="#72b7b2" opacity="0.5"/><path d="M203.40488963636955,378.9181489322108h5v11.653760651968582h-5Z" fill="#e45756" opacity="0.5"/><path d="M787.4048896363702,373.3333333333333h5v26.666666666666686h-5Z" fill="#f58518" opacity="0.5"/><path d="M571.40488963637,375.055617421507h5v1.8503718109079728h-5Z" fill="#4c78a8" opacity="0.5"/><path d="M323.4048896363697,383.6700683814455h5v16.329931618554497h-5Z" fill="#f58518" opacity="0.5"/><path d="M171.40488963636952,381.14381916835873h5v18.856180831641268h-5Z" fill="#e45756" opacity="0.5"/><path d="M635.40488963637,390.57190958417937h5v9.428090415820634h-5Z" fill="#72b7b2" opacity="0.5"/><path d="M347.4048896363697,362.28763833671746h5v5.052498426173486h-5Z" fill="#4c78a8" opacity="0.5"/><path d="M555.40488963637,375.055617421507h5v8.614450959938495h-5Z" fill="#f58518" opacity="0.5"/><path d="M131.40488963636946,375.055617421507h5v6.088201746851723h-5Z" fill="#f58518" opacity="0.5"/><path d="M203.40488963636955,371.7157287525381h5v7.202420179672686h-5Z" fill="#f58518" opacity="0.5"/><path d="M371.4048896363697,390.57190958417937h5v9.428090415820634h-5Z" fill="#72b7b2" opacity="0.5"/><path d="M523.4048896363698,390.57190958417937h5v9.428090415820634h-5Z" fill="#f58518" opacity="0.5"/><path d="M43.404889636369376,368.7305616011771h5v12.413257567181631h-5Z" fill="#f58518" opacity="0.5"/><path d="M507.4048896363699,378.9181489322108h5v2.2256702361479483h-5Z" fill="#4c78a8" opacity="0.5"/><path d="M435.4048896363698,360h5v6.00653657604812h-5Z" fill="#f58518" opacity="0.5"/><path d="M443.40488963636983,381.14381916835873h5v9.428090415820634h-5Z" fill="#f58518" opacity="0.5"/><path d="M147.4048896363695,386.6666666666667h5v13.333333333333314h-5Z" fill="#e45756" opacity="0.5"/><path d="M571.40488963637,383.6700683814455h5v2.9965982852211823h-5Z" fill="#e45756" opacity="0.5"/><path d="M51.40488963636938,376.905989232415h5v13.665920351764385h-5Z" fill="#f58518" opacity="0.5"/><path d="M259.4048896363696,366.0065365760481h5v4.179223723954692h-5Z" fill="#f58518" opacity="0.5"/><path d="M715.4048896363701,390.57190958417937h5v9.428090415820634h-5Z" fill="#f58518" opacity="0.5"/><path d="M571.40488963637,386.6666666666667h5v13.333333333333314h-5Z" fill="#72b7b2" opacity="0.5"/><path d="M67.40488963636939,383.6700683814455h5v6.901841202733863h-5Z" fill="#e45756" opacity="0.5"/><path d="M571.40488963637,376.905989232415h5v6.764079149030522h-5Z" fill="#f58518" opacity="0.5"/><path d="M267.4048896363696,363.4851628329889h5v3.8549739299020302h-5Z" fill="#4c78a8" opacity="0.5"/><path d="M163.40488963636952,386.6666666666667h5v13.333333333333314h-5Z" fill="#e45756" opacity="0.5"/><path d="M387.4048896363698,390.57190958417937h5v9.428090415820634h-5Z" fill="#e45756" opacity="0.5"/><path d="M459.40488963636983,390.57190958417937h5v9.428090415820634h-5Z" fill="#e45756" opacity="0.5"/><path d="M267.4048896363696,386.6666666666667h5v13.333333333333314h-5Z" fill="#e45756" opacity="0.5"/><path d="M19.404889636369344,383.6700683814455h5v6.901841202733863h-5Z" fill="#e45756" opacity="0.5"/><path d="M339.4048896363697,367.34013676289095h5v1.390424838286151h-5Z" fill="#f58518" opacity="0.5"/><path d="M459.40488963636983,386.6666666666667h5v3.9052429175126804h-5Z" fill="#f58518" opacity="0.5"/><path d="M35.40488963636936,371.7157287525381h5v9.428090415820634h-5Z" fill="#f58518" opacity="0.5"/><path d="M667.4048896363701,386.6666666666667h5v13.333333333333314h-5Z" fill="#e45756" opacity="0.5"/><path d="M27.404889636369354,386.6666666666667h5v13.333333333333314h-5Z" fill="#e45756" opacity="0.5"/><path d="M643.40488963637,390.57190958417937h5v9.428090415820634h-5Z" fill="#f58518" opacity="0.5"/><path d="M19.404889636369344,390.57190958417937h5v9.428090415820634h-5Z" fill="#72b7b2" opacity="0.5"/><path d="M259.4048896363696,390.57190958417937h5v9.428090415820634h-5Z" fill="#72b7b2" opacity="0.5"/><path d="M419.4048896363698,386.6666666666667h5v13.333333333333314h-5Z" fill="#f58518" opacity="0.5"/><path d="M347.4048896363697,367.34013676289095h5v4.375591989647148h-5Z" fill="#f58518" opacity="0.5"/><path d="M99.40488963636943,383.6700683814455h5v16.329931618554497h-5Z" fill="#e45756" opacity="0.5"/><path d="M227.40488963636957,386.6666666666667h5v13.333333333333314h-5Z" fill="#f58518" opacity="0.5"/><path d="M51.40488963636938,375.055617421507h5v1.8503718109079728h-5Z" fill="#4c78a8" opacity="0.5"/><path d="M331.4048896363697,381.14381916835873h5v18.856180831641268h-5Z" fill="#72b7b2" opacity="0.5"/><path d="M131.40488963636946,381.14381916835873h5v18.856180831641268h-5Z" fill="#e45756" opacity="0.5"/><path d="M515.4048896363698,368.7305616011771h5v10.187587331033683h-5Z" fill="#f58518" opacity="0.5"/><path d="M139.4048896363695,390.57190958417937h5v9.428090415820634h-5Z" fill="#72b7b2" opacity="0.5"/><path d="M51.40488963636938,390.57190958417937h5v9.428090415820634h-5Z" fill="#72b7b2" opacity="0.5"/><path d="M107.40488963636945,390.57190958417937h5v9.428090415820634h-5Z" fill="#e45756" opacity="0.5"/><path d="M411.4048896363698,363.4851628329889h5v3.8549739299020302h-5Z" fill="#4c78a8" opacity="0.5"/><path d="M211.40488963636955,386.6666666666667h5v13.333333333333314h-5Z" fill="#e45756" opacity="0.5"/><path d="M347.4048896363697,390.57190958417937h5v9.428090415820634h-5Z" fill="#72b7b2" opacity="0.5"/><path d="M131.40488963636946,373.3333333333333h5v1.7222840881736943h-5Z" fill="#4c78a8" opacity="0.5"/><path d="M307.40488963636966,383.6700683814455h5v2.9965982852211823h-5Z" fill="#4c78a8" opacity="0.5"/><path d="M179.40488963636952,383.6700683814455h5v6.901841202733863h-5Z" fill="#e45756" opacity="0.5"/><path d="M667.4048896363701,383.6700683814455h5v2.9965982852211823h-5Z" fill="#f58518" opacity="0.5"/><path d="M435.4048896363698,390.57190958417937h5v9.428090415820634h-5Z" fill="#72b7b2" opacity="0.5"/><path d="M115.40488963636945,383.6700683814455h5v16.329931618554497h-5Z" fill="#72b7b2" opacity="0.5"/><path d="M307.40488963636966,386.6666666666667h5v3.9052429175126804h-5Z" fill="#f58518" opacity="0.5"/><path d="M555.40488963637,383.6700683814455h5v16.329931618554497h-5Z" fill="#e45756" opacity="0.5"/><path d="M59.40488963636939,354.7844667791649h5v2.010595231449372h-5Z" fill="#4c78a8" opacity="0.5"/><path d="M3.404889636369325,390.57190958417937h5v9.428090415820634h-5Z" fill="#f58518" opacity="0.5"/><path d="M635.40488963637,383.6700683814455h5v6.901841202733863h-5Z" fill="#e45756" opacity="0.5"/><path d="M363.4048896363697,381.14381916835873h5v2.5262492130867713h-5Z" fill="#f58518" opacity="0.5"/><path d="M243.40488963636957,386.6666666666667h5v13.333333333333314h-5Z" fill="#f58518" opacity="0.5"/><path d="M83.40488963636942,390.57190958417937h5v9.428090415820634h-5Z" fill="#f58518" opacity="0.5"/><path d="M11.404889636369337,390.57190958417937h5v9.428090415820634h-5Z" fill="#f58518" opacity="0.5"/><path d="M307.40488963636966,390.57190958417937h5v9.428090415820634h-5Z" fill="#e45756" opacity="0.5"/><path d="M67.40488963636939,390.57190958417937h5v9.428090415820634h-5Z" fill="#72b7b2" opacity="0.5"/><path d="M443.40488963636983,390.57190958417937h5v9.428090415820634h-5Z" fill="#e45756" opacity="0.5"/><path d="M507.4048896363699,381.14381916835873h5v2.5262492130867713h-5Z" fill="#f58518" opacity="0.5"/></g><g class="mark-group role-legend" role="graphics-symbol" aria-roledescription="legend" aria-label="Symbol legend titled 'occupation' for fill color with 4 values:  Machine-op-inspct,  Other-service,  Sales,  Tech-support"><g transform="translate(818,0)"><path class="background" aria-hidden="true" d="M0,0h98v66h-98Z" pointer-events="none"/><g><g class="mark-group role-legend-entry"><g transform="translate(0,16)"><path class="background" aria-hidden="true" d="M0,0h0v0h0Z" pointer-events="none"/><g><g class="mark-group role-scope" role="graphics-object" aria-roledescription="group mark container"><g transform="translate(0,0)"><path class="background" aria-hidden="true" d="M0,0h97.7041015625v11h-97.7041015625Z" pointer-events="none" opacity="1"/><g><g class="mark-symbol role-legend-symbol" pointer-events="none"><path transform="translate(6,6)" d="M-5,-5h10v10h-10Z" fill="#4c78a8" stroke-width="1.5" opacity="0.5"/></g><g class="mark-text role-legend-label" pointer-events="none"><text text-anchor="start" transform="translate(16,9)" font-family="sans-serif" font-size="10px" fill="#000" opacity="1">Machine-op-inspct</text></g></g><path class="foreground" aria-hidden="true" d="" pointer-events="none" display="none"/></g><g transform="translate(0,13)"><path class="background" aria-hidden="true" d="M0,0h97.7041015625v11h-97.7041015625Z" pointer-events="none" opacity="1"/><g><g class="mark-symbol role-legend-symbol" pointer-events="none"><path transform="translate(6,6)" d="M-5,-5h10v10h-10Z" fill="#f58518" stroke-width="1.5" opacity="0.5"/></g><g class="mark-text role-legend-label" pointer-events="none"><text text-anchor="start" transform="translate(16,9)" font-family="sans-serif" font-size="10px" fill="#000" opacity="1">Other-service</text></g></g><path class="foreground" aria-hidden="true" d="" pointer-events="none" display="none"/></g><g transform="translate(0,26)"><path class="background" aria-hidden="true" d="M0,0h97.7041015625v11h-97.7041015625Z" pointer-events="none" opacity="1"/><g><g class="mark-symbol role-legend-symbol" pointer-events="none"><path transform="translate(6,6)" d="M-5,-5h10v10h-10Z" fill="#e45756" stroke-width="1.5" opacity="0.5"/></g><g class="mark-text role-legend-label" pointer-events="none"><text text-anchor="start" transform="translate(16,9)" font-family="sans-serif" font-size="10px" fill="#000" opacity="1">Sales</text></g></g><path class="foreground" aria-hidden="true" d="" pointer-events="none" display="none"/></g><g transform="translate(0,39)"><path class="background" aria-hidden="true" d="M0,0h97.7041015625v11h-97.7041015625Z" pointer-events="none" opacity="1"/><g><g class="mark-symbol role-legend-symbol" pointer-events="none"><path transform="translate(6,6)" d="M-5,-5h10v10h-10Z" fill="#72b7b2" stroke-width="1.5" opacity="0.5"/></g><g class="mark-text role-legend-label" pointer-events="none"><text text-anchor="start" transform="translate(16,9)" font-family="sans-serif" font-size="10px" fill="#000" opacity="1">Tech-support</text></g></g><path class="foreground" aria-hidden="true" d="" pointer-events="none" display="none"/></g></g></g><path class="foreground" aria-hidden="true" d="" pointer-events="none" display="none"/></g></g><g class="mark-text role-legend-title" pointer-events="none"><text text-anchor="start" transform="translate(0,9)" font-family="sans-serif" font-size="11px" font-weight="bold" fill="#000" opacity="1">occupation</text></g></g><path class="foreground" aria-hidden="true" d="" pointer-events="none" display="none"/></g></g><g class="mark-group role-title"><g transform="translate(400,-22)"><path class="background" aria-hidden="true" d="M0,0h0v0h0Z" pointer-events="none"/><g><g class="mark-text role-title-text" role="graphics-symbol" aria-roledescription="title" aria-label="Title text 'Jobs vs. Working Hours'" pointer-events="none"><text text-anchor="middle" transform="translate(0,10)" font-family="sans-serif" font-size="13px" font-weight="bold" fill="#000" opacity="1">Jobs vs. Working Hours</text></g></g><path class="foreground" aria-hidden="true" d="" pointer-events="none" display="none"/></g></g></g><path class="foreground" aria-hidden="true" d="" display="none"/></g></g></g><defs><clipPath id="clip1"><rect x="0" y="0" width="800" height="400"/></clipPath></defs></svg>