<svg xmlns="http://www.w3.org/2000/svg" xmlns:xlink="http://www.w3.org/1999/xlink" version="1.1" class="marks" width="859" height="464" viewBox="0 0 859 464"><rect width="859" height="464" fill="white"/><g fill="none" stroke-miterlimit="10" transform="translate(53,27)"><g class="mark-group role-frame root" role="graphics-object" aria-roledescription="group mark container"><g transform="translate(0,0)"><path class="background" aria-hidden="true" d="M0.5,0.5h800v400h-800Z" stroke="#ddd"/><g><g class="mark-group role-axis" role="graphics-symbol" aria-roledescription="axis" aria-label="X-axis for a linear scale with values from 0 to 100"><g transform="translate(0.5,400.5)"><path class="background" aria-hidden="true" d="M0,0h0v0h0Z" pointer-events="none"/><g><g class="mark-rule role-axis-grid" pointer-events="none"><line transform="translate(0,-400)" x2="0" y2="400" stroke="#ddd" stroke-width="1" opacity="1"/><line transform="translate(40,-400)" x2="0" y2="400" stroke="#ddd" stroke-width="1" opacity="1"/><line transform="translate(80,-400)" x2="0" y2="400" stroke="#ddd" stroke-width="1" opacity="1"/><line transform="translate(120,-400)" x2="0" y2="400" stroke="#ddd" stroke-width="1" opacity="1"/><line transform="translate(160,-400)" x2="0" y2="400" stroke="#ddd" stroke-width="1" opacity="1"/><line transform="translate(200,-400)" x2="0" y2="400" stroke="#ddd" stroke-width="1" opacity="1"/><line transform="translate(240,-400)" x2="0" y2="400" stroke="#ddd" stroke-width="1" opacity="1"/><line transform="translate(280,-400)" x2="0" y2="400" stroke="#ddd" stroke-width="1" opacity="1"/><line transform="translate(320,-400)" x2="0" y2="400" stroke="#ddd" stroke-width="1" opacity="1"/><line transform="translate(360,-400)" x2="0" y2="400" stroke="#ddd" stroke-width="1" opacity="1"/><line transform="translate(400,-400)" x2="0" y2="400" stroke="#ddd" stroke-width="1" opacity="1"/><line transform="translate(440,-400)" x2="0" y2="400" stroke="#ddd" stroke-width="1" opacity="1"/><line transform="translate(480,-400)" x2="0" y2="400" stroke="#ddd" stroke-width="1" opacity="1"/><line transform="translate(520,-400)" x2="0" y2="400" stroke="#ddd" stroke-width="1" opacity="1"/><line transform="translate(560,-400)" x2="0" y2="400" stroke="#ddd" stroke-width="1" opacity="1"/><line transform="translate(600,-400)" x2="0" y2="400" stroke="#ddd" stroke-width="1" opacity="1"/><line transform="translate(640,-400)" x2="0" y2="400" stroke="#ddd" stroke-width="1" opacity="1"/><line transform="translate(680,-400)" x2="0" y2="400" stroke="#ddd" stroke-width="1" opacity="1"/><line transform="translate(720,-400)" x2="0" y2="400" stroke="#ddd" stroke-width="1" opacity="1"/><line transform="translate(760,-400)" x2="0" y2="400" stroke="#ddd" stroke-width="1" opacity="1"/><line transform="translate(800,-400)" x2="0" y2="400" stroke="#ddd" stroke-width="1" opacity="1"/></g></g><path class="foreground" aria-hidden="true" d="" pointer-events="none" display="none"/></g></g><g class="mark-group role-axis" role="graphics-symbol" aria-roledescription="axis" aria-label="Y-axis for a linear scale with values from 0 to 5,000"><g transform="translate(0.5,0.5)"><path class="background" aria-hidden="true" d="M0,0h0v0h0Z" pointer-events="none"/><g><g class="mark-rule role-axis-grid" pointer-events="none"><line transform="translate(0,400)" x2="800" y2="0" stroke="#ddd" stroke-width="1" opacity="1"/><line transform="translate(0,360)" x2="800" y2="0" stroke="#ddd" stroke-width="1" opacity="1"/><line transform="translate(0,320)" x2="800" y2="0" stroke="#ddd" stroke-width="1" opacity="1"/><line transform="translate(0,280)" x2="800" y2="0" stroke="#ddd" stroke-width="1" opacity="1"/><line transform="translate(0,240)" x2="800" y2="0" stroke="#ddd" stroke-width="1" opacity="1"/><line transform="translate(0,200)" x2="800" y2="0" stroke="#ddd" stroke-width="1" opacity="1"/><line transform="translate(0,160)" x2="800" y2="0" stroke="#ddd" stroke-width="1" opacity="1"/><line transform="translate(0,120)" x2="800" y2="0" stroke="#ddd" stroke-width="1" opacity="1"/><line transform="translate(0,80)" x2="800" y2="0" stroke="#ddd" stroke-width="1" opacity="1"/><line transform="translate(0,40)" x2="800" y2="0" stroke="#ddd" stroke-width="1" opacity="1"/><line transform="translate(0,0)" x2="800" y2="0" stroke="#ddd" stroke-width="1" opacity="1"/></g></g><path class="foreground" aria-hidden="true" d="" pointer-events="none" display="none"/></g></g><g class="mark-group role-axis" role="graphics-symbol" aria-roledescription="axis" aria-label="X-axis titled 'Working Hours per Week' for a linear scale with values from 0 to 100"><g transform="translate(0.5,400.5)"><path class="background" aria-hidden="true" d="M0,0h0v0h0Z" pointer-events="none"/><g><g class="mark-rule role-axis-tick" pointer-events="none"><line transform="translate(0,0)" x2="0" y2="5" stroke="#888" stroke-width="1" opacity="1"/><line transform="translate(40,0)" x2="0" y2="5" stroke="#888" stroke-width="1" opacity="1"/><line transform="translate(80,0)" x2="0" y2="5" stroke="#888" stroke-width="1" opacity="1"/><line transform="translate(120,0)" x2="0" y2="5" stroke="#888" stroke-width="1" opacity="1"/><line transform="translate(160,0)" x2="0" y2="5" stroke="#888" stroke-width="1" opacity="1"/><line transform="translate(200,0)" x2="0" y2="5" stroke="#888" stroke-width="1" opacity="1"/><line transform="translate(240,0)" x2="0" y2="5" stroke="#888" stroke-width="1" opacity="1"/><line transform="translate(280,0)" x2="0" y2="5" stroke="#888" stroke-width="1" opacity="1"/><line transform="translate(320,0)" x2="0" y2="5" stroke="#888" stroke-width="1" opacity="1"/><line transform="translate(360,0)" x2="0" y2="5" stroke="#888" stroke-width="1" opacity="1"/><line transform="translate(400,0)" x2="0" y2="5" stroke="#888" stroke-width="1" opacity="1"/><line transform="translate(440,0)" x2="0" y2="5" stroke="#888" stroke-width="1" opacity="1"/><line transform="translate(480,0)" x2="0" y2="5" stroke="#888" stroke-width="1" opacity="1"/><line transform="translate(520,0)" x2="0" y2="5" stroke="#888" stroke-width="1" opacity="1"/><line transform="translate(560,0)" x2="0" y2="5" stroke="#888" stroke-width="1" opacity="1"/><line transform="translate(600,0)" x2="0" y2="5" stroke="#888" stroke-width="1" opacity="1"/><line transform="translate(640,0)" x2="0" y2="5" stroke="#888" stroke-width="1" opacity="1"/><line transform="translate(680,0)" x2="0" y2="5" stroke="#888" stroke-width="1" opacity="1"/><line transform="translate(720,0)" x2="0" y2="5" stroke="#888" stroke-width="1" opacity="1"/><line transform="translate(760,0)" x2="0" y2="5" stroke="#888" stroke-width="1" opacity="1"/><line transform="translate(800,0)" x2="0" y2="5" stroke="#888" stroke-width="1" opacity="1"/></g><g class="mark-text role-axis-label" pointer-events="none"><text text-anchor="start" transform="translate(0,15)" font-family="sans-serif" font-size="10px" fill="#000" opacity="1">0</text><text text-anchor="middle" transform="translate(40,15)" font-family="sans-serif" font-size="10px" fill="#000" opacity="1">5</text><text text-anchor="middle" transform="translate(80,15)" font-family="sans-serif" font-size="10px" fill="#000" opacity="1">10</text><text text-anchor="middle" transform="translate(120,15)" font-family="sans-serif" font-size="10px" fill="#000" opacity="1">15</text><text text-anchor="middle" transform="translate(160,15)" font-family="sans-serif" font-size="10px" fill="#000" opacity="1">20</text><text text-anchor="middle" transform="translate(200,15)" font-family="sans-serif" font-size="10px" fill="#000" opacity="1">25</text><text text-anchor="middle" transform="translate(240,15)" font-family="sans-serif" font-size="10px" fill="#000" opacity="1">30</text><text text-anchor="middle" transform="translate(280,15)" font-family="sans-serif" font-size="10px" fill="#000" opacity="1">35</text><text text-anchor="middle" transform="translate(320,15)" font-family="sans-serif" font-size="10px" fill="#000" opacity="1">40</text><text text-anchor="middle" transform="translate(360,15)" font-family="sans-serif" font-size="10px" fill="#000" opacity="1">45</text><text text-anchor="middle" transform="translate(400,15)" font-family="sans-serif" font-size="10px" fill="#000" opacity="1">50</text><text text-anchor="middle" transform="translate(440.00000000000006,15)" font-family="sans-serif" font-size="10px" fill="#000" opacity="1">55</text><text text-anchor="middle" transform="translate(480,15)" font-family="sans-serif" font-size="10px" fill="#000" opacity="1">60</text><text text-anchor="middle" transform="translate(520,15)" font-family="sans-serif" font-size="10px" fill="#000" opacity="1">65</text><text text-anchor="middle" transform="translate(560,15)" font-family="sans-serif" font-size="10px" fill="#000" opacity="1">70</text><text text-anchor="middle" transform="translate(600,15)" font-family="sans-serif" font-size="10px" fill="#000" opacity="1">75</text><text text-anchor="middle" transform="translate(640,15)" font-family="sans-serif" font-size="10px" fill="#000" opacity="1">80</text><text text-anchor="middle" transform="translate(680,15)" font-family="sans-serif" font-size="10px" fill="#000" opacity="1">85</text><text text-anchor="middle" transform="translate(720,15)" font-family="sans-serif" font-size="10px" fill="#000" opacity="1">90</text><text text-anchor="middle" transform="translate(760,15)" font-family="sans-serif" font-size="10px" fill="#000" opacity="1">95</text><text text-anchor="end" transform="translate(800,15)" font-family="sans-serif" font-size="10px" fill="#000" opacity="1">100</text></g><g class="mark-rule role-axis-domain" pointer-events="none"><line transform="translate(0,0)" x2="800" y2="0" stroke="#888" stroke-width="1" opacity="1"/></g><g class="mark-text role-axis-title" pointer-events="none"><text text-anchor="middle" transform="translate(400,30)" font-family="sans-serif" font-size="11px" font-weight="bold" fill="#000" opacity="1">Working Hours per Week</text></g></g><path class="foreground" aria-hidden="true" d="" pointer-events="none" display="none"/></g></g><g class="mark-group role-axis" role="graphics-symbol" aria-roledescription="axis" aria-label="Y-axis titled 'Amount of Woman' for a linear scale with values from 0 to 5,000"><g transform="translate(0.5,0.5)"><path class="background" aria-hidden="true" d="M0,0h0v0h0Z" pointer-events="none"/><g><g class="mark-rule role-axis-tick" pointer-events="none"><line transform="translate(0,400)" x2="-5" y2="0" stroke="#888" stroke-width="1" opacity="1"/><line transform="translate(0,360)" x2="-5" y2="0" stroke="#888" stroke-width="1" opacity="1"/><line transform="translate(0,320)" x2="-5" y2="0" stroke="#888" stroke-width="1" opacity="1"/><line transform="translate(0,280)" x2="-5" y2="0" stroke="#888" stroke-width="1" opacity="1"/><line transform="translate(0,240)" x2="-5" y2="0" stroke="#888" stroke-width="1" opacity="1"/><line transform="translate(0,200)" x2="-5" y2="0" stroke="#888" stroke-width="1" opacity="1"/><line transform="translate(0,160)" x2="-5" y2="0" stroke="#888" stroke-width="1" opacity="1"/><line transform="translate(0,120)" x2="-5" y2="0" stroke="#888" stroke-width="1" opacity="1"/><line transform="translate(0,80)" x2="-5" y2="0" stroke="#888" stroke-width="1" opacity="1"/><line transform="translate(0,40)" x2="-5" y2="0" stroke="#888" stroke-width="1" opacity="1"/><line transform="translate(0,0)" x2="-5" y2="0" stroke="#888" stroke-width="1" opacity="1"/></g><g class="mark-text role-axis-label" pointer-events="none"><text text-anchor="end" transform="translate(-7,403)" font-family="sans-serif" font-size="10px" fill="#000" opacity="1">0</text><text text-anchor="end" transform="translate(-7,363)" font-family="sans-serif" font-size="10px" fill="#000" opacity="1">500</text><text text-anchor="end" transform="translate(-7,323)" font-family="sans-serif" font-size="10px" fill="#000" opacity="1">1,000</text><text text-anchor="end" transform="translate(-7,283)" font-family="sans-serif" font-size="10px" fill="#000" opacity="1">1,500</text><text text-anchor="end" transform="translate(-7,243)" font-family="sans-serif" font-size="10px" fill="#000" opacity="1">2,000</text><text text-anchor="end" transform="translate(-7,203)" font-family="sans-serif" font-size="10px" fill="#000" opacity="1">2,500</text><text text-anchor="end" transform="translate(-7,163)" font-family="sans-serif" font-size="10px" fill="#000" opacity="1">3,000</text><text text-anchor="end" transform="translate(-7,123.00000000000001)" font-family="sans-serif" font-size="10px" fill="#000" opacity="1">3,500</text><text text-anchor="end" transform="translate(-7,82.99999999999999)" font-family="sans-serif" font-size="10px" fill="#000" opacity="1">4,000</text><text text-anchor="end" transform="translate(-7,42.99999999999999)" font-family="sans-serif" font-size="10px" fill="#000" opacity="1">4,500</text><text text-anchor="end" transform="translate(-7,3)" font-family="sans-serif" font-size="10px" fill="#000" opacity="1">5,000</text></g><g class="mark-rule role-axis-domain" pointer-events="none"><line transform="translate(0,400)" x2="0" y2="-400" stroke="#888" stroke-width="1" opacity="1"/></g><g class="mark-text role-axis-title" pointer-events="none"><text text-anchor="middle" transform="translate(-36.0244140625,200) rotate(-90) translate(0,-2)" font-family="sans-serif" font-size="11px" font-weight="bold" fill="#000" opacity="1">Amount of Woman</text></g></g><path class="foreground" aria-hidden="true" d="" pointer-events="none" display="none"/></g></g><g class="mark-rect role-mark layer_0_marks" role="graphics-symbol" aria-roledescription="rect mark container"><path d="M317.5,6.239999999999979h5v393.76000000000005h-5Z" fill="#4c78a8"/><path d="M125.5,390.96000000000004h5v9.039999999999964h-5Z" fill="#4c78a8"/><path d="M397.5,362.8h5v37.19999999999999h-5Z" fill="#4c78a8"/><path d="M237.5,357.6h5v42.39999999999998h-5Z" fill="#4c78a8"/><path d="M357.5,368.64h5v31.360000000000014h-5Z" fill="#4c78a8"/><path d="M157.5,348.48h5v51.51999999999998h-5Z" fill="#4c78a8"/><path d="M197.5,370.71999999999997h5v29.28000000000003h-5Z" fill="#4c78a8"/><path d="M477.5,383.76h5v16.24000000000001h-5Z" fill="#4c78a8"/><path d="M173.5,398.24h5v1.759999999999991h-5Z" fill="#4c78a8"/><path d="M277.5,347.52h5v52.48000000000002h-5Z" fill="#4c78a8"/><path d="M253.5,387.12h5v12.879999999999995h-5Z" fill="#4c78a8"/><path d="M221.50000000000003,395.76h5v4.240000000000009h-5Z" fill="#4c78a8"/><path d="M285.5,389.44h5v10.560000000000002h-5Z" fill="#4c78a8"/><path d="M189.5,389.52h5v10.480000000000018h-5Z" fill="#4c78a8"/><path d="M301.5,378.08000000000004h5v21.91999999999996h-5Z" fill="#4c78a8"/><path d="M437.50000000000006,391.59999999999997h5v8.400000000000034h-5Z" fill="#4c78a8"/><path d="M93.5,392.56h5v7.439999999999998h-5Z" fill="#4c78a8"/><path d="M77.5,389.59999999999997h5v10.400000000000034h-5Z" fill="#4c78a8"/><path d="M269.5,398.4h5v1.6000000000000227h-5Z" fill="#4c78a8"/><path d="M381.5,391.36h5v8.639999999999986h-5Z" fill="#4c78a8"/><path d="M117.5,381.12h5v18.879999999999995h-5Z" fill="#4c78a8"/><path d="M333.5,395.2h5v4.800000000000011h-5Z" fill="#4c78a8"/><path d="M261.5,397.92h5v2.079999999999984h-5Z" fill="#4c78a8"/><path d="M45.5,397.52h5v2.480000000000018h-5Z" fill="#4c78a8"/><path d="M509.5,399.6h5v0.39999999999997726h-5Z" fill="#4c78a8"/><path d="M149.5,399.12h5v0.8799999999999955h-5Z" fill="#4c78a8"/><path d="M37.5,397.44h5v2.5600000000000023h-5Z" fill="#4c78a8"/><path d="M69.5,399.2h5v0.8000000000000114h-5Z" fill="#4c78a8"/><path d="M365.5,398.08h5v1.920000000000016h-5Z" fill="#4c78a8"/><path d="M61.5,393.76000000000005h5v6.239999999999952h-5Z" fill="#4c78a8"/><path d="M557.5,396.8h5v3.1999999999999886h-5Z" fill="#4c78a8"/><path d="M293.5,392.88h5v7.1200000000000045h-5Z" fill="#4c78a8"/><path d="M165.5,398.64000000000004h5v1.3599999999999568h-5Z" fill="#4c78a8"/><path d="M109.50000000000001,398.4h5v1.6000000000000227h-5Z" fill="#4c78a8"/><path d="M517.5,397.28h5v2.7200000000000273h-5Z" fill="#4c78a8"/><path d="M141.5,397.12h5v2.8799999999999955h-5Z" fill="#4c78a8"/><path d="M597.5,399.04h5v0.9599999999999795h-5Z" fill="#4c78a8"/><path d="M445.50000000000006,398.32h5v1.6800000000000068h-5Z" fill="#4c78a8"/><path d="M53.50000000000001,398.88h5v1.1200000000000045h-5Z" fill="#4c78a8"/><path d="M349.5,396.24h5v3.759999999999991h-5Z" fill="#4c78a8"/><path d="M309.5,398.24h5v1.759999999999991h-5Z" fill="#4c78a8"/><path d="M341.5,395.44h5v4.560000000000002h-5Z" fill="#4c78a8"/><path d="M325.5,399.28h5v0.7200000000000273h-5Z" fill="#4c78a8"/><path d="M5.5,399.2h5v0.8000000000000114h-5Z" fill="#4c78a8"/><path d="M637.5,398.08h5v1.920000000000016h-5Z" fill="#4c78a8"/><path d="M13.5,398.88h5v1.1200000000000045h-5Z" fill="#4c78a8"/><path d="M413.5,397.12h5v2.8799999999999955h-5Z" fill="#4c78a8"/><path d="M21.5,398.88h5v1.1200000000000045h-5Z" fill="#4c78a8"/><path d="M133.5,398.72h5v1.2799999999999727h-5Z" fill="#4c78a8"/><path d="M421.5,399.68h5v0.3199999999999932h-5Z" fill="#4c78a8"/><path d="M429.5,399.2h5v0.8000000000000114h-5Z" fill="#4c78a8"/><path d="M85.5,399.6h5v0.39999999999997726h-5Z" fill="#4c78a8"/><path d="M461.49999999999994,399.44h5v0.5600000000000023h-5Z" fill="#4c78a8"/><path d="M213.5,398.48h5v1.5199999999999818h-5Z" fill="#4c78a8"/><path d="M493.5,399.68h5v0.3199999999999932h-5Z" fill="#4c78a8"/><path d="M373.5,399.04h5v0.9599999999999795h-5Z" fill="#4c78a8"/><path d="M389.5,399.6h5v0.39999999999997726h-5Z" fill="#4c78a8"/><path d="M677.5,399.92h5v0.07999999999998408h-5Z" fill="#4c78a8"/><path d="M669.5,399.6h5v0.39999999999997726h-5Z" fill="#4c78a8"/><path d="M205.5,398.96h5v1.0400000000000205h-5Z" fill="#4c78a8"/><path d="M101.5,399.12h5v0.8799999999999955h-5Z" fill="#4c78a8"/><path d="M501.5,399.76h5v0.2400000000000091h-5Z" fill="#4c78a8"/><path d="M789.5,398.48h5v1.5199999999999818h-5Z" fill="#4c78a8"/><path d="M29.5,397.44h5v2.5600000000000023h-5Z" fill="#4c78a8"/><path d="M181.5,398.64000000000004h5v1.3599999999999568h-5Z" fill="#4c78a8"/><path d="M581.5,399.92h5v0.07999999999998408h-5Z" fill="#4c78a8"/><path d="M621.5,399.92h5v0.07999999999998408h-5Z" fill="#4c78a8"/><path d="M469.5,399.92h5v0.07999999999998408h-5Z" fill="#4c78a8"/><path d="M573.5,398.96h5v1.0400000000000205h-5Z" fill="#4c78a8"/><path d="M245.5,399.68h5v0.3199999999999932h-5Z" fill="#4c78a8"/><path d="M525.5,399.92h5v0.07999999999998408h-5Z" fill="#4c78a8"/><path d="M653.5,399.92h5v0.07999999999998408h-5Z" fill="#4c78a8"/><path d="M717.5,399.68h5v0.3199999999999932h-5Z" fill="#4c78a8"/><path d="M453.49999999999994,399.6h5v0.39999999999997726h-5Z" fill="#4c78a8"/><path d="M229.49999999999997,399.6h5v0.39999999999997726h-5Z" fill="#4c78a8"/><path d="M645.5,399.92h5v0.07999999999998408h-5Z" fill="#4c78a8"/><path d="M541.5,399.92h5v0.07999999999998408h-5Z" fill="#4c78a8"/><path d="M533.5,399.92h5v0.07999999999998408h-5Z" fill="#4c78a8"/></g><g class="mark-rect role-mark layer_1_marks" role="graphics-symbol" aria-roledescription="rect mark container"><path d="M317.5,6.239999999999979h5v393.76000000000005h-5Z" fill="orange"/><path d="M237.5,357.6h5v42.39999999999998h-5Z" fill="orange"/><path d="M157.5,348.48h5v51.51999999999998h-5Z" fill="orange"/><path d="M197.5,370.71999999999997h5v29.28000000000003h-5Z" fill="orange"/><path d="M173.5,398.24h5v1.759999999999991h-5Z" fill="orange"/><path d="M277.5,347.52h5v52.48000000000002h-5Z" fill="orange"/><path d="M253.5,387.12h5v12.879999999999995h-5Z" fill="orange"/><path d="M221.50000000000003,395.76h5v4.240000000000009h-5Z" fill="orange"/><path d="M285.5,389.44h5v10.560000000000002h-5Z" fill="orange"/><path d="M189.5,389.52h5v10.480000000000018h-5Z" fill="orange"/><path d="M301.5,378.08000000000004h5v21.91999999999996h-5Z" fill="orange"/><path d="M269.5,398.4h5v1.6000000000000227h-5Z" fill="orange"/><path d="M261.5,397.92h5v2.079999999999984h-5Z" fill="orange"/><path d="M293.5,392.88h5v7.1200000000000045h-5Z" fill="orange"/><path d="M165.5,398.64000000000004h5v1.3599999999999568h-5Z" fill="orange"/><path d="M309.5,398.24h5v1.759999999999991h-5Z" fill="orange"/><path d="M213.5,398.48h5v1.5199999999999818h-5Z" fill="orange"/><path d="M205.5,398.96h5v1.0400000000000205h-5Z" fill="orange"/><path d="M181.5,398.64000000000004h5v1.3599999999999568h-5Z" fill="orange"/><path d="M245.5,399.68h5v0.3199999999999932h-5Z" fill="orange"/><path d="M229.49999999999997,399.6h5v0.39999999999997726h-5Z" fill="orange"/></g><g class="mark-group role-title"><g transform="translate(400,-22)"><path class="background" aria-hidden="true" d="M0,0h0v0h0Z" pointer-events="none"/><g><g class="mark-text role-title-text" role="graphics-symbol" aria-roledescription="title" aria-label="Title text 'Frequency of Woman by Working Hours Per Week'" pointer-events="none"><text text-anchor="middle" transform="translate(0,10)" font-family="sans-serif" font-size="13px" font-weight="bold" fill="#000" opacity="1">Frequency of Woman by Working Hours Per Week</text></g></g><path class="foreground" aria-hidden="true" d="" pointer-events="none" display="none"/></g></g></g><path class="foreground" aria-hidden="true" d="" display="none"/></g></g></g></svg>