<svg xmlns="http://www.w3.org/2000/svg" xmlns:xlink="http://www.w3.org/1999/xlink" version="1.1" class="marks" width="864" height="464" viewBox="0 0 864 464"><rect width="864" height="464" fill="white"/><g fill="none" stroke-miterlimit="10" transform="translate(58,27)"><g class="mark-group role-frame root" role="graphics-object" aria-roledescription="group mark container"><g transform="translate(0,0)"><path class="background" aria-hidden="true" d="M0.5,0.5h800v400h-800Z" stroke="#ddd"/><g><g class="mark-group role-axis" role="graphics-symbol" aria-roledescription="axis" aria-label="X-axis for a linear scale with values from 0 to 100"><g transform="translate(0.5,400.5)"><path class="background" aria-hidden="true" d="M0,0h0v0h0Z" pointer-events="none"/><g><g class="mark-rule role-axis-grid" pointer-events="none"><line transform="translate(0,-400)" x2="0" y2="400" stroke="#ddd" stroke-width="1" opacity="1"/><line transform="translate(40,-400)" x2="0" y2="400" stroke="#ddd" stroke-width="1" opacity="1"/><line transform="translate(80,-400)" x2="0" y2="400" stroke="#ddd" stroke-width="1" opacity="1"/><line transform="translate(120,-400)" x2="0" y2="400" stroke="#ddd" stroke-width="1" opacity="1"/><line transform="translate(160,-400)" x2="0" y2="400" stroke="#ddd" stroke-width="1" opacity="1"/><line transform="translate(200,-400)" x2="0" y2="400" stroke="#ddd" stroke-width="1" opacity="1"/><line transform="translate(240,-400)" x2="0" y2="400" stroke="#ddd" stroke-width="1" opacity="1"/><line transform="translate(280,-400)" x2="0" y2="400" stroke="#ddd" stroke-width="1" opacity="1"/><line transform="translate(320,-400)" x2="0" y2="400" stroke="#ddd" stroke-width="1" opacity="1"/><line transform="translate(360,-400)" x2="0" y2="400" stroke="#ddd" stroke-width="1" opacity="1"/><line transform="translate(400,-400)" x2="0" y2="400" stroke="#ddd" stroke-width="1" opacity="1"/><line transform="translate(440,-400)" x2="0" y2="400" stroke="#ddd" stroke-width="1" opacity="1"/><line transform="translate(480,-400)" x2="0" y2="400" stroke="#ddd" stroke-width="1" opacity="1"/><line transform="translate(520,-400)" x2="0" y2="400" stroke="#ddd" stroke-width="1" opacity="1"/><line transform="translate(560,-400)" x2="0" y2="400" stroke="#ddd" stroke-width="1" opacity="1"/><line transform="translate(600,-400)" x2="0" y2="400" stroke="#ddd" stroke-width="1" opacity="1"/><line transform="translate(640,-400)" x2="0" y2="400" stroke="#ddd" stroke-width="1" opacity="1"/><line transform="translate(680,-400)" x2="0" y2="400" stroke="#ddd" stroke-width="1" opacity="1"/><line transform="translate(720,-400)" x2="0" y2="400" stroke="#ddd" stroke-width="1" opacity="1"/><line transform="translate(760,-400)" x2="0" y2="400" stroke="#ddd" stroke-width="1" opacity="1"/><line transform="translate(800,-400)" x2="0" y2="400" stroke="#ddd" stroke-width="1" opacity="1"/></g></g><path class="foreground" aria-hidden="true" d="" pointer-events="none" display="none"/></g></g><g class="mark-group role-axis" role="graphics-symbol" aria-roledescription="axis" aria-label="Y-axis for a log scale with values from 1 to 10,000"><g transform="translate(0.5,0.5)"><path class="background" aria-hidden="true" d="M0,0h0v0h0Z" pointer-events="none"/><g><g class="mark-rule role-axis-grid" pointer-events="none"><line transform="translate(0,400)" x2="800" y2="0" stroke="#ddd" stroke-width="1" opacity="1"/><line transform="translate(0,370)" x2="800" y2="0" stroke="#ddd" stroke-width="1" opacity="1"/><line transform="translate(0,352)" x2="800" y2="0" stroke="#ddd" stroke-width="1" opacity="1"/><line transform="translate(0,340)" x2="800" y2="0" stroke="#ddd" stroke-width="1" opacity="1"/><line transform="translate(0,330)" x2="800" y2="0" stroke="#ddd" stroke-width="1" opacity="1"/><line transform="translate(0,322)" x2="800" y2="0" stroke="#ddd" stroke-width="1" opacity="1"/><line transform="translate(0,315)" x2="800" y2="0" stroke="#ddd" stroke-width="1" opacity="1"/><line transform="translate(0,310)" x2="800" y2="0" stroke="#ddd" stroke-width="1" opacity="1"/><line transform="translate(0,305)" x2="800" y2="0" stroke="#ddd" stroke-width="1" opacity="1"/><line transform="translate(0,300)" x2="800" y2="0" stroke="#ddd" stroke-width="1" opacity="1"/><line transform="translate(0,270)" x2="800" y2="0" stroke="#ddd" stroke-width="1" opacity="1"/><line transform="translate(0,252)" x2="800" y2="0" stroke="#ddd" stroke-width="1" opacity="1"/><line transform="translate(0,240)" x2="800" y2="0" stroke="#ddd" stroke-width="1" opacity="1"/><line transform="translate(0,230)" x2="800" y2="0" stroke="#ddd" stroke-width="1" opacity="1"/><line transform="translate(0,222)" x2="800" y2="0" stroke="#ddd" stroke-width="1" opacity="1"/><line transform="translate(0,215)" x2="800" y2="0" stroke="#ddd" stroke-width="1" opacity="1"/><line transform="translate(0,210)" x2="800" y2="0" stroke="#ddd" stroke-width="1" opacity="1"/><line transform="translate(0,205)" x2="800" y2="0" stroke="#ddd" stroke-width="1" opacity="1"/><line transform="translate(0,200)" x2="800" y2="0" stroke="#ddd" stroke-width="1" opacity="1"/><line transform="translate(0,170)" x2="800" y2="0" stroke="#ddd" stroke-width="1" opacity="1"/><line transform="translate(0,152)" x2="800" y2="0" stroke="#ddd" stroke-width="1" opacity="1"/><line transform="translate(0,140)" x2="800" y2="0" stroke="#ddd" stroke-width="1" opacity="1"/><line transform="translate(0,130)" x2="800" y2="0" stroke="#ddd" stroke-width="1" opacity="1"/><line transform="translate(0,122)" x2="800" y2="0" stroke="#ddd" stroke-width="1" opacity="1"/><line transform="translate(0,115)" x2="800" y2="0" stroke="#ddd" stroke-width="1" opacity="1"/><line transform="translate(0,110)" x2="800" y2="0" stroke="#ddd" stroke-width="1" opacity="1"/><line transform="translate(0,105)" x2="800" y2="0" stroke="#ddd" stroke-width="1" opacity="1"/><line transform="translate(0,100)" x2="800" y2="0" stroke="#ddd" stroke-width="1" opacity="1"/><line transform="translate(0,70)" x2="800" y2="0" stroke="#ddd" stroke-width="1" opacity="1"/><line transform="translate(0,52)" x2="800" y2="0" stroke="#ddd" stroke-width="1" opacity="1"/><line transform="translate(0,40)" x2="800" y2="0" stroke="#ddd" stroke-width="1" opacity="1"/><line transform="translate(0,30)" x2="800" y2="0" stroke="#ddd" stroke-width="1" opacity="1"/><line transform="translate(0,22)" x2="800" y2="0" stroke="#ddd" stroke-width="1" opacity="1"/><line transform="translate(0,15)" x2="800" y2="0" stroke="#ddd" stroke-width="1" opacity="1"/><line transform="translate(0,10)" x2="800" y2="0" stroke="#ddd" stroke-width="1" opacity="1"/><line transform="translate(0,5)" x2="800" y2="0" stroke="#ddd" stroke-width="1" opacity="1"/><line transform="translate(0,0)" x2="800" y2="0" stroke="#ddd" stroke-width="1" opacity="1"/></g></g><path class="foreground" aria-hidden="true" d="" pointer-events="none" display="none"/></g></g><g class="mark-group role-axis" role="graphics-symbol" aria-roledescription="axis" aria-label="X-axis titled 'Working Hours per Week' for a linear scale with values from 0 to 100"><g transform="translate(0.5,400.5)"><path class="background" aria-hidden="true" d="M0,0h0v0h0Z" pointer-events="none"/><g><g class="mark-rule role-axis-tick" pointer-events="none"><line transform="translate(0,0)" x2="0" y2="5" stroke="#888" stroke-width="1" opacity="1"/><line transform="translate(40,0)" x2="0" y2="5" stroke="#888" stroke-width="1" opacity="1"/><line transform="translate(80,0)" x2="0" y2="5" stroke="#888" stroke-width="1" opacity="1"/><line transform="translate(120,0)" x2="0" y2="5" stroke="#888" stroke-width="1" opacity="1"/><line transform="translate(160,0)" x2="0" y2="5" stroke="#888" stroke-width="1" opacity="1"/><line transform="translate(200,0)" x2="0" y2="5" stroke="#888" stroke-width="1" opacity="1"/><line transform="translate(240,0)" x2="0" y2="5" stroke="#888" stroke-width="1" opacity="1"/><line transform="translate(280,0)" x2="0" y2="5" stroke="#888" stroke-width="1" opacity="1"/><line transform="translate(320,0)" x2="0" y2="5" stroke="#888" stroke-width="1" opacity="1"/><line transform="translate(360,0)" x2="0" y2="5" stroke="#888" stroke-width="1" opacity="1"/><line transform="translate(400,0)" x2="0" y2="5" stroke="#888" stroke-width="1" opacity="1"/><line transform="translate(440,0)" x2="0" y2="5" stroke="#888" stroke-width="1" opacity="1"/><line transform="translate(480,0)" x2="0" y2="5" stroke="#888" stroke-width="1" opacity="1"/><line transform="translate(520,0)" x2="0" y2="5" stroke="#888" stroke-width="1" opacity="1"/><line transform="translate(560,0)" x2="0" y2="5" stroke="#888" stroke-width="1" opacity="1"/><line transform="translate(600,0)" x2="0" y2="5" stroke="#888" stroke-width="1" opacity="1"/><line transform="translate(640,0)" x2="0" y2="5" stroke="#888" stroke-width="1" opacity="1"/><line transform="translate(680,0)" x2="0" y2="5" stroke="#888" stroke-width="1" opacity="1"/><line transform="translate(720,0)" x2="0" y2="5" stroke="#888" stroke-width="1" opacity="1"/><line transform="translate(760,0)" x2="0" y2="5" stroke="#888" stroke-width="1" opacity="1"/><line transform="translate(800,0)" x2="0" y2="5" stroke="#888" stroke-width="1" opacity="1"/></g><g class="mark-text role-axis-label" pointer-events="none"><text text-anchor="start" transform="translate(0,15)" font-family="sans-serif" font-size="10px" fill="#000" opacity="1">0</text><text text-anchor="middle" transform="translate(40,15)" font-family="sans-serif" font-size="10px" fill="#000" opacity="1">5</text><text text-anchor="middle" transform="translate(80,15)" font-family="sans-serif" font-size="10px" fill="#000" opacity="1">10</text><text text-anchor="middle" transform="translate(120,15)" font-family="sans-serif" font-size="10px" fill="#000" opacity="1">15</text><text text-anchor="middle" transform="translate(160,15)" font-family="sans-serif" font-size="10px" fill="#000" opacity="1">20</text><text text-anchor="middle" transform="translate(200,15)" font-family="sans-serif" font-size="10px" fill="#000" opacity="1">25</text><text text-anchor="middle" transform="translate(240,15)" font-family="sans-serif" font-size="10px" fill="#000" opacity="1">30</text><text text-anchor="middle" transform="translate(280,15)" font-family="sans-serif" font-size="10px" fill="#000" opacity="1">35</text><text text-anchor="middle" transform="translate(320,15)" font-family="sans-serif" font-size="10px" fill="#000" opacity="1">40</text><text text-anchor="middle" transform="translate(360,15)" font-family="sans-serif" font-size="10px" fill="#000" opacity="1">45</text><text text-anchor="middle" transform="translate(400,15)" font-family="sans-serif" font-size="10px" fill="#000" opacity="1">50</text><text text-anchor="middle" transform="translate(440.00000000000006,15)" font-family="sans-serif" font-size="10px" fill="#000" opacity="1">55</text><text text-anchor="middle" transform="translate(480,15)" font-family="sans-serif" font-size="10px" fill="#000" opacity="1">60</text><text text-anchor="middle" transform="translate(520,15)" font-family="sans-serif" font-size="10px" fill="#000" opacity="1">65</text><text text-anchor="middle" transform="translate(560,15)" font-family="sans-serif" font-size="10px" fill="#000" opacity="1">70</text><text text-anchor="middle" transform="translate(600,15)" font-family="sans-serif" font-size="10px" fill="#000" opacity="1">75</text><text text-anchor="middle" transform="translate(640,15)" font-family="sans-serif" font-size="10px" fill="#000" opacity="1">80</text><text text-anchor="middle" transform="translate(680,15)" font-family="sans-serif" font-size="10px" fill="#000" opacity="1">85</text><text text-anchor="middle" transform="translate(720,15)" font-family="sans-serif" font-size="10px" fill="#000" opacity="1">90</text><text text-anchor="middle" transform="translate(760,15)" font-family="sans-serif" font-size="10px" fill="#000" opacity="1">95</text><text text-anchor="end" transform="translate(800,15)" font-family="sans-serif" font-size="10px" fill="#000" opacity="1">100</text></g><g class="mark-rule role-axis-domain" pointer-events="none"><line transform="translate(0,0)" x2="800" y2="0" stroke="#888" stroke-width="1" opacity="1"/></g><g class="mark-text role-axis-title" pointer-events="none"><text text-anchor="middle" transform="translate(400,30)" font-family="sans-serif" font-size="11px" font-weight="bold" fill="#000" opacity="1">Working Hours per Week</text></g></g><path class="foreground" aria-hidden="true" d="" pointer-events="none" display="none"/></g></g><g class="mark-group role-axis" role="graphics-symbol" aria-roledescription="axis" aria-label="Y-axis titled 'Amount of Women' for a log scale with values from 1 to 10,000"><g transform="translate(0.5,0.5)"><path class="background" aria-hidden="true" d="M0,0h0v0h0Z" pointer-events="none"/><g><g class="mark-rule role-axis-tick" pointer-events="none"><line transform="translate(0,400)" x2="-5" y2="0" stroke="#888" stroke-width="1" opacity="1"/><line transform="translate(0,370)" x2="-5" y2="0" stroke="#888" stroke-width="1" opacity="1"/><line transform="translate(0,352)" x2="-5" y2="0" stroke="#888" stroke-width="1" opacity="1"/><line transform="translate(0,340)" x2="-5" y2="0" stroke="#888" stroke-width="1" opacity="1"/><line transform="translate(0,330)" x2="-5" y2="0" stroke="#888" stroke-width="1" opacity="1"/><line transform="translate(0,322)" x2="-5" y2="0" stroke="#888" stroke-width="1" opacity="1"/><line transform="translate(0,315)" x2="-5" y2="0" stroke="#888" stroke-width="1" opacity="1"/><line transform="translate(0,310)" x2="-5" y2="0" stroke="#888" stroke-width="1" opacity="1"/><line transform="translate(0,305)" x2="-5" y2="0" stroke="#888" stroke-width="1" opacity="1"/><line transform="translate(0,300)" x2="-5" y2="0" stroke="#888" stroke-width="1" opacity="1"/><line transform="translate(0,270)" x2="-5" y2="0" stroke="#888" stroke-width="1" opacity="1"/><line transform="translate(0,252)" x2="-5" y2="0" stroke="#888" stroke-width="1" opacity="1"/><line transform="translate(0,240)" x2="-5" y2="0" stroke="#888" stroke-width="1" opacity="1"/><line transform="translate(0,230)" x2="-5" y2="0" stroke="#888" stroke-width="1" opacity="1"/><line transform="translate(0,222)" x2="-5" y2="0" stroke="#888" stroke-width="1" opacity="1"/><line transform="translate(0,215)" x2="-5" y2="0" stroke="#888" stroke-width="1" opacity="1"/><line transform="translate(0,210)" x2="-5" y2="0" stroke="#888" stroke-width="1" opacity="1"/><line transform="translate(0,205)" x2="-5" y2="0" stroke="#888" stroke-width="1" opacity="1"/><line transform="translate(0,200)" x2="-5" y2="0" stroke="#888" stroke-width="1" opacity="1"/><line transform="translate(0,170)" x2="-5" y2="0" stroke="#888" stroke-width="1" opacity="1"/><line transform="translate(0,152)" x2="-5" y2="0" stroke="#888" stroke-width="1" opacity="1"/><line transform="translate(0,140)" x2="-5" y2="0" stroke="#888" stroke-width="1" opacity="1"/><line transform="translate(0,130)" x2="-5" y2="0" stroke="#888" stroke-width="1" opacity="1"/><line transform="translate(0,122)" x2="-5" y2="0" stroke="#888" stroke-width="1" opacity="1"/><line transform="translate(0,115)" x2="-5" y2="0" stroke="#888" stroke-width="1" opacity="1"/><line transform="translate(0,110)" x2="-5" y2="0" stroke="#888" stroke-width="1" opacity="1"/><line transform="translate(0,105)" x2="-5" y2="0" stroke="#888" stroke-width="1" opacity="1"/><line transform="translate(0,100)" x2="-5" y2="0" stroke="#888" stroke-width="1" opacity="1"/><line transform="translate(0,70)" x2="-5" y2="0" stroke="#888" stroke-width="1" opacity="1"/><line transform="translate(0,52)" x2="-5" y2="0" stroke="#888" stroke-width="1" opacity="1"/><line transform="translate(0,40)" x2="-5" y2="0" stroke="#888" stroke-width="1" opacity="1"/><line transform="translate(0,30)" x2="-5" y2="0" stroke="#888" stroke-width="1" opacity="1"/><line transform="translate(0,22)" x2="-5" y2="0" stroke="#888" stroke-width="1" opacity="1"/><line transform="translate(0,15)" x2="-5" y2="0" stroke="#888" stroke-width="1" opacity="1"/><line transform="translate(0,10)" x2="-5" y2="0" stroke="#888" stroke-width="1" opacity="1"/><line transform="translate(0,5)" x2="-5" y2="0" stroke="#888" stroke-width="1" opacity="1"/><line transform="translate(0,0)" x2="-5" y2="0" stroke="#888" stroke-width="1" opacity="1"/></g><g class="mark-text role-axis-label" pointer-events="none"><text text-anchor="end" transform="translate(-7,403)" font-family="sans-serif" font-size="10px" fill="#000" opacity="1">1</text><text text-anchor="end" transform="translate(-7,372.8970004336019)" font-family="sans-serif" font-size="10px" fill="#000" opacity="1">2</text><text text-anchor="end" transform="translate(-7,355.2878745280338)" font-family="sans-serif" font-size="10px" fill="#000" opacity="1"/><text text-anchor="end" transform="translate(-7,342.79400086720375)" font-family="sans-serif" font-size="10px" fill="#000" opacity="1"/><text text-anchor="end" transform="translate(-7,333.1029995663981)" font-family="sans-serif" font-size="10px" fill="#000" opacity="1"/><text text-anchor="end" transform="translate(-7,325.18487496163567)" font-family="sans-serif" font-size="10px" fill="#000" opacity="1"/><text text-anchor="end" transform="translate(-7,318.49019599857434)" font-family="sans-serif" font-size="10px" fill="#000" opacity="1"/><text text-anchor="end" transform="translate(-7,312.6910013008057)" font-family="sans-serif" font-size="10px" fill="#000" opacity="1"/><text text-anchor="end" transform="translate(-7,307.57574905606754)" font-family="sans-serif" font-size="10px" fill="#000" opacity="1"/><text text-anchor="end" transform="translate(-7,303)" font-family="sans-serif" font-size="10px" fill="#000" opacity="1">10</text><text text-anchor="end" transform="translate(-7,272.8970004336019)" font-family="sans-serif" font-size="10px" fill="#000" opacity="1">20</text><text text-anchor="end" transform="translate(-7,255.28787452803374)" font-family="sans-serif" font-size="10px" fill="#000" opacity="1"/><text text-anchor="end" transform="translate(-7,242.79400086720375)" font-family="sans-serif" font-size="10px" fill="#000" opacity="1"/><text text-anchor="end" transform="translate(-7,233.10299956639813)" font-family="sans-serif" font-size="10px" fill="#000" opacity="1"/><text text-anchor="end" transform="translate(-7,225.18487496163567)" font-family="sans-serif" font-size="10px" fill="#000" opacity="1"/><text text-anchor="end" transform="translate(-7,218.4901959985743)" font-family="sans-serif" font-size="10px" fill="#000" opacity="1"/><text text-anchor="end" transform="translate(-7,212.69100130080568)" font-family="sans-serif" font-size="10px" fill="#000" opacity="1"/><text text-anchor="end" transform="translate(-7,207.57574905606754)" font-family="sans-serif" font-size="10px" fill="#000" opacity="1"/><text text-anchor="end" transform="translate(-7,203)" font-family="sans-serif" font-size="10px" fill="#000" opacity="1">100</text><text text-anchor="end" transform="translate(-7,172.89700043360193)" font-family="sans-serif" font-size="10px" fill="#000" opacity="1">200</text><text text-anchor="end" transform="translate(-7,155.2878745280338)" font-family="sans-serif" font-size="10px" fill="#000" opacity="1"/><text text-anchor="end" transform="translate(-7,142.7940008672038)" font-family="sans-serif" font-size="10px" fill="#000" opacity="1"/><text text-anchor="end" transform="translate(-7,133.10299956639818)" font-family="sans-serif" font-size="10px" fill="#000" opacity="1"/><text text-anchor="end" transform="translate(-7,125.18487496163566)" font-family="sans-serif" font-size="10px" fill="#000" opacity="1"/><text text-anchor="end" transform="translate(-7,118.49019599857435)" font-family="sans-serif" font-size="10px" fill="#000" opacity="1"/><text text-anchor="end" transform="translate(-7,112.69100130080567)" font-family="sans-serif" font-size="10px" fill="#000" opacity="1"/><text text-anchor="end" transform="translate(-7,107.57574905606752)" font-family="sans-serif" font-size="10px" fill="#000" opacity="1"/><text text-anchor="end" transform="translate(-7,103.00000000000004)" font-family="sans-serif" font-size="10px" fill="#000" opacity="1">1,000</text><text text-anchor="end" transform="translate(-7,72.89700043360192)" font-family="sans-serif" font-size="10px" fill="#000" opacity="1">2,000</text><text text-anchor="end" transform="translate(-7,55.287874528033825)" font-family="sans-serif" font-size="10px" fill="#000" opacity="1"/><text text-anchor="end" transform="translate(-7,42.79400086720379)" font-family="sans-serif" font-size="10px" fill="#000" opacity="1"/><text text-anchor="end" transform="translate(-7,33.102999566398125)" font-family="sans-serif" font-size="10px" fill="#000" opacity="1"/><text text-anchor="end" transform="translate(-7,25.184874961635703)" font-family="sans-serif" font-size="10px" fill="#000" opacity="1"/><text text-anchor="end" transform="translate(-7,18.49019599857435)" font-family="sans-serif" font-size="10px" fill="#000" opacity="1"/><text text-anchor="end" transform="translate(-7,12.691001300805668)" font-family="sans-serif" font-size="10px" fill="#000" opacity="1"/><text text-anchor="end" transform="translate(-7,7.575749056067524)" font-family="sans-serif" font-size="10px" fill="#000" opacity="1"/><text text-anchor="end" transform="translate(-7,3)" font-family="sans-serif" font-size="10px" fill="#000" opacity="1">10,000</text></g><g class="mark-rule role-axis-domain" pointer-events="none"><line transform="translate(0,400)" x2="0" y2="-400" stroke="#888" stroke-width="1" opacity="1"/></g><g class="mark-text role-axis-title" pointer-events="none"><text text-anchor="middle" transform="translate(-41.5859375,200) rotate(-90) translate(0,-2)" font-family="sans-serif" font-size="11px" font-weight="bold" fill="#000" opacity="1">Amount of Women</text></g></g><path class="foreground" aria-hidden="true" d="" pointer-events="none" display="none"/></g></g><g class="mark-rect role-mark layer_0_marks" role="graphics-symbol" aria-roledescription="rect mark container"><path d="M317.5,30.78583906332164h5v369.21416093667835h-5Z" fill="#4c78a8"/><path d="M125.5,194.69215565165806h5v205.30784434834194h-5Z" fill="#4c78a8"/><path d="M397.5,133.25470471100465h5v266.74529528899535h-5Z" fill="#4c78a8"/><path d="M237.5,127.57241303992113h5v272.4275869600789h-5Z" fill="#4c78a8"/><path d="M357.5,140.67139329795432h5v259.3286067020457h-5Z" fill="#4c78a8"/><path d="M157.5,119.1114132640188h5v280.8885867359812h-5Z" fill="#4c78a8"/><path d="M197.5,143.651891460559h5v256.348108539441h-5Z" fill="#4c78a8"/><path d="M477.5,169.25039620867875h5v230.74960379132125h-5Z" fill="#4c78a8"/><path d="M173.5,265.7577319177794h5v134.24226808222062h-5Z" fill="#4c78a8"/><path d="M277.5,118.309616062434h5v281.690383937566h-5Z" fill="#4c78a8"/><path d="M253.5,179.31741239681506h5v220.68258760318494h-5Z" fill="#4c78a8"/><path d="M221.50000000000003,227.5724130399211h5v172.4275869600789h-5Z" fill="#4c78a8"/><path d="M285.5,187.94260687941505h5v212.05739312058495h-5Z" fill="#4c78a8"/><path d="M189.5,188.2728704344236h5v211.7271295655764h-5Z" fill="#4c78a8"/><path d="M301.5,156.2249437179612h5v243.7750562820388h-5Z" fill="#4c78a8"/><path d="M437.50000000000006,197.88107009300623h5v202.11892990699377h-5Z" fill="#4c78a8"/><path d="M93.5,203.15170514460652h5v196.84829485539348h-5Z" fill="#4c78a8"/><path d="M77.5,188.60566476931635h5v211.39433523068365h-5Z" fill="#4c78a8"/><path d="M269.5,269.8970004336019h5v130.10299956639813h-5Z" fill="#4c78a8"/><path d="M381.5,196.65762445130505h5v203.34237554869495h-5Z" fill="#4c78a8"/><path d="M117.5,162.70879970298932h5v237.29120029701068h-5Z" fill="#4c78a8"/><path d="M333.5,222.18487496163567h5v177.81512503836433h-5Z" fill="#4c78a8"/><path d="M261.5,258.5026652029182h5v141.4973347970818h-5Z" fill="#4c78a8"/><path d="M45.5,250.86383061657273h5v149.13616938342727h-5Z" fill="#4c78a8"/><path d="M509.5,330.1029995663981h5v69.89700043360187h-5Z" fill="#4c78a8"/><path d="M149.5,295.8607314841775h5v104.1392685158225h-5Z" fill="#4c78a8"/><path d="M37.5,249.48500216800943h5v150.51499783199057h-5Z" fill="#4c78a8"/><path d="M69.5,300h5v100h-5Z" fill="#4c78a8"/><path d="M365.5,261.9788758288394h5v138.02112417116058h-5Z" fill="#4c78a8"/><path d="M61.5,210.79053973095202h5v189.20946026904798h-5Z" fill="#4c78a8"/><path d="M557.5,239.79400086720375h5v160.20599913279625h-5Z" fill="#4c78a8"/><path d="M293.5,205.06099933550877h5v194.93900066449123h-5Z" fill="#4c78a8"/><path d="M165.5,276.9551078621726h5v123.04489213782739h-5Z" fill="#4c78a8"/><path d="M109.50000000000001,269.8970004336019h5v130.10299956639813h-5Z" fill="#4c78a8"/><path d="M517.5,246.85210829577446h5v153.14789170422554h-5Z" fill="#4c78a8"/><path d="M141.5,244.3697499232713h5v155.6302500767287h-5Z" fill="#4c78a8"/><path d="M597.5,292.08187539523755h5v107.91812460476245h-5Z" fill="#4c78a8"/><path d="M445.50000000000006,267.7780705266081h5v132.22192947339192h-5Z" fill="#4c78a8"/><path d="M53.50000000000001,285.3871964321762h5v114.61280356782379h-5Z" fill="#4c78a8"/><path d="M349.5,232.7902142064283h5v167.2097857935717h-5Z" fill="#4c78a8"/><path d="M309.5,265.7577319177794h5v134.24226808222062h-5Z" fill="#4c78a8"/><path d="M341.5,224.41251443275087h5v175.58748556724913h-5Z" fill="#4c78a8"/><path d="M325.5,304.57574905606754h5v95.42425094393246h-5Z" fill="#4c78a8"/><path d="M5.5,300h5v100h-5Z" fill="#4c78a8"/><path d="M637.5,261.9788758288394h5v138.02112417116058h-5Z" fill="#4c78a8"/><path d="M13.5,285.3871964321762h5v114.61280356782379h-5Z" fill="#4c78a8"/><path d="M413.5,244.3697499232713h5v155.6302500767287h-5Z" fill="#4c78a8"/><path d="M21.5,285.3871964321762h5v114.61280356782379h-5Z" fill="#4c78a8"/><path d="M133.5,279.58800173440756h5v120.41199826559244h-5Z" fill="#4c78a8"/><path d="M421.5,339.79400086720375h5v60.20599913279625h-5Z" fill="#4c78a8"/><path d="M429.5,300h5v100h-5Z" fill="#4c78a8"/><path d="M85.5,330.1029995663981h5v69.89700043360187h-5Z" fill="#4c78a8"/><path d="M461.49999999999994,315.49019599857434h5v84.50980400142566h-5Z" fill="#4c78a8"/><path d="M213.5,272.1246399047171h5v127.87536009528287h-5Z" fill="#4c78a8"/><path d="M493.5,339.79400086720375h5v60.20599913279625h-5Z" fill="#4c78a8"/><path d="M373.5,292.08187539523755h5v107.91812460476245h-5Z" fill="#4c78a8"/><path d="M389.5,330.1029995663981h5v69.89700043360187h-5Z" fill="#4c78a8"/><path d="M677.5,400h5v0h-5Z" fill="#4c78a8"/><path d="M669.5,330.1029995663981h5v69.89700043360187h-5Z" fill="#4c78a8"/><path d="M205.5,288.6056647693163h5v111.39433523068368h-5Z" fill="#4c78a8"/><path d="M101.5,295.8607314841775h5v104.1392685158225h-5Z" fill="#4c78a8"/><path d="M501.5,352.2878745280338h5v47.7121254719662h-5Z" fill="#4c78a8"/><path d="M789.5,272.1246399047171h5v127.87536009528287h-5Z" fill="#4c78a8"/><path d="M29.5,249.48500216800943h5v150.51499783199057h-5Z" fill="#4c78a8"/><path d="M181.5,276.9551078621726h5v123.04489213782739h-5Z" fill="#4c78a8"/><path d="M581.5,400h5v0h-5Z" fill="#4c78a8"/><path d="M621.5,400h5v0h-5Z" fill="#4c78a8"/><path d="M469.5,400h5v0h-5Z" fill="#4c78a8"/><path d="M573.5,288.6056647693163h5v111.39433523068368h-5Z" fill="#4c78a8"/><path d="M245.5,339.79400086720375h5v60.20599913279625h-5Z" fill="#4c78a8"/><path d="M525.5,400h5v0h-5Z" fill="#4c78a8"/><path d="M653.5,400h5v0h-5Z" fill="#4c78a8"/><path d="M717.5,339.79400086720375h5v60.20599913279625h-5Z" fill="#4c78a8"/><path d="M453.49999999999994,330.1029995663981h5v69.89700043360187h-5Z" fill="#4c78a8"/><path d="M229.49999999999997,330.1029995663981h5v69.89700043360187h-5Z" fill="#4c78a8"/><path d="M645.5,400h5v0h-5Z" fill="#4c78a8"/><path d="M541.5,400h5v0h-5Z" fill="#4c78a8"/><path d="M533.5,400h5v0h-5Z" fill="#4c78a8"/></g><g class="mark-rect role-mark layer_1_marks" role="graphics-symbol" aria-roledescription="rect mark container"><path d="M317.5,30.78583906332164h5v369.21416093667835h-5Z" fill="orange"/><path d="M237.5,127.57241303992113h5v272.4275869600789h-5Z" fill="orange"/><path d="M157.5,119.1114132640188h5v280.8885867359812h-5Z" fill="orange"/><path d="M197.5,143.651891460559h5v256.348108539441h-5Z" fill="orange"/><path d="M173.5,265.7577319177794h5v134.24226808222062h-5Z" fill="orange"/><path d="M277.5,118.309616062434h5v281.690383937566h-5Z" fill="orange"/><path d="M253.5,179.31741239681506h5v220.68258760318494h-5Z" fill="orange"/><path d="M221.50000000000003,227.5724130399211h5v172.4275869600789h-5Z" fill="orange"/><path d="M285.5,187.94260687941505h5v212.05739312058495h-5Z" fill="orange"/><path d="M189.5,188.2728704344236h5v211.7271295655764h-5Z" fill="orange"/><path d="M301.5,156.2249437179612h5v243.7750562820388h-5Z" fill="orange"/><path d="M269.5,269.8970004336019h5v130.10299956639813h-5Z" fill="orange"/><path d="M261.5,258.5026652029182h5v141.4973347970818h-5Z" fill="orange"/><path d="M293.5,205.06099933550877h5v194.93900066449123h-5Z" fill="orange"/><path d="M165.5,276.9551078621726h5v123.04489213782739h-5Z" fill="orange"/><path d="M309.5,265.7577319177794h5v134.24226808222062h-5Z" fill="orange"/><path d="M213.5,272.1246399047171h5v127.87536009528287h-5Z" fill="orange"/><path d="M205.5,288.6056647693163h5v111.39433523068368h-5Z" fill="orange"/><path d="M181.5,276.9551078621726h5v123.04489213782739h-5Z" fill="orange"/><path d="M245.5,339.79400086720375h5v60.20599913279625h-5Z" fill="orange"/><path d="M229.49999999999997,330.1029995663981h5v69.89700043360187h-5Z" fill="orange"/></g><g class="mark-group role-title"><g transform="translate(400,-22)"><path class="background" aria-hidden="true" d="M0,0h0v0h0Z" pointer-events="none"/><g><g class="mark-text role-title-text" role="graphics-symbol" aria-roledescription="title" aria-label="Title text 'Amount of Women by Working Hours Per Week'" pointer-events="none"><text text-anchor="middle" transform="translate(0,10)" font-family="sans-serif" font-size="13px" font-weight="bold" fill="#000" opacity="1">Amount of Women by Working Hours Per Week</text></g></g><path class="foreground" aria-hidden="true" d="" pointer-events="none" display="none"/></g></g></g><path class="foreground" aria-hidden="true" d="" display="none"/></g></g></g></svg>