<svg xmlns="http://www.w3.org/2000/svg" xmlns:xlink="http://www.w3.org/1999/xlink" version="1.1" class="marks" width="850" height="464" viewBox="0 0 850 464"><rect width="850" height="464" fill="white"/><g fill="none" stroke-miterlimit="10" transform="translate(44,27)"><g class="mark-group role-frame root" role="graphics-object" aria-roledescription="group mark container"><g transform="translate(0,0)"><path class="background" aria-hidden="true" d="M0.5,0.5h800v400h-800Z" stroke="#ddd"/><g><g class="mark-group role-axis" role="graphics-symbol" aria-roledescription="axis" aria-label="X-axis for a linear scale with values from 10 to 100"><g transform="translate(0.5,400.5)"><path class="background" aria-hidden="true" d="M0,0h0v0h0Z" pointer-events="none"/><g><g class="mark-rule role-axis-grid" pointer-events="none"><line transform="translate(0,-400)" x2="0" y2="400" stroke="#ddd" stroke-width="1" opacity="1"/><line transform="translate(44,-400)" x2="0" y2="400" stroke="#ddd" stroke-width="1" opacity="1"/><line transform="translate(89,-400)" x2="0" y2="400" stroke="#ddd" stroke-width="1" opacity="1"/><line transform="translate(133,-400)" x2="0" y2="400" stroke="#ddd" stroke-width="1" opacity="1"/><line transform="translate(178,-400)" x2="0" y2="400" stroke="#ddd" stroke-width="1" opacity="1"/><line transform="translate(222,-400)" x2="0" y2="400" stroke="#ddd" stroke-width="1" opacity="1"/><line transform="translate(267,-400)" x2="0" y2="400" stroke="#ddd" stroke-width="1" opacity="1"/><line transform="translate(311,-400)" x2="0" y2="400" stroke="#ddd" stroke-width="1" opacity="1"/><line transform="translate(356,-400)" x2="0" y2="400" stroke="#ddd" stroke-width="1" opacity="1"/><line transform="translate(400,-400)" x2="0" y2="400" stroke="#ddd" stroke-width="1" opacity="1"/><line transform="translate(444,-400)" x2="0" y2="400" stroke="#ddd" stroke-width="1" opacity="1"/><line transform="translate(489,-400)" x2="0" y2="400" stroke="#ddd" stroke-width="1" opacity="1"/><line transform="translate(533,-400)" x2="0" y2="400" stroke="#ddd" stroke-width="1" opacity="1"/><line transform="translate(578,-400)" x2="0" y2="400" stroke="#ddd" stroke-width="1" opacity="1"/><line transform="translate(622,-400)" x2="0" y2="400" stroke="#ddd" stroke-width="1" opacity="1"/><line transform="translate(667,-400)" x2="0" y2="400" stroke="#ddd" stroke-width="1" opacity="1"/><line transform="translate(711,-400)" x2="0" y2="400" stroke="#ddd" stroke-width="1" opacity="1"/><line transform="translate(756,-400)" x2="0" y2="400" stroke="#ddd" stroke-width="1" opacity="1"/><line transform="translate(800,-400)" x2="0" y2="400" stroke="#ddd" stroke-width="1" opacity="1"/></g></g><path class="foreground" aria-hidden="true" d="" pointer-events="none" display="none"/></g></g><g class="mark-group role-axis" role="graphics-symbol" aria-roledescription="axis" aria-label="Y-axis for a linear scale with values from 0 to 400"><g transform="translate(0.5,0.5)"><path class="background" aria-hidden="true" d="M0,0h0v0h0Z" pointer-events="none"/><g><g class="mark-rule role-axis-grid" pointer-events="none"><line transform="translate(0,400)" x2="800" y2="0" stroke="#ddd" stroke-width="1" opacity="1"/><line transform="translate(0,350)" x2="800" y2="0" stroke="#ddd" stroke-width="1" opacity="1"/><line transform="translate(0,300)" x2="800" y2="0" stroke="#ddd" stroke-width="1" opacity="1"/><line transform="translate(0,250)" x2="800" y2="0" stroke="#ddd" stroke-width="1" opacity="1"/><line transform="translate(0,200)" x2="800" y2="0" stroke="#ddd" stroke-width="1" opacity="1"/><line transform="translate(0,150)" x2="800" y2="0" stroke="#ddd" stroke-width="1" opacity="1"/><line transform="translate(0,100)" x2="800" y2="0" stroke="#ddd" stroke-width="1" opacity="1"/><line transform="translate(0,50)" x2="800" y2="0" stroke="#ddd" stroke-width="1" opacity="1"/><line transform="translate(0,0)" x2="800" y2="0" stroke="#ddd" stroke-width="1" opacity="1"/></g></g><path class="foreground" aria-hidden="true" d="" pointer-events="none" display="none"/></g></g><g class="mark-group role-axis" role="graphics-symbol" aria-roledescription="axis" aria-label="X-axis titled 'Age' for a linear scale with values from 10 to 100"><g transform="translate(0.5,400.5)"><path class="background" aria-hidden="true" d="M0,0h0v0h0Z" pointer-events="none"/><g><g class="mark-rule role-axis-tick" pointer-events="none"><line transform="translate(0,0)" x2="0" y2="5" stroke="#888" stroke-width="1" opacity="1"/><line transform="translate(44,0)" x2="0" y2="5" stroke="#888" stroke-width="1" opacity="1"/><line transform="translate(89,0)" x2="0" y2="5" stroke="#888" stroke-width="1" opacity="1"/><line transform="translate(133,0)" x2="0" y2="5" stroke="#888" stroke-width="1" opacity="1"/><line transform="translate(178,0)" x2="0" y2="5" stroke="#888" stroke-width="1" opacity="1"/><line transform="translate(222,0)" x2="0" y2="5" stroke="#888" stroke-width="1" opacity="1"/><line transform="translate(267,0)" x2="0" y2="5" stroke="#888" stroke-width="1" opacity="1"/><line transform="translate(311,0)" x2="0" y2="5" stroke="#888" stroke-width="1" opacity="1"/><line transform="translate(356,0)" x2="0" y2="5" stroke="#888" stroke-width="1" opacity="1"/><line transform="translate(400,0)" x2="0" y2="5" stroke="#888" stroke-width="1" opacity="1"/><line transform="translate(444,0)" x2="0" y2="5" stroke="#888" stroke-width="1" opacity="1"/><line transform="translate(489,0)" x2="0" y2="5" stroke="#888" stroke-width="1" opacity="1"/><line transform="translate(533,0)" x2="0" y2="5" stroke="#888" stroke-width="1" opacity="1"/><line transform="translate(578,0)" x2="0" y2="5" stroke="#888" stroke-width="1" opacity="1"/><line transform="translate(622,0)" x2="0" y2="5" stroke="#888" stroke-width="1" opacity="1"/><line transform="translate(667,0)" x2="0" y2="5" stroke="#888" stroke-width="1" opacity="1"/><line transform="translate(711,0)" x2="0" y2="5" stroke="#888" stroke-width="1" opacity="1"/><line transform="translate(756,0)" x2="0" y2="5" stroke="#888" stroke-width="1" opacity="1"/><line transform="translate(800,0)" x2="0" y2="5" stroke="#888" stroke-width="1" opacity="1"/></g><g class="mark-text role-axis-label" pointer-events="none"><text text-anchor="start" transform="translate(0,15)" font-family="sans-serif" font-size="10px" fill="#000" opacity="1">10</text><text text-anchor="middle" transform="translate(44.44444444444444,15)" font-family="sans-serif" font-size="10px" fill="#000" opacity="1">15</text><text text-anchor="middle" transform="translate(88.88888888888889,15)" font-family="sans-serif" font-size="10px" fill="#000" opacity="1">20</text><text text-anchor="middle" transform="translate(133.33333333333331,15)" font-family="sans-serif" font-size="10px" fill="#000" opacity="1">25</text><text text-anchor="middle" transform="translate(177.77777777777777,15)" font-family="sans-serif" font-size="10px" fill="#000" opacity="1">30</text><text text-anchor="middle" transform="translate(222.22222222222223,15)" font-family="sans-serif" font-size="10px" fill="#000" opacity="1">35</text><text text-anchor="middle" transform="translate(266.66666666666663,15)" font-family="sans-serif" font-size="10px" fill="#000" opacity="1">40</text><text text-anchor="middle" transform="translate(311.11111111111114,15)" font-family="sans-serif" font-size="10px" fill="#000" opacity="1">45</text><text text-anchor="middle" transform="translate(355.55555555555554,15)" font-family="sans-serif" font-size="10px" fill="#000" opacity="1">50</text><text text-anchor="middle" transform="translate(400,15)" font-family="sans-serif" font-size="10px" fill="#000" opacity="1">55</text><text text-anchor="middle" transform="translate(444.44444444444446,15)" font-family="sans-serif" font-size="10px" fill="#000" opacity="1">60</text><text text-anchor="middle" transform="translate(488.8888888888889,15)" font-family="sans-serif" font-size="10px" fill="#000" opacity="1">65</text><text text-anchor="middle" transform="translate(533.3333333333333,15)" font-family="sans-serif" font-size="10px" fill="#000" opacity="1">70</text><text text-anchor="middle" transform="translate(577.7777777777777,15)" font-family="sans-serif" font-size="10px" fill="#000" opacity="1">75</text><text text-anchor="middle" transform="translate(622.2222222222223,15)" font-family="sans-serif" font-size="10px" fill="#000" opacity="1">80</text><text text-anchor="middle" transform="translate(666.6666666666667,15)" font-family="sans-serif" font-size="10px" fill="#000" opacity="1">85</text><text text-anchor="middle" transform="translate(711.1111111111111,15)" font-family="sans-serif" font-size="10px" fill="#000" opacity="1">90</text><text text-anchor="middle" transform="translate(755.5555555555555,15)" font-family="sans-serif" font-size="10px" fill="#000" opacity="1">95</text><text text-anchor="end" transform="translate(800,15)" font-family="sans-serif" font-size="10px" fill="#000" opacity="1">100</text></g><g class="mark-rule role-axis-domain" pointer-events="none"><line transform="translate(0,0)" x2="800" y2="0" stroke="#888" stroke-width="1" opacity="1"/></g><g class="mark-text role-axis-title" pointer-events="none"><text text-anchor="middle" transform="translate(400,30)" font-family="sans-serif" font-size="11px" font-weight="bold" fill="#000" opacity="1">Age</text></g></g><path class="foreground" aria-hidden="true" d="" pointer-events="none" display="none"/></g></g><g class="mark-group role-axis" role="graphics-symbol" aria-roledescription="axis" aria-label="Y-axis titled 'Amount of Women' for a linear scale with values from 0 to 400"><g transform="translate(0.5,0.5)"><path class="background" aria-hidden="true" d="M0,0h0v0h0Z" pointer-events="none"/><g><g class="mark-rule role-axis-tick" pointer-events="none"><line transform="translate(0,400)" x2="-5" y2="0" stroke="#888" stroke-width="1" opacity="1"/><line transform="translate(0,350)" x2="-5" y2="0" stroke="#888" stroke-width="1" opacity="1"/><line transform="translate(0,300)" x2="-5" y2="0" stroke="#888" stroke-width="1" opacity="1"/><line transform="translate(0,250)" x2="-5" y2="0" stroke="#888" stroke-width="1" opacity="1"/><line transform="translate(0,200)" x2="-5" y2="0" stroke="#888" stroke-width="1" opacity="1"/><line transform="translate(0,150)" x2="-5" y2="0" stroke="#888" stroke-width="1" opacity="1"/><line transform="translate(0,100)" x2="-5" y2="0" stroke="#888" stroke-width="1" opacity="1"/><line transform="translate(0,50)" x2="-5" y2="0" stroke="#888" stroke-width="1" opacity="1"/><line transform="translate(0,0)" x2="-5" y2="0" stroke="#888" stroke-width="1" opacity="1"/></g><g class="mark-text role-axis-label" pointer-events="none"><text text-anchor="end" transform="translate(-7,403)" font-family="sans-serif" font-size="10px" fill="#000" opacity="1">0</text><text text-anchor="end" transform="translate(-7,353)" font-family="sans-serif" font-size="10px" fill="#000" opacity="1">50</text><text text-anchor="end" transform="translate(-7,303)" font-family="sans-serif" font-size="10px" fill="#000" opacity="1">100</text><text text-anchor="end" transform="translate(-7,253)" font-family="sans-serif" font-size="10px" fill="#000" opacity="1">150</text><text text-anchor="end" transform="translate(-7,203)" font-family="sans-serif" font-size="10px" fill="#000" opacity="1">200</text><text text-anchor="end" transform="translate(-7,153)" font-family="sans-serif" font-size="10px" fill="#000" opacity="1">250</text><text text-anchor="end" transform="translate(-7,103)" font-family="sans-serif" font-size="10px" fill="#000" opacity="1">300</text><text text-anchor="end" transform="translate(-7,53)" font-family="sans-serif" font-size="10px" fill="#000" opacity="1">350</text><text text-anchor="end" transform="translate(-7,3)" font-family="sans-serif" font-size="10px" fill="#000" opacity="1">400</text></g><g class="mark-rule role-axis-domain" pointer-events="none"><line transform="translate(0,400)" x2="0" y2="-400" stroke="#888" stroke-width="1" opacity="1"/></g><g class="mark-text role-axis-title" pointer-events="none"><text text-anchor="middle" transform="translate(-27.6845703125,200) rotate(-90) translate(0,-2)" font-family="sans-serif" font-size="11px" font-weight="bold" fill="#000" opacity="1">Amount of Women</text></g></g><path class="foreground" aria-hidden="true" d="" pointer-events="none" display="none"/></g></g><g class="mark-rect role-mark layer_0_marks" role="graphics-symbol" aria-roledescription="rect mark container"><path d="M157.5,89.99999999999999h5v310h-5Z" fill="#4c78a8"/><path d="M237.5,171h5v229h-5Z" fill="#4c78a8"/><path d="M344.1666666666667,229h5v171h-5Z" fill="#4c78a8"/><path d="M184.16666666666666,118.00000000000001h5v282h-5Z" fill="#4c78a8"/><path d="M113.05555555555554,41.000000000000014h5v359h-5Z" fill="#4c78a8"/><path d="M290.8333333333333,171h5v229h-5Z" fill="#4c78a8"/><path d="M388.6111111111111,295h5v105h-5Z" fill="#4c78a8"/><path d="M433.05555555555554,306h5v94h-5Z" fill="#4c78a8"/><path d="M77.5,43.99999999999999h5v356h-5Z" fill="#4c78a8"/><path d="M299.72222222222223,198h5v202h-5Z" fill="#4c78a8"/><path d="M130.83333333333331,87.00000000000001h5v313h-5Z" fill="#4c78a8"/><path d="M68.61111111111111,131.99999999999997h5v268h-5Z" fill="#4c78a8"/><path d="M326.38888888888886,186h5v214h-5Z" fill="#4c78a8"/><path d="M379.72222222222223,263.99999999999994h5v136.00000000000006h-5Z" fill="#4c78a8"/><path d="M317.5,172.00000000000003h5v227.99999999999997h-5Z" fill="#4c78a8"/><path d="M175.27777777777777,127h5v273h-5Z" fill="#4c78a8"/><path d="M335.27777777777777,229h5v171h-5Z" fill="#4c78a8"/><path d="M86.38888888888889,37.000000000000014h5v363h-5Z" fill="#4c78a8"/><path d="M59.72222222222222,213.99999999999997h5v186.00000000000003h-5Z" fill="#4c78a8"/><path d="M228.6111111111111,112.99999999999999h5v287h-5Z" fill="#4c78a8"/><path d="M95.27777777777777,71h5v329h-5Z" fill="#4c78a8"/><path d="M121.94444444444444,95.00000000000001h5v305h-5Z" fill="#4c78a8"/><path d="M148.61111111111111,106h5v294h-5Z" fill="#4c78a8"/><path d="M308.61111111111114,177.99999999999997h5v222.00000000000003h-5Z" fill="#4c78a8"/><path d="M210.83333333333334,143.00000000000003h5v257h-5Z" fill="#4c78a8"/><path d="M201.94444444444443,145.00000000000003h5v254.99999999999997h-5Z" fill="#4c78a8"/><path d="M513.0555555555555,358h5v42h-5Z" fill="#4c78a8"/><path d="M495.27777777777777,352h5v48h-5Z" fill="#4c78a8"/><path d="M273.05555555555554,167h5v233h-5Z" fill="#4c78a8"/><path d="M246.38888888888889,164h5v236h-5Z" fill="#4c78a8"/><path d="M264.16666666666663,137h5v263h-5Z" fill="#4c78a8"/><path d="M139.72222222222223,110.00000000000001h5v290h-5Z" fill="#4c78a8"/><path d="M281.94444444444446,172.00000000000003h5v227.99999999999997h-5Z" fill="#4c78a8"/><path d="M424.1666666666667,295h5v105h-5Z" fill="#4c78a8"/><path d="M219.72222222222223,154h5v246h-5Z" fill="#4c78a8"/><path d="M353.05555555555554,244h5v156h-5Z" fill="#4c78a8"/><path d="M441.94444444444446,321h5v79h-5Z" fill="#4c78a8"/><path d="M575.2777777777777,386h5v14h-5Z" fill="#4c78a8"/><path d="M486.3888888888889,343h5v57h-5Z" fill="#4c78a8"/><path d="M193.05555555555554,145.00000000000003h5v254.99999999999997h-5Z" fill="#4c78a8"/><path d="M104.16666666666667,58.00000000000001h5v342h-5Z" fill="#4c78a8"/><path d="M255.27777777777777,144h5v256h-5Z" fill="#4c78a8"/><path d="M166.38888888888889,129h5v271h-5Z" fill="#4c78a8"/><path d="M459.7222222222222,312h5v88h-5Z" fill="#4c78a8"/><path d="M415.2777777777778,309h5v91h-5Z" fill="#4c78a8"/><path d="M504.16666666666663,348h5v52h-5Z" fill="#4c78a8"/><path d="M566.3888888888889,381h5v19h-5Z" fill="#4c78a8"/><path d="M548.6111111111111,375h5v25h-5Z" fill="#4c78a8"/><path d="M521.9444444444445,367h5v33h-5Z" fill="#4c78a8"/><path d="M397.5,263h5v137h-5Z" fill="#4c78a8"/><path d="M370.8333333333333,266h5v134h-5Z" fill="#4c78a8"/><path d="M530.8333333333333,372h5v28h-5Z" fill="#4c78a8"/><path d="M406.38888888888886,294h5v106h-5Z" fill="#4c78a8"/><path d="M450.8333333333333,321h5v79h-5Z" fill="#4c78a8"/><path d="M361.94444444444446,237h5v163h-5Z" fill="#4c78a8"/><path d="M601.9444444444445,393h5v7h-5Z" fill="#4c78a8"/><path d="M468.61111111111114,336h5v64h-5Z" fill="#4c78a8"/><path d="M708.6111111111111,386h5v14h-5Z" fill="#4c78a8"/><path d="M477.5,330h5v70h-5Z" fill="#4c78a8"/><path d="M557.5,378h5v22h-5Z" fill="#4c78a8"/><path d="M539.7222222222223,374h5v26h-5Z" fill="#4c78a8"/><path d="M584.1666666666666,384h5v16h-5Z" fill="#4c78a8"/><path d="M628.6111111111111,391h5v9h-5Z" fill="#4c78a8"/><path d="M610.8333333333334,395h5v5h-5Z" fill="#4c78a8"/><path d="M646.3888888888889,399h5v1h-5Z" fill="#4c78a8"/><path d="M593.0555555555555,391h5v9h-5Z" fill="#4c78a8"/><path d="M619.7222222222223,395h5v5h-5Z" fill="#4c78a8"/><path d="M655.2777777777777,396h5v4h-5Z" fill="#4c78a8"/><path d="M637.5,398h5v2h-5Z" fill="#4c78a8"/><path d="M664.1666666666667,399h5v1h-5Z" fill="#4c78a8"/><path d="M690.8333333333334,399h5v1h-5Z" fill="#4c78a8"/><path d="M673.0555555555555,399h5v1h-5Z" fill="#4c78a8"/></g><g class="mark-rect role-mark layer_1_marks" role="graphics-symbol" aria-roledescription="rect mark container"><path d="M157.5,89.99999999999999h5v310h-5Z" fill="orange"/><path d="M184.16666666666666,118.00000000000001h5v282h-5Z" fill="orange"/><path d="M113.05555555555554,41.000000000000014h5v359h-5Z" fill="orange"/><path d="M130.83333333333331,87.00000000000001h5v313h-5Z" fill="orange"/><path d="M175.27777777777777,127h5v273h-5Z" fill="orange"/><path d="M86.38888888888889,37.000000000000014h5v363h-5Z" fill="orange"/><path d="M95.27777777777777,71h5v329h-5Z" fill="orange"/><path d="M121.94444444444444,95.00000000000001h5v305h-5Z" fill="orange"/><path d="M148.61111111111111,106h5v294h-5Z" fill="orange"/><path d="M210.83333333333334,143.00000000000003h5v257h-5Z" fill="orange"/><path d="M201.94444444444443,145.00000000000003h5v254.99999999999997h-5Z" fill="orange"/><path d="M139.72222222222223,110.00000000000001h5v290h-5Z" fill="orange"/><path d="M219.72222222222223,154h5v246h-5Z" fill="orange"/><path d="M193.05555555555554,145.00000000000003h5v254.99999999999997h-5Z" fill="orange"/><path d="M104.16666666666667,58.00000000000001h5v342h-5Z" fill="orange"/><path d="M166.38888888888889,129h5v271h-5Z" fill="orange"/></g><g class="mark-group role-title"><g transform="translate(400,-22)"><path class="background" aria-hidden="true" d="M0,0h0v0h0Z" pointer-events="none"/><g><g class="mark-text role-title-text" role="graphics-symbol" aria-roledescription="title" aria-label="Title text 'Amount of Women by Age'" pointer-events="none"><text text-anchor="middle" transform="translate(0,10)" font-family="sans-serif" font-size="13px" font-weight="bold" fill="#000" opacity="1">Amount of Women by Age</text></g></g><path class="foreground" aria-hidden="true" d="" pointer-events="none" display="none"/></g></g></g><path class="foreground" aria-hidden="true" d="" display="none"/></g></g></g></svg>